M48
; DRILL file {KiCad 5.1.7} date Mon Nov 23 16:00:55 2020
; FORMAT={-:-/ absolute / metric / decimal}
; #@! TF.CreationDate,2020-11-23T16:00:55+01:00
; #@! TF.GenerationSoftware,Kicad,Pcbnew,5.1.7
; #@! TF.FileFunction,Plated,1,2,PTH
FMAT,2
METRIC
T1C0.400
T2C0.600
T3C0.800
T4C1.000
T5C1.100
T6C2.300
T7C3.200
%
G90
G05
T1
X133.159Y-78.41
X133.159Y-80.01
X133.159Y-81.61
X134.359Y-79.21
X134.359Y-80.81
T2
X113.284Y-77.216
X114.784Y-77.216
X108.458Y-77.216
X109.958Y-77.216
X118.11Y-77.216
X119.61Y-77.216
X123.19Y-77.216
X124.69Y-77.216
X103.632Y-77.216
X105.132Y-77.216
T3
X100.33Y-60.325
X100.33Y-67.945
X102.87Y-60.325
X102.87Y-67.945
X105.41Y-60.325
X105.41Y-67.945
X107.95Y-60.325
X107.95Y-67.945
X110.49Y-60.325
X110.49Y-67.945
X113.03Y-60.325
X113.03Y-67.945
X115.57Y-60.325
X115.57Y-67.945
X118.11Y-60.325
X118.11Y-67.945
X96.52Y-56.515
X96.52Y-71.755
X99.06Y-56.515
X99.06Y-71.755
X101.6Y-56.515
X101.6Y-71.755
X104.14Y-56.515
X104.14Y-71.755
X106.68Y-56.515
X106.68Y-71.755
X109.22Y-56.515
X109.22Y-71.755
X111.76Y-56.515
X111.76Y-71.755
X114.3Y-56.515
X114.3Y-71.755
X116.84Y-56.515
X116.84Y-71.755
X119.38Y-56.515
X119.38Y-71.755
X121.92Y-56.515
X121.92Y-71.755
X124.46Y-56.515
X124.46Y-71.755
T4
X96.456Y-75.184
X96.456Y-77.724
X98.996Y-75.184
X98.996Y-77.724
X89.235Y-66.505
X89.235Y-69.275
X89.235Y-72.045
X89.235Y-74.815
X92.075Y-65.12
X92.075Y-67.89
X92.075Y-70.66
X92.075Y-73.43
X92.075Y-76.2
T5
X130.262Y-61.306
X130.262Y-68.106
X132.762Y-61.306
X132.762Y-63.406
X132.762Y-66.007
X132.762Y-68.106
T6
X136.042Y-57.856
X136.042Y-71.556
X136.843Y-64.706
T7
X90.655Y-58.16
X90.655Y-83.16
T3
G00X133.51Y-76.31
M15
G01X134.609Y-76.31
M16
G05
G00X133.51Y-83.71
M15
G01X134.609Y-83.71
M16
G05
G00X138.26Y-76.31
M15
G01X139.359Y-76.31
M16
G05
G00X138.26Y-83.71
M15
G01X139.359Y-83.71
M16
G05
T0
M30
