%TF.GenerationSoftware,KiCad,Pcbnew,5.1.7*%
%TF.CreationDate,2020-11-23T16:55:56+01:00*%
%TF.ProjectId,ps2-serial-mouse-adapter,7073322d-7365-4726-9961-6c2d6d6f7573,0.5*%
%TF.SameCoordinates,Original*%
%TF.FileFunction,Copper,L1,Top*%
%TF.FilePolarity,Positive*%
%FSLAX46Y46*%
G04 Gerber Fmt 4.6, Leading zero omitted, Abs format (unit mm)*
G04 Created by KiCad (PCBNEW 5.1.7) date 2020-11-23 16:55:56*
%MOMM*%
%LPD*%
G01*
G04 APERTURE LIST*
%TA.AperFunction,ComponentPad*%
%ADD10C,3.300000*%
%TD*%
%TA.AperFunction,ComponentPad*%
%ADD11C,1.700000*%
%TD*%
%TA.AperFunction,ComponentPad*%
%ADD12O,1.700000X1.700000*%
%TD*%
%TA.AperFunction,ComponentPad*%
%ADD13R,1.700000X1.700000*%
%TD*%
%TA.AperFunction,ComponentPad*%
%ADD14C,1.200000*%
%TD*%
%TA.AperFunction,ComponentPad*%
%ADD15R,1.200000X1.200000*%
%TD*%
%TA.AperFunction,ComponentPad*%
%ADD16O,1.600000X1.600000*%
%TD*%
%TA.AperFunction,ComponentPad*%
%ADD17R,1.600000X1.600000*%
%TD*%
%TA.AperFunction,ComponentPad*%
%ADD18C,4.000000*%
%TD*%
%TA.AperFunction,ComponentPad*%
%ADD19C,1.600000*%
%TD*%
%TA.AperFunction,ComponentPad*%
%ADD20O,2.500000X1.400000*%
%TD*%
%TA.AperFunction,ComponentPad*%
%ADD21C,1.100000*%
%TD*%
%TA.AperFunction,Conductor*%
%ADD22C,0.400000*%
%TD*%
%TA.AperFunction,Conductor*%
%ADD23C,0.254000*%
%TD*%
%TA.AperFunction,Conductor*%
%ADD24C,0.100000*%
%TD*%
G04 APERTURE END LIST*
D10*
%TO.P,MOUSE1,7*%
%TO.N,GND*%
X136042500Y-57856500D03*
X136042500Y-71556500D03*
X136842500Y-64706500D03*
D11*
%TO.P,MOUSE1,1*%
%TO.N,DATA*%
X132762500Y-63406500D03*
%TO.P,MOUSE1,2*%
%TO.N,N/C*%
X132762500Y-66006500D03*
%TO.P,MOUSE1,3*%
%TO.N,GND*%
X132762500Y-61306500D03*
%TO.P,MOUSE1,5*%
%TO.N,CLK*%
X130262500Y-61306500D03*
%TO.P,MOUSE1,4*%
%TO.N,Net-(C2-Pad1)*%
X132762500Y-68106500D03*
%TO.P,MOUSE1,6*%
%TO.N,N/C*%
X130262500Y-68106500D03*
%TD*%
D12*
%TO.P,JP1,4*%
%TO.N,GND*%
X98996500Y-77724000D03*
%TO.P,JP1,3*%
%TO.N,Net-(JP1-Pad3)*%
X98996500Y-75184000D03*
%TO.P,JP1,2*%
%TO.N,GND*%
X96456500Y-77724000D03*
D13*
%TO.P,JP1,1*%
%TO.N,Net-(JP1-Pad1)*%
X96456500Y-75184000D03*
%TD*%
D14*
%TO.P,C2,2*%
%TO.N,GND*%
X124690000Y-77216000D03*
D15*
%TO.P,C2,1*%
%TO.N,Net-(C2-Pad1)*%
X123190000Y-77216000D03*
%TD*%
D16*
%TO.P,U1,24*%
%TO.N,Net-(C2-Pad1)*%
X124460000Y-71755000D03*
%TO.P,U1,12*%
%TO.N,N/C*%
X96520000Y-56515000D03*
%TO.P,U1,23*%
%TO.N,GND*%
X121920000Y-71755000D03*
%TO.P,U1,11*%
%TO.N,N/C*%
X99060000Y-56515000D03*
%TO.P,U1,22*%
X119380000Y-71755000D03*
%TO.P,U1,10*%
X101600000Y-56515000D03*
%TO.P,U1,21*%
%TO.N,VCC*%
X116840000Y-71755000D03*
%TO.P,U1,9*%
%TO.N,N/C*%
X104140000Y-56515000D03*
%TO.P,U1,20*%
%TO.N,DATA*%
X114300000Y-71755000D03*
%TO.P,U1,8*%
%TO.N,DTS*%
X106680000Y-56515000D03*
%TO.P,U1,19*%
%TO.N,N/C*%
X111760000Y-71755000D03*
%TO.P,U1,7*%
%TO.N,TX*%
X109220000Y-56515000D03*
%TO.P,U1,18*%
%TO.N,N/C*%
X109220000Y-71755000D03*
%TO.P,U1,6*%
%TO.N,RTS*%
X111760000Y-56515000D03*
%TO.P,U1,17*%
%TO.N,N/C*%
X106680000Y-71755000D03*
%TO.P,U1,5*%
%TO.N,CLK*%
X114300000Y-56515000D03*
%TO.P,U1,16*%
%TO.N,N/C*%
X104140000Y-71755000D03*
%TO.P,U1,4*%
%TO.N,GND*%
X116840000Y-56515000D03*
%TO.P,U1,15*%
%TO.N,Net-(JP1-Pad3)*%
X101600000Y-71755000D03*
%TO.P,U1,3*%
%TO.N,N/C*%
X119380000Y-56515000D03*
%TO.P,U1,14*%
%TO.N,Net-(JP1-Pad1)*%
X99060000Y-71755000D03*
%TO.P,U1,2*%
%TO.N,N/C*%
X121920000Y-56515000D03*
%TO.P,U1,13*%
X96520000Y-71755000D03*
D17*
%TO.P,U1,1*%
X124460000Y-56515000D03*
%TD*%
D14*
%TO.P,C5,2*%
%TO.N,Net-(C5-Pad2)*%
X119610000Y-77216000D03*
D15*
%TO.P,C5,1*%
%TO.N,GND*%
X118110000Y-77216000D03*
%TD*%
D18*
%TO.P,RS232,0*%
%TO.N,N/C*%
X90655000Y-83160000D03*
X90655000Y-58160000D03*
D19*
%TO.P,RS232,9*%
X89235000Y-66505000D03*
%TO.P,RS232,8*%
X89235000Y-69275000D03*
%TO.P,RS232,7*%
%TO.N,Net-(RS232-Pad7)*%
X89235000Y-72045000D03*
%TO.P,RS232,6*%
%TO.N,N/C*%
X89235000Y-74815000D03*
%TO.P,RS232,5*%
%TO.N,GND*%
X92075000Y-65120000D03*
%TO.P,RS232,4*%
%TO.N,Net-(RS232-Pad4)*%
X92075000Y-67890000D03*
%TO.P,RS232,3*%
%TO.N,N/C*%
X92075000Y-70660000D03*
%TO.P,RS232,2*%
%TO.N,Net-(RS232-Pad2)*%
X92075000Y-73430000D03*
D17*
%TO.P,RS232,1*%
%TO.N,N/C*%
X92075000Y-76200000D03*
%TD*%
D16*
%TO.P,U2,16*%
%TO.N,Net-(C2-Pad1)*%
X100330000Y-60325000D03*
%TO.P,U2,8*%
%TO.N,Net-(RS232-Pad7)*%
X118110000Y-67945000D03*
%TO.P,U2,15*%
%TO.N,GND*%
X102870000Y-60325000D03*
%TO.P,U2,7*%
%TO.N,Net-(RS232-Pad2)*%
X115570000Y-67945000D03*
%TO.P,U2,14*%
%TO.N,N/C*%
X105410000Y-60325000D03*
%TO.P,U2,6*%
%TO.N,Net-(C5-Pad2)*%
X113030000Y-67945000D03*
%TO.P,U2,13*%
%TO.N,Net-(RS232-Pad4)*%
X107950000Y-60325000D03*
%TO.P,U2,5*%
%TO.N,Net-(C3-Pad2)*%
X110490000Y-67945000D03*
%TO.P,U2,12*%
%TO.N,DTS*%
X110490000Y-60325000D03*
%TO.P,U2,4*%
%TO.N,Net-(C3-Pad1)*%
X107950000Y-67945000D03*
%TO.P,U2,11*%
%TO.N,N/C*%
X113030000Y-60325000D03*
%TO.P,U2,3*%
%TO.N,Net-(C1-Pad2)*%
X105410000Y-67945000D03*
%TO.P,U2,10*%
%TO.N,TX*%
X115570000Y-60325000D03*
%TO.P,U2,2*%
%TO.N,Net-(C4-Pad1)*%
X102870000Y-67945000D03*
%TO.P,U2,9*%
%TO.N,RTS*%
X118110000Y-60325000D03*
D17*
%TO.P,U2,1*%
%TO.N,Net-(C1-Pad1)*%
X100330000Y-67945000D03*
%TD*%
D20*
%TO.P,PWR1,6*%
%TO.N,GND*%
X138809500Y-76310000D03*
X138809500Y-83710000D03*
X134059500Y-83710000D03*
X134059500Y-76310000D03*
D21*
%TO.P,PWR1,4*%
%TO.N,N/C*%
X134359500Y-79210000D03*
%TO.P,PWR1,2*%
X134359500Y-80810000D03*
%TO.P,PWR1,1*%
%TO.N,VCC*%
X133159500Y-81610000D03*
%TO.P,PWR1,5*%
%TO.N,GND*%
X133159500Y-78410000D03*
%TO.P,PWR1,3*%
%TO.N,N/C*%
X133159500Y-80010000D03*
%TD*%
D14*
%TO.P,C4,2*%
%TO.N,GND*%
X105132000Y-77216000D03*
D15*
%TO.P,C4,1*%
%TO.N,Net-(C4-Pad1)*%
X103632000Y-77216000D03*
%TD*%
D14*
%TO.P,C3,2*%
%TO.N,Net-(C3-Pad2)*%
X114784000Y-77216000D03*
D15*
%TO.P,C3,1*%
%TO.N,Net-(C3-Pad1)*%
X113284000Y-77216000D03*
%TD*%
D14*
%TO.P,C1,2*%
%TO.N,Net-(C1-Pad2)*%
X109958000Y-77216000D03*
D15*
%TO.P,C1,1*%
%TO.N,Net-(C1-Pad1)*%
X108458000Y-77216000D03*
%TD*%
D22*
%TO.N,Net-(C1-Pad1)*%
X100330000Y-67945000D02*
X100330000Y-68072000D01*
%TO.N,CLK*%
X126758979Y-57924979D02*
X130140500Y-61306500D01*
X115709979Y-57924979D02*
X126758979Y-57924979D01*
X130140500Y-61306500D02*
X130262500Y-61306500D01*
X114300000Y-56515000D02*
X115709979Y-57924979D01*
%TO.N,DATA*%
X127855500Y-63406500D02*
X132762500Y-63406500D01*
X121158000Y-70104000D02*
X127855500Y-63406500D01*
X115951000Y-70104000D02*
X121158000Y-70104000D01*
X114300000Y-71755000D02*
X115951000Y-70104000D01*
%TO.N,TX*%
X114369999Y-59124999D02*
X115570000Y-60325000D01*
X111829999Y-59124999D02*
X114369999Y-59124999D01*
X109220000Y-56515000D02*
X111829999Y-59124999D01*
%TO.N,DTS*%
X106680000Y-56515000D02*
X110490000Y-60325000D01*
%TO.N,RTS*%
X116309989Y-58524989D02*
X118110000Y-60325000D01*
X113769989Y-58524989D02*
X116309989Y-58524989D01*
X111760000Y-56515000D02*
X113769989Y-58524989D01*
%TO.N,Net-(RS232-Pad7)*%
X115709979Y-65544979D02*
X118110000Y-67945000D01*
X99111479Y-65544979D02*
X115709979Y-65544979D01*
X89235000Y-72045000D02*
X92611458Y-72045000D01*
X92611458Y-72045000D02*
X99111479Y-65544979D01*
%TO.N,Net-(RS232-Pad4)*%
X92075000Y-67890000D02*
X97735000Y-62230000D01*
X106045000Y-62230000D02*
X107950000Y-60325000D01*
X97735000Y-62230000D02*
X106045000Y-62230000D01*
%TO.N,Net-(RS232-Pad2)*%
X113769989Y-66144989D02*
X115570000Y-67945000D01*
X99360011Y-66144989D02*
X113769989Y-66144989D01*
X92075000Y-73430000D02*
X99360011Y-66144989D01*
%TO.N,Net-(JP1-Pad3)*%
X98996500Y-74358500D02*
X98996500Y-75184000D01*
X101600000Y-71755000D02*
X98996500Y-74358500D01*
%TO.N,Net-(JP1-Pad1)*%
X96456500Y-74358500D02*
X96456500Y-75184000D01*
X99060000Y-71755000D02*
X96456500Y-74358500D01*
%TD*%
D23*
%TO.N,GND*%
X140943649Y-85509500D02*
X91868393Y-85509500D01*
X91903141Y-85495107D01*
X92334715Y-85206738D01*
X92701738Y-84839715D01*
X92990107Y-84408141D01*
X93141217Y-84043329D01*
X132216784Y-84043329D01*
X132227520Y-84103550D01*
X132328931Y-84346090D01*
X132475710Y-84564185D01*
X132662217Y-84749455D01*
X132881285Y-84894779D01*
X133124495Y-84994572D01*
X133382500Y-85045000D01*
X133932500Y-85045000D01*
X133932500Y-83837000D01*
X134186500Y-83837000D01*
X134186500Y-85045000D01*
X134736500Y-85045000D01*
X134994505Y-84994572D01*
X135237715Y-84894779D01*
X135456783Y-84749455D01*
X135643290Y-84564185D01*
X135790069Y-84346090D01*
X135891480Y-84103550D01*
X135902216Y-84043329D01*
X136966784Y-84043329D01*
X136977520Y-84103550D01*
X137078931Y-84346090D01*
X137225710Y-84564185D01*
X137412217Y-84749455D01*
X137631285Y-84894779D01*
X137874495Y-84994572D01*
X138132500Y-85045000D01*
X138682500Y-85045000D01*
X138682500Y-83837000D01*
X138936500Y-83837000D01*
X138936500Y-85045000D01*
X139486500Y-85045000D01*
X139744505Y-84994572D01*
X139987715Y-84894779D01*
X140206783Y-84749455D01*
X140393290Y-84564185D01*
X140540069Y-84346090D01*
X140641480Y-84103550D01*
X140652216Y-84043329D01*
X140528874Y-83837000D01*
X138936500Y-83837000D01*
X138682500Y-83837000D01*
X137090126Y-83837000D01*
X136966784Y-84043329D01*
X135902216Y-84043329D01*
X135778874Y-83837000D01*
X134186500Y-83837000D01*
X133932500Y-83837000D01*
X132340126Y-83837000D01*
X132216784Y-84043329D01*
X93141217Y-84043329D01*
X93188739Y-83928601D01*
X93290000Y-83419525D01*
X93290000Y-82900475D01*
X93188739Y-82391399D01*
X92990107Y-81911859D01*
X92701738Y-81480285D01*
X92334715Y-81113262D01*
X91903141Y-80824893D01*
X91423601Y-80626261D01*
X90914525Y-80525000D01*
X90395475Y-80525000D01*
X89886399Y-80626261D01*
X89406859Y-80824893D01*
X88975285Y-81113262D01*
X88608262Y-81480285D01*
X88319893Y-81911859D01*
X88121261Y-82391399D01*
X88020000Y-82900475D01*
X88020000Y-83419525D01*
X88121261Y-83928601D01*
X88319893Y-84408141D01*
X88608262Y-84839715D01*
X88975285Y-85206738D01*
X89406859Y-85495107D01*
X89441607Y-85509500D01*
X81940000Y-85509500D01*
X81940000Y-78080891D01*
X95015019Y-78080891D01*
X95112343Y-78355252D01*
X95261322Y-78605355D01*
X95456231Y-78821588D01*
X95689580Y-78995641D01*
X95952401Y-79120825D01*
X96099610Y-79165476D01*
X96329500Y-79044155D01*
X96329500Y-77851000D01*
X96583500Y-77851000D01*
X96583500Y-79044155D01*
X96813390Y-79165476D01*
X96960599Y-79120825D01*
X97223420Y-78995641D01*
X97456769Y-78821588D01*
X97651678Y-78605355D01*
X97726500Y-78479745D01*
X97801322Y-78605355D01*
X97996231Y-78821588D01*
X98229580Y-78995641D01*
X98492401Y-79120825D01*
X98639610Y-79165476D01*
X98869500Y-79044155D01*
X98869500Y-77851000D01*
X99123500Y-77851000D01*
X99123500Y-79044155D01*
X99353390Y-79165476D01*
X99500599Y-79120825D01*
X99763420Y-78995641D01*
X99996769Y-78821588D01*
X100191678Y-78605355D01*
X100260140Y-78490421D01*
X131971484Y-78490421D01*
X132010000Y-78720646D01*
X132092692Y-78938934D01*
X132127022Y-79003159D01*
X132345518Y-79044374D01*
X132228155Y-79161737D01*
X132280037Y-79213619D01*
X132239050Y-79254606D01*
X132109366Y-79448692D01*
X132020039Y-79664348D01*
X131974500Y-79893288D01*
X131974500Y-80126712D01*
X132020039Y-80355652D01*
X132109366Y-80571308D01*
X132239050Y-80765394D01*
X132283656Y-80810000D01*
X132239050Y-80854606D01*
X132109366Y-81048692D01*
X132020039Y-81264348D01*
X131974500Y-81493288D01*
X131974500Y-81726712D01*
X132020039Y-81955652D01*
X132109366Y-82171308D01*
X132239050Y-82365394D01*
X132404106Y-82530450D01*
X132598192Y-82660134D01*
X132650773Y-82681913D01*
X132475710Y-82855815D01*
X132328931Y-83073910D01*
X132227520Y-83316450D01*
X132216784Y-83376671D01*
X132340126Y-83583000D01*
X133932500Y-83583000D01*
X133932500Y-83563000D01*
X134186500Y-83563000D01*
X134186500Y-83583000D01*
X135778874Y-83583000D01*
X135902216Y-83376671D01*
X136966784Y-83376671D01*
X137090126Y-83583000D01*
X138682500Y-83583000D01*
X138682500Y-82375000D01*
X138936500Y-82375000D01*
X138936500Y-83583000D01*
X140528874Y-83583000D01*
X140652216Y-83376671D01*
X140641480Y-83316450D01*
X140540069Y-83073910D01*
X140393290Y-82855815D01*
X140206783Y-82670545D01*
X139987715Y-82525221D01*
X139744505Y-82425428D01*
X139486500Y-82375000D01*
X138936500Y-82375000D01*
X138682500Y-82375000D01*
X138132500Y-82375000D01*
X137874495Y-82425428D01*
X137631285Y-82525221D01*
X137412217Y-82670545D01*
X137225710Y-82855815D01*
X137078931Y-83073910D01*
X136977520Y-83316450D01*
X136966784Y-83376671D01*
X135902216Y-83376671D01*
X135891480Y-83316450D01*
X135790069Y-83073910D01*
X135643290Y-82855815D01*
X135456783Y-82670545D01*
X135237715Y-82525221D01*
X134994505Y-82425428D01*
X134736500Y-82375000D01*
X134070344Y-82375000D01*
X134079950Y-82365394D01*
X134209634Y-82171308D01*
X134282663Y-81995000D01*
X134476212Y-81995000D01*
X134705152Y-81949461D01*
X134920808Y-81860134D01*
X135114894Y-81730450D01*
X135279950Y-81565394D01*
X135409634Y-81371308D01*
X135498961Y-81155652D01*
X135544500Y-80926712D01*
X135544500Y-80693288D01*
X135498961Y-80464348D01*
X135409634Y-80248692D01*
X135279950Y-80054606D01*
X135235344Y-80010000D01*
X135279950Y-79965394D01*
X135409634Y-79771308D01*
X135498961Y-79555652D01*
X135544500Y-79326712D01*
X135544500Y-79093288D01*
X135498961Y-78864348D01*
X135409634Y-78648692D01*
X135279950Y-78454606D01*
X135114894Y-78289550D01*
X134920808Y-78159866D01*
X134705152Y-78070539D01*
X134476212Y-78025000D01*
X134280833Y-78025000D01*
X134226308Y-77881066D01*
X134191978Y-77816841D01*
X133973479Y-77775626D01*
X133339105Y-78410000D01*
X133353248Y-78424143D01*
X133173643Y-78603748D01*
X133159500Y-78589605D01*
X133145358Y-78603748D01*
X132965753Y-78424143D01*
X132979895Y-78410000D01*
X132345521Y-77775626D01*
X132127022Y-77816841D01*
X132031141Y-78029665D01*
X131978622Y-78257105D01*
X131971484Y-78490421D01*
X100260140Y-78490421D01*
X100340657Y-78355252D01*
X100437981Y-78080891D01*
X100317314Y-77851000D01*
X99123500Y-77851000D01*
X98869500Y-77851000D01*
X96583500Y-77851000D01*
X96329500Y-77851000D01*
X95135686Y-77851000D01*
X95015019Y-78080891D01*
X81940000Y-78080891D01*
X81940000Y-64127298D01*
X91261903Y-64127298D01*
X92075000Y-64940395D01*
X92888097Y-64127298D01*
X92816514Y-63883329D01*
X92561004Y-63762429D01*
X92286816Y-63693700D01*
X92004488Y-63679783D01*
X91724870Y-63721213D01*
X91458708Y-63816397D01*
X91333486Y-63883329D01*
X91261903Y-64127298D01*
X81940000Y-64127298D01*
X81940000Y-55840804D01*
X89394803Y-55832949D01*
X88975285Y-56113262D01*
X88608262Y-56480285D01*
X88319893Y-56911859D01*
X88121261Y-57391399D01*
X88020000Y-57900475D01*
X88020000Y-58419525D01*
X88121261Y-58928601D01*
X88319893Y-59408141D01*
X88608262Y-59839715D01*
X88975285Y-60206738D01*
X89406859Y-60495107D01*
X89886399Y-60693739D01*
X90395475Y-60795000D01*
X90914525Y-60795000D01*
X91423601Y-60693739D01*
X91903141Y-60495107D01*
X92334715Y-60206738D01*
X92701738Y-59839715D01*
X92990107Y-59408141D01*
X93188739Y-58928601D01*
X93290000Y-58419525D01*
X93290000Y-57900475D01*
X93188739Y-57391399D01*
X92990107Y-56911859D01*
X92701738Y-56480285D01*
X92334715Y-56113262D01*
X91911229Y-55830297D01*
X95253998Y-55826775D01*
X95248320Y-55835273D01*
X95140147Y-56096426D01*
X95085000Y-56373665D01*
X95085000Y-56656335D01*
X95140147Y-56933574D01*
X95248320Y-57194727D01*
X95405363Y-57429759D01*
X95605241Y-57629637D01*
X95840273Y-57786680D01*
X96101426Y-57894853D01*
X96378665Y-57950000D01*
X96661335Y-57950000D01*
X96938574Y-57894853D01*
X97199727Y-57786680D01*
X97434759Y-57629637D01*
X97634637Y-57429759D01*
X97790000Y-57197241D01*
X97945363Y-57429759D01*
X98145241Y-57629637D01*
X98380273Y-57786680D01*
X98641426Y-57894853D01*
X98918665Y-57950000D01*
X99201335Y-57950000D01*
X99478574Y-57894853D01*
X99739727Y-57786680D01*
X99974759Y-57629637D01*
X100174637Y-57429759D01*
X100330000Y-57197241D01*
X100485363Y-57429759D01*
X100685241Y-57629637D01*
X100920273Y-57786680D01*
X101181426Y-57894853D01*
X101458665Y-57950000D01*
X101741335Y-57950000D01*
X102018574Y-57894853D01*
X102279727Y-57786680D01*
X102514759Y-57629637D01*
X102714637Y-57429759D01*
X102870000Y-57197241D01*
X103025363Y-57429759D01*
X103225241Y-57629637D01*
X103460273Y-57786680D01*
X103721426Y-57894853D01*
X103998665Y-57950000D01*
X104281335Y-57950000D01*
X104558574Y-57894853D01*
X104819727Y-57786680D01*
X105054759Y-57629637D01*
X105254637Y-57429759D01*
X105410000Y-57197241D01*
X105565363Y-57429759D01*
X105765241Y-57629637D01*
X106000273Y-57786680D01*
X106261426Y-57894853D01*
X106538665Y-57950000D01*
X106821335Y-57950000D01*
X106915418Y-57931285D01*
X107874132Y-58890000D01*
X107808665Y-58890000D01*
X107531426Y-58945147D01*
X107270273Y-59053320D01*
X107035241Y-59210363D01*
X106835363Y-59410241D01*
X106680000Y-59642759D01*
X106524637Y-59410241D01*
X106324759Y-59210363D01*
X106089727Y-59053320D01*
X105828574Y-58945147D01*
X105551335Y-58890000D01*
X105268665Y-58890000D01*
X104991426Y-58945147D01*
X104730273Y-59053320D01*
X104495241Y-59210363D01*
X104295363Y-59410241D01*
X104138320Y-59645273D01*
X104133933Y-59655865D01*
X104022385Y-59469869D01*
X103833414Y-59261481D01*
X103607420Y-59093963D01*
X103353087Y-58973754D01*
X103219039Y-58933096D01*
X102997000Y-59055085D01*
X102997000Y-60198000D01*
X103017000Y-60198000D01*
X103017000Y-60452000D01*
X102997000Y-60452000D01*
X102997000Y-60472000D01*
X102743000Y-60472000D01*
X102743000Y-60452000D01*
X102723000Y-60452000D01*
X102723000Y-60198000D01*
X102743000Y-60198000D01*
X102743000Y-59055085D01*
X102520961Y-58933096D01*
X102386913Y-58973754D01*
X102132580Y-59093963D01*
X101906586Y-59261481D01*
X101717615Y-59469869D01*
X101606067Y-59655865D01*
X101601680Y-59645273D01*
X101444637Y-59410241D01*
X101244759Y-59210363D01*
X101009727Y-59053320D01*
X100748574Y-58945147D01*
X100471335Y-58890000D01*
X100188665Y-58890000D01*
X99911426Y-58945147D01*
X99650273Y-59053320D01*
X99415241Y-59210363D01*
X99215363Y-59410241D01*
X99058320Y-59645273D01*
X98950147Y-59906426D01*
X98895000Y-60183665D01*
X98895000Y-60466335D01*
X98950147Y-60743574D01*
X99058320Y-61004727D01*
X99215363Y-61239759D01*
X99370604Y-61395000D01*
X97776018Y-61395000D01*
X97735000Y-61390960D01*
X97693982Y-61395000D01*
X97693981Y-61395000D01*
X97571311Y-61407082D01*
X97420730Y-61452760D01*
X97413913Y-61454828D01*
X97268854Y-61532364D01*
X97190485Y-61596680D01*
X97141709Y-61636709D01*
X97115563Y-61668568D01*
X93503840Y-65280292D01*
X93515217Y-65049488D01*
X93473787Y-64769870D01*
X93378603Y-64503708D01*
X93311671Y-64378486D01*
X93067702Y-64306903D01*
X92254605Y-65120000D01*
X92268748Y-65134143D01*
X92089143Y-65313748D01*
X92075000Y-65299605D01*
X91261903Y-66112702D01*
X91333486Y-66356671D01*
X91588996Y-66477571D01*
X91691289Y-66503212D01*
X91656426Y-66510147D01*
X91395273Y-66618320D01*
X91160241Y-66775363D01*
X90960363Y-66975241D01*
X90803320Y-67210273D01*
X90695147Y-67471426D01*
X90640000Y-67748665D01*
X90640000Y-68031335D01*
X90695147Y-68308574D01*
X90803320Y-68569727D01*
X90960363Y-68804759D01*
X91160241Y-69004637D01*
X91395273Y-69161680D01*
X91656426Y-69269853D01*
X91682301Y-69275000D01*
X91656426Y-69280147D01*
X91395273Y-69388320D01*
X91160241Y-69545363D01*
X90960363Y-69745241D01*
X90803320Y-69980273D01*
X90695147Y-70241426D01*
X90640000Y-70518665D01*
X90640000Y-70801335D01*
X90695147Y-71078574D01*
X90749585Y-71210000D01*
X90402930Y-71210000D01*
X90349637Y-71130241D01*
X90149759Y-70930363D01*
X89914727Y-70773320D01*
X89653574Y-70665147D01*
X89627699Y-70660000D01*
X89653574Y-70654853D01*
X89914727Y-70546680D01*
X90149759Y-70389637D01*
X90349637Y-70189759D01*
X90506680Y-69954727D01*
X90614853Y-69693574D01*
X90670000Y-69416335D01*
X90670000Y-69133665D01*
X90614853Y-68856426D01*
X90506680Y-68595273D01*
X90349637Y-68360241D01*
X90149759Y-68160363D01*
X89914727Y-68003320D01*
X89653574Y-67895147D01*
X89627699Y-67890000D01*
X89653574Y-67884853D01*
X89914727Y-67776680D01*
X90149759Y-67619637D01*
X90349637Y-67419759D01*
X90506680Y-67184727D01*
X90614853Y-66923574D01*
X90670000Y-66646335D01*
X90670000Y-66363665D01*
X90614853Y-66086426D01*
X90506680Y-65825273D01*
X90349637Y-65590241D01*
X90149759Y-65390363D01*
X89914727Y-65233320D01*
X89811380Y-65190512D01*
X90634783Y-65190512D01*
X90676213Y-65470130D01*
X90771397Y-65736292D01*
X90838329Y-65861514D01*
X91082298Y-65933097D01*
X91895395Y-65120000D01*
X91082298Y-64306903D01*
X90838329Y-64378486D01*
X90717429Y-64633996D01*
X90648700Y-64908184D01*
X90634783Y-65190512D01*
X89811380Y-65190512D01*
X89653574Y-65125147D01*
X89376335Y-65070000D01*
X89093665Y-65070000D01*
X88816426Y-65125147D01*
X88555273Y-65233320D01*
X88320241Y-65390363D01*
X88120363Y-65590241D01*
X87963320Y-65825273D01*
X87855147Y-66086426D01*
X87800000Y-66363665D01*
X87800000Y-66646335D01*
X87855147Y-66923574D01*
X87963320Y-67184727D01*
X88120363Y-67419759D01*
X88320241Y-67619637D01*
X88555273Y-67776680D01*
X88816426Y-67884853D01*
X88842301Y-67890000D01*
X88816426Y-67895147D01*
X88555273Y-68003320D01*
X88320241Y-68160363D01*
X88120363Y-68360241D01*
X87963320Y-68595273D01*
X87855147Y-68856426D01*
X87800000Y-69133665D01*
X87800000Y-69416335D01*
X87855147Y-69693574D01*
X87963320Y-69954727D01*
X88120363Y-70189759D01*
X88320241Y-70389637D01*
X88555273Y-70546680D01*
X88816426Y-70654853D01*
X88842301Y-70660000D01*
X88816426Y-70665147D01*
X88555273Y-70773320D01*
X88320241Y-70930363D01*
X88120363Y-71130241D01*
X87963320Y-71365273D01*
X87855147Y-71626426D01*
X87800000Y-71903665D01*
X87800000Y-72186335D01*
X87855147Y-72463574D01*
X87963320Y-72724727D01*
X88120363Y-72959759D01*
X88320241Y-73159637D01*
X88555273Y-73316680D01*
X88816426Y-73424853D01*
X88842301Y-73430000D01*
X88816426Y-73435147D01*
X88555273Y-73543320D01*
X88320241Y-73700363D01*
X88120363Y-73900241D01*
X87963320Y-74135273D01*
X87855147Y-74396426D01*
X87800000Y-74673665D01*
X87800000Y-74956335D01*
X87855147Y-75233574D01*
X87963320Y-75494727D01*
X88120363Y-75729759D01*
X88320241Y-75929637D01*
X88555273Y-76086680D01*
X88816426Y-76194853D01*
X89093665Y-76250000D01*
X89376335Y-76250000D01*
X89653574Y-76194853D01*
X89914727Y-76086680D01*
X90149759Y-75929637D01*
X90349637Y-75729759D01*
X90506680Y-75494727D01*
X90614853Y-75233574D01*
X90670000Y-74956335D01*
X90670000Y-74673665D01*
X90614853Y-74396426D01*
X90506680Y-74135273D01*
X90349637Y-73900241D01*
X90149759Y-73700363D01*
X89914727Y-73543320D01*
X89653574Y-73435147D01*
X89627699Y-73430000D01*
X89653574Y-73424853D01*
X89914727Y-73316680D01*
X90149759Y-73159637D01*
X90349637Y-72959759D01*
X90402930Y-72880000D01*
X90749585Y-72880000D01*
X90695147Y-73011426D01*
X90640000Y-73288665D01*
X90640000Y-73571335D01*
X90695147Y-73848574D01*
X90803320Y-74109727D01*
X90960363Y-74344759D01*
X91160241Y-74544637D01*
X91395273Y-74701680D01*
X91540725Y-74761928D01*
X91275000Y-74761928D01*
X91150518Y-74774188D01*
X91030820Y-74810498D01*
X90920506Y-74869463D01*
X90823815Y-74948815D01*
X90744463Y-75045506D01*
X90685498Y-75155820D01*
X90649188Y-75275518D01*
X90636928Y-75400000D01*
X90636928Y-77000000D01*
X90649188Y-77124482D01*
X90685498Y-77244180D01*
X90744463Y-77354494D01*
X90823815Y-77451185D01*
X90920506Y-77530537D01*
X91030820Y-77589502D01*
X91150518Y-77625812D01*
X91275000Y-77638072D01*
X92875000Y-77638072D01*
X92999482Y-77625812D01*
X93119180Y-77589502D01*
X93229494Y-77530537D01*
X93326185Y-77451185D01*
X93405537Y-77354494D01*
X93464502Y-77244180D01*
X93500812Y-77124482D01*
X93513072Y-77000000D01*
X93513072Y-75400000D01*
X93500812Y-75275518D01*
X93464502Y-75155820D01*
X93405537Y-75045506D01*
X93326185Y-74948815D01*
X93229494Y-74869463D01*
X93119180Y-74810498D01*
X92999482Y-74774188D01*
X92875000Y-74761928D01*
X92609275Y-74761928D01*
X92754727Y-74701680D01*
X92989759Y-74544637D01*
X93189637Y-74344759D01*
X93346680Y-74109727D01*
X93454853Y-73848574D01*
X93510000Y-73571335D01*
X93510000Y-73288665D01*
X93491285Y-73194582D01*
X95088178Y-71597690D01*
X95085000Y-71613665D01*
X95085000Y-71896335D01*
X95140147Y-72173574D01*
X95248320Y-72434727D01*
X95405363Y-72669759D01*
X95605241Y-72869637D01*
X95840273Y-73026680D01*
X96101426Y-73134853D01*
X96378665Y-73190000D01*
X96444133Y-73190000D01*
X95938205Y-73695928D01*
X95606500Y-73695928D01*
X95482018Y-73708188D01*
X95362320Y-73744498D01*
X95252006Y-73803463D01*
X95155315Y-73882815D01*
X95075963Y-73979506D01*
X95016998Y-74089820D01*
X94980688Y-74209518D01*
X94968428Y-74334000D01*
X94968428Y-76034000D01*
X94980688Y-76158482D01*
X95016998Y-76278180D01*
X95075963Y-76388494D01*
X95155315Y-76485185D01*
X95252006Y-76564537D01*
X95362320Y-76623502D01*
X95438126Y-76646498D01*
X95261322Y-76842645D01*
X95112343Y-77092748D01*
X95015019Y-77367109D01*
X95135686Y-77597000D01*
X96329500Y-77597000D01*
X96329500Y-77577000D01*
X96583500Y-77577000D01*
X96583500Y-77597000D01*
X98869500Y-77597000D01*
X98869500Y-77577000D01*
X99123500Y-77577000D01*
X99123500Y-77597000D01*
X100317314Y-77597000D01*
X100437981Y-77367109D01*
X100340657Y-77092748D01*
X100191678Y-76842645D01*
X99996769Y-76626412D01*
X99982810Y-76616000D01*
X102393928Y-76616000D01*
X102393928Y-77816000D01*
X102406188Y-77940482D01*
X102442498Y-78060180D01*
X102501463Y-78170494D01*
X102580815Y-78267185D01*
X102677506Y-78346537D01*
X102787820Y-78405502D01*
X102907518Y-78441812D01*
X103032000Y-78454072D01*
X104232000Y-78454072D01*
X104356482Y-78441812D01*
X104476180Y-78405502D01*
X104586494Y-78346537D01*
X104603681Y-78332432D01*
X104730516Y-78390237D01*
X104967313Y-78446000D01*
X105210438Y-78454495D01*
X105450549Y-78415395D01*
X105678418Y-78330202D01*
X105754852Y-78289348D01*
X105802159Y-78065764D01*
X105132000Y-77395605D01*
X105117858Y-77409748D01*
X104938253Y-77230143D01*
X104952395Y-77216000D01*
X105311605Y-77216000D01*
X105981764Y-77886159D01*
X106205348Y-77838852D01*
X106306237Y-77617484D01*
X106362000Y-77380687D01*
X106370495Y-77137562D01*
X106331395Y-76897451D01*
X106246202Y-76669582D01*
X106217563Y-76616000D01*
X107219928Y-76616000D01*
X107219928Y-77816000D01*
X107232188Y-77940482D01*
X107268498Y-78060180D01*
X107327463Y-78170494D01*
X107406815Y-78267185D01*
X107503506Y-78346537D01*
X107613820Y-78405502D01*
X107733518Y-78441812D01*
X107858000Y-78454072D01*
X109058000Y-78454072D01*
X109182482Y-78441812D01*
X109302180Y-78405502D01*
X109412494Y-78346537D01*
X109428478Y-78333419D01*
X109597764Y-78403540D01*
X109836363Y-78451000D01*
X110079637Y-78451000D01*
X110318236Y-78403540D01*
X110542992Y-78310443D01*
X110745267Y-78175287D01*
X110917287Y-78003267D01*
X111052443Y-77800992D01*
X111145540Y-77576236D01*
X111193000Y-77337637D01*
X111193000Y-77094363D01*
X111145540Y-76855764D01*
X111052443Y-76631008D01*
X111042415Y-76616000D01*
X112045928Y-76616000D01*
X112045928Y-77816000D01*
X112058188Y-77940482D01*
X112094498Y-78060180D01*
X112153463Y-78170494D01*
X112232815Y-78267185D01*
X112329506Y-78346537D01*
X112439820Y-78405502D01*
X112559518Y-78441812D01*
X112684000Y-78454072D01*
X113884000Y-78454072D01*
X114008482Y-78441812D01*
X114128180Y-78405502D01*
X114238494Y-78346537D01*
X114254478Y-78333419D01*
X114423764Y-78403540D01*
X114662363Y-78451000D01*
X114905637Y-78451000D01*
X115144236Y-78403540D01*
X115368992Y-78310443D01*
X115571267Y-78175287D01*
X115743287Y-78003267D01*
X115868414Y-77816000D01*
X116871928Y-77816000D01*
X116884188Y-77940482D01*
X116920498Y-78060180D01*
X116979463Y-78170494D01*
X117058815Y-78267185D01*
X117155506Y-78346537D01*
X117265820Y-78405502D01*
X117385518Y-78441812D01*
X117510000Y-78454072D01*
X117824250Y-78451000D01*
X117983000Y-78292250D01*
X117983000Y-77343000D01*
X117033750Y-77343000D01*
X116875000Y-77501750D01*
X116871928Y-77816000D01*
X115868414Y-77816000D01*
X115878443Y-77800992D01*
X115971540Y-77576236D01*
X116019000Y-77337637D01*
X116019000Y-77094363D01*
X115971540Y-76855764D01*
X115878443Y-76631008D01*
X115868415Y-76616000D01*
X116871928Y-76616000D01*
X116875000Y-76930250D01*
X117033750Y-77089000D01*
X117983000Y-77089000D01*
X117983000Y-76139750D01*
X118237000Y-76139750D01*
X118237000Y-77089000D01*
X118257000Y-77089000D01*
X118257000Y-77343000D01*
X118237000Y-77343000D01*
X118237000Y-78292250D01*
X118395750Y-78451000D01*
X118710000Y-78454072D01*
X118834482Y-78441812D01*
X118954180Y-78405502D01*
X119064494Y-78346537D01*
X119080478Y-78333419D01*
X119249764Y-78403540D01*
X119488363Y-78451000D01*
X119731637Y-78451000D01*
X119970236Y-78403540D01*
X120194992Y-78310443D01*
X120397267Y-78175287D01*
X120569287Y-78003267D01*
X120704443Y-77800992D01*
X120797540Y-77576236D01*
X120845000Y-77337637D01*
X120845000Y-77094363D01*
X120797540Y-76855764D01*
X120704443Y-76631008D01*
X120694415Y-76616000D01*
X121951928Y-76616000D01*
X121951928Y-77816000D01*
X121964188Y-77940482D01*
X122000498Y-78060180D01*
X122059463Y-78170494D01*
X122138815Y-78267185D01*
X122235506Y-78346537D01*
X122345820Y-78405502D01*
X122465518Y-78441812D01*
X122590000Y-78454072D01*
X123790000Y-78454072D01*
X123914482Y-78441812D01*
X124034180Y-78405502D01*
X124144494Y-78346537D01*
X124161681Y-78332432D01*
X124288516Y-78390237D01*
X124525313Y-78446000D01*
X124768438Y-78454495D01*
X125008549Y-78415395D01*
X125236418Y-78330202D01*
X125312852Y-78289348D01*
X125360159Y-78065764D01*
X124690000Y-77395605D01*
X124675858Y-77409748D01*
X124496253Y-77230143D01*
X124510395Y-77216000D01*
X124869605Y-77216000D01*
X125539764Y-77886159D01*
X125763348Y-77838852D01*
X125864237Y-77617484D01*
X125920000Y-77380687D01*
X125928495Y-77137562D01*
X125889395Y-76897451D01*
X125804202Y-76669582D01*
X125790170Y-76643329D01*
X132216784Y-76643329D01*
X132227520Y-76703550D01*
X132328931Y-76946090D01*
X132475710Y-77164185D01*
X132648915Y-77336241D01*
X132630566Y-77343192D01*
X132566341Y-77377522D01*
X132525126Y-77596021D01*
X133159500Y-78230395D01*
X133744895Y-77645000D01*
X133932500Y-77645000D01*
X133932500Y-76437000D01*
X134186500Y-76437000D01*
X134186500Y-77645000D01*
X134736500Y-77645000D01*
X134994505Y-77594572D01*
X135237715Y-77494779D01*
X135456783Y-77349455D01*
X135643290Y-77164185D01*
X135790069Y-76946090D01*
X135891480Y-76703550D01*
X135902216Y-76643329D01*
X136966784Y-76643329D01*
X136977520Y-76703550D01*
X137078931Y-76946090D01*
X137225710Y-77164185D01*
X137412217Y-77349455D01*
X137631285Y-77494779D01*
X137874495Y-77594572D01*
X138132500Y-77645000D01*
X138682500Y-77645000D01*
X138682500Y-76437000D01*
X138936500Y-76437000D01*
X138936500Y-77645000D01*
X139486500Y-77645000D01*
X139744505Y-77594572D01*
X139987715Y-77494779D01*
X140206783Y-77349455D01*
X140393290Y-77164185D01*
X140540069Y-76946090D01*
X140641480Y-76703550D01*
X140652216Y-76643329D01*
X140528874Y-76437000D01*
X138936500Y-76437000D01*
X138682500Y-76437000D01*
X137090126Y-76437000D01*
X136966784Y-76643329D01*
X135902216Y-76643329D01*
X135778874Y-76437000D01*
X134186500Y-76437000D01*
X133932500Y-76437000D01*
X132340126Y-76437000D01*
X132216784Y-76643329D01*
X125790170Y-76643329D01*
X125763348Y-76593148D01*
X125539764Y-76545841D01*
X124869605Y-77216000D01*
X124510395Y-77216000D01*
X124496253Y-77201858D01*
X124675858Y-77022253D01*
X124690000Y-77036395D01*
X125360159Y-76366236D01*
X125312852Y-76142652D01*
X125091484Y-76041763D01*
X124854687Y-75986000D01*
X124611562Y-75977505D01*
X124371451Y-76016605D01*
X124157883Y-76096451D01*
X124144494Y-76085463D01*
X124034180Y-76026498D01*
X123914482Y-75990188D01*
X123790000Y-75977928D01*
X122590000Y-75977928D01*
X122465518Y-75990188D01*
X122345820Y-76026498D01*
X122235506Y-76085463D01*
X122138815Y-76164815D01*
X122059463Y-76261506D01*
X122000498Y-76371820D01*
X121964188Y-76491518D01*
X121951928Y-76616000D01*
X120694415Y-76616000D01*
X120569287Y-76428733D01*
X120397267Y-76256713D01*
X120194992Y-76121557D01*
X119970236Y-76028460D01*
X119731637Y-75981000D01*
X119488363Y-75981000D01*
X119249764Y-76028460D01*
X119080478Y-76098581D01*
X119064494Y-76085463D01*
X118954180Y-76026498D01*
X118834482Y-75990188D01*
X118710000Y-75977928D01*
X118395750Y-75981000D01*
X118237000Y-76139750D01*
X117983000Y-76139750D01*
X117824250Y-75981000D01*
X117510000Y-75977928D01*
X117385518Y-75990188D01*
X117265820Y-76026498D01*
X117155506Y-76085463D01*
X117058815Y-76164815D01*
X116979463Y-76261506D01*
X116920498Y-76371820D01*
X116884188Y-76491518D01*
X116871928Y-76616000D01*
X115868415Y-76616000D01*
X115743287Y-76428733D01*
X115571267Y-76256713D01*
X115368992Y-76121557D01*
X115144236Y-76028460D01*
X114905637Y-75981000D01*
X114662363Y-75981000D01*
X114423764Y-76028460D01*
X114254478Y-76098581D01*
X114238494Y-76085463D01*
X114128180Y-76026498D01*
X114008482Y-75990188D01*
X113884000Y-75977928D01*
X112684000Y-75977928D01*
X112559518Y-75990188D01*
X112439820Y-76026498D01*
X112329506Y-76085463D01*
X112232815Y-76164815D01*
X112153463Y-76261506D01*
X112094498Y-76371820D01*
X112058188Y-76491518D01*
X112045928Y-76616000D01*
X111042415Y-76616000D01*
X110917287Y-76428733D01*
X110745267Y-76256713D01*
X110542992Y-76121557D01*
X110318236Y-76028460D01*
X110079637Y-75981000D01*
X109836363Y-75981000D01*
X109597764Y-76028460D01*
X109428478Y-76098581D01*
X109412494Y-76085463D01*
X109302180Y-76026498D01*
X109182482Y-75990188D01*
X109058000Y-75977928D01*
X107858000Y-75977928D01*
X107733518Y-75990188D01*
X107613820Y-76026498D01*
X107503506Y-76085463D01*
X107406815Y-76164815D01*
X107327463Y-76261506D01*
X107268498Y-76371820D01*
X107232188Y-76491518D01*
X107219928Y-76616000D01*
X106217563Y-76616000D01*
X106205348Y-76593148D01*
X105981764Y-76545841D01*
X105311605Y-77216000D01*
X104952395Y-77216000D01*
X104938253Y-77201858D01*
X105117858Y-77022253D01*
X105132000Y-77036395D01*
X105802159Y-76366236D01*
X105754852Y-76142652D01*
X105533484Y-76041763D01*
X105296687Y-75986000D01*
X105053562Y-75977505D01*
X104813451Y-76016605D01*
X104599883Y-76096451D01*
X104586494Y-76085463D01*
X104476180Y-76026498D01*
X104356482Y-75990188D01*
X104232000Y-75977928D01*
X103032000Y-75977928D01*
X102907518Y-75990188D01*
X102787820Y-76026498D01*
X102677506Y-76085463D01*
X102580815Y-76164815D01*
X102501463Y-76261506D01*
X102442498Y-76371820D01*
X102406188Y-76491518D01*
X102393928Y-76616000D01*
X99982810Y-76616000D01*
X99767094Y-76455100D01*
X99943132Y-76337475D01*
X100149975Y-76130632D01*
X100252848Y-75976671D01*
X132216784Y-75976671D01*
X132340126Y-76183000D01*
X133932500Y-76183000D01*
X133932500Y-74975000D01*
X134186500Y-74975000D01*
X134186500Y-76183000D01*
X135778874Y-76183000D01*
X135902216Y-75976671D01*
X136966784Y-75976671D01*
X137090126Y-76183000D01*
X138682500Y-76183000D01*
X138682500Y-74975000D01*
X138936500Y-74975000D01*
X138936500Y-76183000D01*
X140528874Y-76183000D01*
X140652216Y-75976671D01*
X140641480Y-75916450D01*
X140540069Y-75673910D01*
X140393290Y-75455815D01*
X140206783Y-75270545D01*
X139987715Y-75125221D01*
X139744505Y-75025428D01*
X139486500Y-74975000D01*
X138936500Y-74975000D01*
X138682500Y-74975000D01*
X138132500Y-74975000D01*
X137874495Y-75025428D01*
X137631285Y-75125221D01*
X137412217Y-75270545D01*
X137225710Y-75455815D01*
X137078931Y-75673910D01*
X136977520Y-75916450D01*
X136966784Y-75976671D01*
X135902216Y-75976671D01*
X135891480Y-75916450D01*
X135790069Y-75673910D01*
X135643290Y-75455815D01*
X135456783Y-75270545D01*
X135237715Y-75125221D01*
X134994505Y-75025428D01*
X134736500Y-74975000D01*
X134186500Y-74975000D01*
X133932500Y-74975000D01*
X133382500Y-74975000D01*
X133124495Y-75025428D01*
X132881285Y-75125221D01*
X132662217Y-75270545D01*
X132475710Y-75455815D01*
X132328931Y-75673910D01*
X132227520Y-75916450D01*
X132216784Y-75976671D01*
X100252848Y-75976671D01*
X100312490Y-75887411D01*
X100424432Y-75617158D01*
X100481500Y-75330260D01*
X100481500Y-75037740D01*
X100424432Y-74750842D01*
X100312490Y-74480589D01*
X100209465Y-74326402D01*
X101364582Y-73171286D01*
X101458665Y-73190000D01*
X101741335Y-73190000D01*
X102018574Y-73134853D01*
X102279727Y-73026680D01*
X102514759Y-72869637D01*
X102714637Y-72669759D01*
X102870000Y-72437241D01*
X103025363Y-72669759D01*
X103225241Y-72869637D01*
X103460273Y-73026680D01*
X103721426Y-73134853D01*
X103998665Y-73190000D01*
X104281335Y-73190000D01*
X104558574Y-73134853D01*
X104819727Y-73026680D01*
X105054759Y-72869637D01*
X105254637Y-72669759D01*
X105410000Y-72437241D01*
X105565363Y-72669759D01*
X105765241Y-72869637D01*
X106000273Y-73026680D01*
X106261426Y-73134853D01*
X106538665Y-73190000D01*
X106821335Y-73190000D01*
X107098574Y-73134853D01*
X107359727Y-73026680D01*
X107594759Y-72869637D01*
X107794637Y-72669759D01*
X107950000Y-72437241D01*
X108105363Y-72669759D01*
X108305241Y-72869637D01*
X108540273Y-73026680D01*
X108801426Y-73134853D01*
X109078665Y-73190000D01*
X109361335Y-73190000D01*
X109638574Y-73134853D01*
X109899727Y-73026680D01*
X110134759Y-72869637D01*
X110334637Y-72669759D01*
X110490000Y-72437241D01*
X110645363Y-72669759D01*
X110845241Y-72869637D01*
X111080273Y-73026680D01*
X111341426Y-73134853D01*
X111618665Y-73190000D01*
X111901335Y-73190000D01*
X112178574Y-73134853D01*
X112439727Y-73026680D01*
X112674759Y-72869637D01*
X112874637Y-72669759D01*
X113030000Y-72437241D01*
X113185363Y-72669759D01*
X113385241Y-72869637D01*
X113620273Y-73026680D01*
X113881426Y-73134853D01*
X114158665Y-73190000D01*
X114441335Y-73190000D01*
X114718574Y-73134853D01*
X114979727Y-73026680D01*
X115214759Y-72869637D01*
X115414637Y-72669759D01*
X115570000Y-72437241D01*
X115725363Y-72669759D01*
X115925241Y-72869637D01*
X116160273Y-73026680D01*
X116421426Y-73134853D01*
X116698665Y-73190000D01*
X116981335Y-73190000D01*
X117258574Y-73134853D01*
X117519727Y-73026680D01*
X117754759Y-72869637D01*
X117954637Y-72669759D01*
X118110000Y-72437241D01*
X118265363Y-72669759D01*
X118465241Y-72869637D01*
X118700273Y-73026680D01*
X118961426Y-73134853D01*
X119238665Y-73190000D01*
X119521335Y-73190000D01*
X119798574Y-73134853D01*
X120059727Y-73026680D01*
X120294759Y-72869637D01*
X120494637Y-72669759D01*
X120651680Y-72434727D01*
X120656067Y-72424135D01*
X120767615Y-72610131D01*
X120956586Y-72818519D01*
X121182580Y-72986037D01*
X121436913Y-73106246D01*
X121570961Y-73146904D01*
X121793000Y-73024915D01*
X121793000Y-71882000D01*
X121773000Y-71882000D01*
X121773000Y-71628000D01*
X121793000Y-71628000D01*
X121793000Y-71608000D01*
X122047000Y-71608000D01*
X122047000Y-71628000D01*
X122067000Y-71628000D01*
X122067000Y-71882000D01*
X122047000Y-71882000D01*
X122047000Y-73024915D01*
X122269039Y-73146904D01*
X122403087Y-73106246D01*
X122657420Y-72986037D01*
X122883414Y-72818519D01*
X123072385Y-72610131D01*
X123183933Y-72424135D01*
X123188320Y-72434727D01*
X123345363Y-72669759D01*
X123545241Y-72869637D01*
X123780273Y-73026680D01*
X124041426Y-73134853D01*
X124318665Y-73190000D01*
X124601335Y-73190000D01*
X124777616Y-73154935D01*
X134623670Y-73154935D01*
X134797723Y-73485854D01*
X135198040Y-73691625D01*
X135630808Y-73815346D01*
X136079398Y-73852259D01*
X136526570Y-73800949D01*
X136955139Y-73663385D01*
X137287277Y-73485854D01*
X137461330Y-73154935D01*
X136042500Y-71736105D01*
X134623670Y-73154935D01*
X124777616Y-73154935D01*
X124878574Y-73134853D01*
X125139727Y-73026680D01*
X125374759Y-72869637D01*
X125574637Y-72669759D01*
X125731680Y-72434727D01*
X125839853Y-72173574D01*
X125895000Y-71896335D01*
X125895000Y-71613665D01*
X125890969Y-71593398D01*
X133746741Y-71593398D01*
X133798051Y-72040570D01*
X133935615Y-72469139D01*
X134113146Y-72801277D01*
X134444065Y-72975330D01*
X135862895Y-71556500D01*
X136222105Y-71556500D01*
X137640935Y-72975330D01*
X137971854Y-72801277D01*
X138177625Y-72400960D01*
X138301346Y-71968192D01*
X138338259Y-71519602D01*
X138286949Y-71072430D01*
X138149385Y-70643861D01*
X137971854Y-70311723D01*
X137640935Y-70137670D01*
X136222105Y-71556500D01*
X135862895Y-71556500D01*
X134444065Y-70137670D01*
X134113146Y-70311723D01*
X133907375Y-70712040D01*
X133783654Y-71144808D01*
X133746741Y-71593398D01*
X125890969Y-71593398D01*
X125839853Y-71336426D01*
X125731680Y-71075273D01*
X125574637Y-70840241D01*
X125374759Y-70640363D01*
X125139727Y-70483320D01*
X124878574Y-70375147D01*
X124601335Y-70320000D01*
X124318665Y-70320000D01*
X124041426Y-70375147D01*
X123780273Y-70483320D01*
X123545241Y-70640363D01*
X123345363Y-70840241D01*
X123188320Y-71075273D01*
X123183933Y-71085865D01*
X123072385Y-70899869D01*
X122883414Y-70691481D01*
X122657420Y-70523963D01*
X122403087Y-70403754D01*
X122269039Y-70363096D01*
X122047002Y-70485084D01*
X122047002Y-70395865D01*
X122484802Y-69958065D01*
X134623670Y-69958065D01*
X136042500Y-71376895D01*
X137461330Y-69958065D01*
X137287277Y-69627146D01*
X136886960Y-69421375D01*
X136454192Y-69297654D01*
X136005602Y-69260741D01*
X135558430Y-69312051D01*
X135129861Y-69449615D01*
X134797723Y-69627146D01*
X134623670Y-69958065D01*
X122484802Y-69958065D01*
X128201368Y-64241500D01*
X131534435Y-64241500D01*
X131609025Y-64353132D01*
X131815868Y-64559975D01*
X132035158Y-64706500D01*
X131815868Y-64853025D01*
X131609025Y-65059868D01*
X131446510Y-65303089D01*
X131334568Y-65573342D01*
X131277500Y-65860240D01*
X131277500Y-66152760D01*
X131334568Y-66439658D01*
X131446510Y-66709911D01*
X131609025Y-66953132D01*
X131712393Y-67056500D01*
X131609025Y-67159868D01*
X131512500Y-67304328D01*
X131415975Y-67159868D01*
X131209132Y-66953025D01*
X130965911Y-66790510D01*
X130695658Y-66678568D01*
X130408760Y-66621500D01*
X130116240Y-66621500D01*
X129829342Y-66678568D01*
X129559089Y-66790510D01*
X129315868Y-66953025D01*
X129109025Y-67159868D01*
X128946510Y-67403089D01*
X128834568Y-67673342D01*
X128777500Y-67960240D01*
X128777500Y-68252760D01*
X128834568Y-68539658D01*
X128946510Y-68809911D01*
X129109025Y-69053132D01*
X129315868Y-69259975D01*
X129559089Y-69422490D01*
X129829342Y-69534432D01*
X130116240Y-69591500D01*
X130408760Y-69591500D01*
X130695658Y-69534432D01*
X130965911Y-69422490D01*
X131209132Y-69259975D01*
X131415975Y-69053132D01*
X131512500Y-68908672D01*
X131609025Y-69053132D01*
X131815868Y-69259975D01*
X132059089Y-69422490D01*
X132329342Y-69534432D01*
X132616240Y-69591500D01*
X132908760Y-69591500D01*
X133195658Y-69534432D01*
X133465911Y-69422490D01*
X133709132Y-69259975D01*
X133915975Y-69053132D01*
X134078490Y-68809911D01*
X134190432Y-68539658D01*
X134247500Y-68252760D01*
X134247500Y-67960240D01*
X134190432Y-67673342D01*
X134078490Y-67403089D01*
X133915975Y-67159868D01*
X133812607Y-67056500D01*
X133915975Y-66953132D01*
X134078490Y-66709911D01*
X134190432Y-66439658D01*
X134217230Y-66304935D01*
X135423670Y-66304935D01*
X135597723Y-66635854D01*
X135998040Y-66841625D01*
X136430808Y-66965346D01*
X136879398Y-67002259D01*
X137326570Y-66950949D01*
X137755139Y-66813385D01*
X138087277Y-66635854D01*
X138261330Y-66304935D01*
X136842500Y-64886105D01*
X135423670Y-66304935D01*
X134217230Y-66304935D01*
X134247500Y-66152760D01*
X134247500Y-65860240D01*
X134190432Y-65573342D01*
X134078490Y-65303089D01*
X133915975Y-65059868D01*
X133709132Y-64853025D01*
X133545064Y-64743398D01*
X134546741Y-64743398D01*
X134598051Y-65190570D01*
X134735615Y-65619139D01*
X134913146Y-65951277D01*
X135244065Y-66125330D01*
X136662895Y-64706500D01*
X137022105Y-64706500D01*
X138440935Y-66125330D01*
X138771854Y-65951277D01*
X138977625Y-65550960D01*
X139101346Y-65118192D01*
X139138259Y-64669602D01*
X139086949Y-64222430D01*
X138949385Y-63793861D01*
X138771854Y-63461723D01*
X138440935Y-63287670D01*
X137022105Y-64706500D01*
X136662895Y-64706500D01*
X135244065Y-63287670D01*
X134913146Y-63461723D01*
X134707375Y-63862040D01*
X134583654Y-64294808D01*
X134546741Y-64743398D01*
X133545064Y-64743398D01*
X133489842Y-64706500D01*
X133709132Y-64559975D01*
X133915975Y-64353132D01*
X134078490Y-64109911D01*
X134190432Y-63839658D01*
X134247500Y-63552760D01*
X134247500Y-63260240D01*
X134217231Y-63108065D01*
X135423670Y-63108065D01*
X136842500Y-64526895D01*
X138261330Y-63108065D01*
X138087277Y-62777146D01*
X137686960Y-62571375D01*
X137254192Y-62447654D01*
X136805602Y-62410741D01*
X136358430Y-62462051D01*
X135929861Y-62599615D01*
X135597723Y-62777146D01*
X135423670Y-63108065D01*
X134217231Y-63108065D01*
X134190432Y-62973342D01*
X134078490Y-62703089D01*
X133915975Y-62459868D01*
X133817254Y-62361147D01*
X133907004Y-62271396D01*
X133790899Y-62155291D01*
X134039972Y-62077657D01*
X134165871Y-61813617D01*
X134237839Y-61530089D01*
X134253111Y-61237969D01*
X134211099Y-60948481D01*
X134113419Y-60672753D01*
X134039972Y-60535343D01*
X133790897Y-60457708D01*
X132942105Y-61306500D01*
X132956248Y-61320643D01*
X132776643Y-61500248D01*
X132762500Y-61486105D01*
X132748358Y-61500248D01*
X132568753Y-61320643D01*
X132582895Y-61306500D01*
X131734103Y-60457708D01*
X131524916Y-60522910D01*
X131415975Y-60359868D01*
X131334210Y-60278103D01*
X131913708Y-60278103D01*
X132762500Y-61126895D01*
X133611292Y-60278103D01*
X133533657Y-60029028D01*
X133269617Y-59903129D01*
X132986089Y-59831161D01*
X132693969Y-59815889D01*
X132404481Y-59857901D01*
X132128753Y-59955581D01*
X131991343Y-60029028D01*
X131913708Y-60278103D01*
X131334210Y-60278103D01*
X131209132Y-60153025D01*
X130965911Y-59990510D01*
X130695658Y-59878568D01*
X130408760Y-59821500D01*
X130116240Y-59821500D01*
X129882802Y-59867934D01*
X129469803Y-59454935D01*
X134623670Y-59454935D01*
X134797723Y-59785854D01*
X135198040Y-59991625D01*
X135630808Y-60115346D01*
X136079398Y-60152259D01*
X136526570Y-60100949D01*
X136955139Y-59963385D01*
X137287277Y-59785854D01*
X137461330Y-59454935D01*
X136042500Y-58036105D01*
X134623670Y-59454935D01*
X129469803Y-59454935D01*
X127908266Y-57893398D01*
X133746741Y-57893398D01*
X133798051Y-58340570D01*
X133935615Y-58769139D01*
X134113146Y-59101277D01*
X134444065Y-59275330D01*
X135862895Y-57856500D01*
X136222105Y-57856500D01*
X137640935Y-59275330D01*
X137971854Y-59101277D01*
X138177625Y-58700960D01*
X138301346Y-58268192D01*
X138338259Y-57819602D01*
X138286949Y-57372430D01*
X138149385Y-56943861D01*
X137971854Y-56611723D01*
X137640935Y-56437670D01*
X136222105Y-57856500D01*
X135862895Y-57856500D01*
X134444065Y-56437670D01*
X134113146Y-56611723D01*
X133907375Y-57012040D01*
X133783654Y-57444808D01*
X133746741Y-57893398D01*
X127908266Y-57893398D01*
X127378425Y-57363558D01*
X127352270Y-57331688D01*
X127225125Y-57227343D01*
X127080066Y-57149807D01*
X126922668Y-57102061D01*
X126799998Y-57089979D01*
X126799997Y-57089979D01*
X126758979Y-57085939D01*
X126717961Y-57089979D01*
X125898072Y-57089979D01*
X125898072Y-55794484D01*
X135063987Y-55784825D01*
X134797723Y-55927146D01*
X134623670Y-56258065D01*
X136042500Y-57676895D01*
X137461330Y-56258065D01*
X137287277Y-55927146D01*
X137006418Y-55782779D01*
X140882851Y-55778694D01*
X140943649Y-85509500D01*
%TA.AperFunction,Conductor*%
D24*
G36*
X140943649Y-85509500D02*
G01*
X91868393Y-85509500D01*
X91903141Y-85495107D01*
X92334715Y-85206738D01*
X92701738Y-84839715D01*
X92990107Y-84408141D01*
X93141217Y-84043329D01*
X132216784Y-84043329D01*
X132227520Y-84103550D01*
X132328931Y-84346090D01*
X132475710Y-84564185D01*
X132662217Y-84749455D01*
X132881285Y-84894779D01*
X133124495Y-84994572D01*
X133382500Y-85045000D01*
X133932500Y-85045000D01*
X133932500Y-83837000D01*
X134186500Y-83837000D01*
X134186500Y-85045000D01*
X134736500Y-85045000D01*
X134994505Y-84994572D01*
X135237715Y-84894779D01*
X135456783Y-84749455D01*
X135643290Y-84564185D01*
X135790069Y-84346090D01*
X135891480Y-84103550D01*
X135902216Y-84043329D01*
X136966784Y-84043329D01*
X136977520Y-84103550D01*
X137078931Y-84346090D01*
X137225710Y-84564185D01*
X137412217Y-84749455D01*
X137631285Y-84894779D01*
X137874495Y-84994572D01*
X138132500Y-85045000D01*
X138682500Y-85045000D01*
X138682500Y-83837000D01*
X138936500Y-83837000D01*
X138936500Y-85045000D01*
X139486500Y-85045000D01*
X139744505Y-84994572D01*
X139987715Y-84894779D01*
X140206783Y-84749455D01*
X140393290Y-84564185D01*
X140540069Y-84346090D01*
X140641480Y-84103550D01*
X140652216Y-84043329D01*
X140528874Y-83837000D01*
X138936500Y-83837000D01*
X138682500Y-83837000D01*
X137090126Y-83837000D01*
X136966784Y-84043329D01*
X135902216Y-84043329D01*
X135778874Y-83837000D01*
X134186500Y-83837000D01*
X133932500Y-83837000D01*
X132340126Y-83837000D01*
X132216784Y-84043329D01*
X93141217Y-84043329D01*
X93188739Y-83928601D01*
X93290000Y-83419525D01*
X93290000Y-82900475D01*
X93188739Y-82391399D01*
X92990107Y-81911859D01*
X92701738Y-81480285D01*
X92334715Y-81113262D01*
X91903141Y-80824893D01*
X91423601Y-80626261D01*
X90914525Y-80525000D01*
X90395475Y-80525000D01*
X89886399Y-80626261D01*
X89406859Y-80824893D01*
X88975285Y-81113262D01*
X88608262Y-81480285D01*
X88319893Y-81911859D01*
X88121261Y-82391399D01*
X88020000Y-82900475D01*
X88020000Y-83419525D01*
X88121261Y-83928601D01*
X88319893Y-84408141D01*
X88608262Y-84839715D01*
X88975285Y-85206738D01*
X89406859Y-85495107D01*
X89441607Y-85509500D01*
X81940000Y-85509500D01*
X81940000Y-78080891D01*
X95015019Y-78080891D01*
X95112343Y-78355252D01*
X95261322Y-78605355D01*
X95456231Y-78821588D01*
X95689580Y-78995641D01*
X95952401Y-79120825D01*
X96099610Y-79165476D01*
X96329500Y-79044155D01*
X96329500Y-77851000D01*
X96583500Y-77851000D01*
X96583500Y-79044155D01*
X96813390Y-79165476D01*
X96960599Y-79120825D01*
X97223420Y-78995641D01*
X97456769Y-78821588D01*
X97651678Y-78605355D01*
X97726500Y-78479745D01*
X97801322Y-78605355D01*
X97996231Y-78821588D01*
X98229580Y-78995641D01*
X98492401Y-79120825D01*
X98639610Y-79165476D01*
X98869500Y-79044155D01*
X98869500Y-77851000D01*
X99123500Y-77851000D01*
X99123500Y-79044155D01*
X99353390Y-79165476D01*
X99500599Y-79120825D01*
X99763420Y-78995641D01*
X99996769Y-78821588D01*
X100191678Y-78605355D01*
X100260140Y-78490421D01*
X131971484Y-78490421D01*
X132010000Y-78720646D01*
X132092692Y-78938934D01*
X132127022Y-79003159D01*
X132345518Y-79044374D01*
X132228155Y-79161737D01*
X132280037Y-79213619D01*
X132239050Y-79254606D01*
X132109366Y-79448692D01*
X132020039Y-79664348D01*
X131974500Y-79893288D01*
X131974500Y-80126712D01*
X132020039Y-80355652D01*
X132109366Y-80571308D01*
X132239050Y-80765394D01*
X132283656Y-80810000D01*
X132239050Y-80854606D01*
X132109366Y-81048692D01*
X132020039Y-81264348D01*
X131974500Y-81493288D01*
X131974500Y-81726712D01*
X132020039Y-81955652D01*
X132109366Y-82171308D01*
X132239050Y-82365394D01*
X132404106Y-82530450D01*
X132598192Y-82660134D01*
X132650773Y-82681913D01*
X132475710Y-82855815D01*
X132328931Y-83073910D01*
X132227520Y-83316450D01*
X132216784Y-83376671D01*
X132340126Y-83583000D01*
X133932500Y-83583000D01*
X133932500Y-83563000D01*
X134186500Y-83563000D01*
X134186500Y-83583000D01*
X135778874Y-83583000D01*
X135902216Y-83376671D01*
X136966784Y-83376671D01*
X137090126Y-83583000D01*
X138682500Y-83583000D01*
X138682500Y-82375000D01*
X138936500Y-82375000D01*
X138936500Y-83583000D01*
X140528874Y-83583000D01*
X140652216Y-83376671D01*
X140641480Y-83316450D01*
X140540069Y-83073910D01*
X140393290Y-82855815D01*
X140206783Y-82670545D01*
X139987715Y-82525221D01*
X139744505Y-82425428D01*
X139486500Y-82375000D01*
X138936500Y-82375000D01*
X138682500Y-82375000D01*
X138132500Y-82375000D01*
X137874495Y-82425428D01*
X137631285Y-82525221D01*
X137412217Y-82670545D01*
X137225710Y-82855815D01*
X137078931Y-83073910D01*
X136977520Y-83316450D01*
X136966784Y-83376671D01*
X135902216Y-83376671D01*
X135891480Y-83316450D01*
X135790069Y-83073910D01*
X135643290Y-82855815D01*
X135456783Y-82670545D01*
X135237715Y-82525221D01*
X134994505Y-82425428D01*
X134736500Y-82375000D01*
X134070344Y-82375000D01*
X134079950Y-82365394D01*
X134209634Y-82171308D01*
X134282663Y-81995000D01*
X134476212Y-81995000D01*
X134705152Y-81949461D01*
X134920808Y-81860134D01*
X135114894Y-81730450D01*
X135279950Y-81565394D01*
X135409634Y-81371308D01*
X135498961Y-81155652D01*
X135544500Y-80926712D01*
X135544500Y-80693288D01*
X135498961Y-80464348D01*
X135409634Y-80248692D01*
X135279950Y-80054606D01*
X135235344Y-80010000D01*
X135279950Y-79965394D01*
X135409634Y-79771308D01*
X135498961Y-79555652D01*
X135544500Y-79326712D01*
X135544500Y-79093288D01*
X135498961Y-78864348D01*
X135409634Y-78648692D01*
X135279950Y-78454606D01*
X135114894Y-78289550D01*
X134920808Y-78159866D01*
X134705152Y-78070539D01*
X134476212Y-78025000D01*
X134280833Y-78025000D01*
X134226308Y-77881066D01*
X134191978Y-77816841D01*
X133973479Y-77775626D01*
X133339105Y-78410000D01*
X133353248Y-78424143D01*
X133173643Y-78603748D01*
X133159500Y-78589605D01*
X133145358Y-78603748D01*
X132965753Y-78424143D01*
X132979895Y-78410000D01*
X132345521Y-77775626D01*
X132127022Y-77816841D01*
X132031141Y-78029665D01*
X131978622Y-78257105D01*
X131971484Y-78490421D01*
X100260140Y-78490421D01*
X100340657Y-78355252D01*
X100437981Y-78080891D01*
X100317314Y-77851000D01*
X99123500Y-77851000D01*
X98869500Y-77851000D01*
X96583500Y-77851000D01*
X96329500Y-77851000D01*
X95135686Y-77851000D01*
X95015019Y-78080891D01*
X81940000Y-78080891D01*
X81940000Y-64127298D01*
X91261903Y-64127298D01*
X92075000Y-64940395D01*
X92888097Y-64127298D01*
X92816514Y-63883329D01*
X92561004Y-63762429D01*
X92286816Y-63693700D01*
X92004488Y-63679783D01*
X91724870Y-63721213D01*
X91458708Y-63816397D01*
X91333486Y-63883329D01*
X91261903Y-64127298D01*
X81940000Y-64127298D01*
X81940000Y-55840804D01*
X89394803Y-55832949D01*
X88975285Y-56113262D01*
X88608262Y-56480285D01*
X88319893Y-56911859D01*
X88121261Y-57391399D01*
X88020000Y-57900475D01*
X88020000Y-58419525D01*
X88121261Y-58928601D01*
X88319893Y-59408141D01*
X88608262Y-59839715D01*
X88975285Y-60206738D01*
X89406859Y-60495107D01*
X89886399Y-60693739D01*
X90395475Y-60795000D01*
X90914525Y-60795000D01*
X91423601Y-60693739D01*
X91903141Y-60495107D01*
X92334715Y-60206738D01*
X92701738Y-59839715D01*
X92990107Y-59408141D01*
X93188739Y-58928601D01*
X93290000Y-58419525D01*
X93290000Y-57900475D01*
X93188739Y-57391399D01*
X92990107Y-56911859D01*
X92701738Y-56480285D01*
X92334715Y-56113262D01*
X91911229Y-55830297D01*
X95253998Y-55826775D01*
X95248320Y-55835273D01*
X95140147Y-56096426D01*
X95085000Y-56373665D01*
X95085000Y-56656335D01*
X95140147Y-56933574D01*
X95248320Y-57194727D01*
X95405363Y-57429759D01*
X95605241Y-57629637D01*
X95840273Y-57786680D01*
X96101426Y-57894853D01*
X96378665Y-57950000D01*
X96661335Y-57950000D01*
X96938574Y-57894853D01*
X97199727Y-57786680D01*
X97434759Y-57629637D01*
X97634637Y-57429759D01*
X97790000Y-57197241D01*
X97945363Y-57429759D01*
X98145241Y-57629637D01*
X98380273Y-57786680D01*
X98641426Y-57894853D01*
X98918665Y-57950000D01*
X99201335Y-57950000D01*
X99478574Y-57894853D01*
X99739727Y-57786680D01*
X99974759Y-57629637D01*
X100174637Y-57429759D01*
X100330000Y-57197241D01*
X100485363Y-57429759D01*
X100685241Y-57629637D01*
X100920273Y-57786680D01*
X101181426Y-57894853D01*
X101458665Y-57950000D01*
X101741335Y-57950000D01*
X102018574Y-57894853D01*
X102279727Y-57786680D01*
X102514759Y-57629637D01*
X102714637Y-57429759D01*
X102870000Y-57197241D01*
X103025363Y-57429759D01*
X103225241Y-57629637D01*
X103460273Y-57786680D01*
X103721426Y-57894853D01*
X103998665Y-57950000D01*
X104281335Y-57950000D01*
X104558574Y-57894853D01*
X104819727Y-57786680D01*
X105054759Y-57629637D01*
X105254637Y-57429759D01*
X105410000Y-57197241D01*
X105565363Y-57429759D01*
X105765241Y-57629637D01*
X106000273Y-57786680D01*
X106261426Y-57894853D01*
X106538665Y-57950000D01*
X106821335Y-57950000D01*
X106915418Y-57931285D01*
X107874132Y-58890000D01*
X107808665Y-58890000D01*
X107531426Y-58945147D01*
X107270273Y-59053320D01*
X107035241Y-59210363D01*
X106835363Y-59410241D01*
X106680000Y-59642759D01*
X106524637Y-59410241D01*
X106324759Y-59210363D01*
X106089727Y-59053320D01*
X105828574Y-58945147D01*
X105551335Y-58890000D01*
X105268665Y-58890000D01*
X104991426Y-58945147D01*
X104730273Y-59053320D01*
X104495241Y-59210363D01*
X104295363Y-59410241D01*
X104138320Y-59645273D01*
X104133933Y-59655865D01*
X104022385Y-59469869D01*
X103833414Y-59261481D01*
X103607420Y-59093963D01*
X103353087Y-58973754D01*
X103219039Y-58933096D01*
X102997000Y-59055085D01*
X102997000Y-60198000D01*
X103017000Y-60198000D01*
X103017000Y-60452000D01*
X102997000Y-60452000D01*
X102997000Y-60472000D01*
X102743000Y-60472000D01*
X102743000Y-60452000D01*
X102723000Y-60452000D01*
X102723000Y-60198000D01*
X102743000Y-60198000D01*
X102743000Y-59055085D01*
X102520961Y-58933096D01*
X102386913Y-58973754D01*
X102132580Y-59093963D01*
X101906586Y-59261481D01*
X101717615Y-59469869D01*
X101606067Y-59655865D01*
X101601680Y-59645273D01*
X101444637Y-59410241D01*
X101244759Y-59210363D01*
X101009727Y-59053320D01*
X100748574Y-58945147D01*
X100471335Y-58890000D01*
X100188665Y-58890000D01*
X99911426Y-58945147D01*
X99650273Y-59053320D01*
X99415241Y-59210363D01*
X99215363Y-59410241D01*
X99058320Y-59645273D01*
X98950147Y-59906426D01*
X98895000Y-60183665D01*
X98895000Y-60466335D01*
X98950147Y-60743574D01*
X99058320Y-61004727D01*
X99215363Y-61239759D01*
X99370604Y-61395000D01*
X97776018Y-61395000D01*
X97735000Y-61390960D01*
X97693982Y-61395000D01*
X97693981Y-61395000D01*
X97571311Y-61407082D01*
X97420730Y-61452760D01*
X97413913Y-61454828D01*
X97268854Y-61532364D01*
X97190485Y-61596680D01*
X97141709Y-61636709D01*
X97115563Y-61668568D01*
X93503840Y-65280292D01*
X93515217Y-65049488D01*
X93473787Y-64769870D01*
X93378603Y-64503708D01*
X93311671Y-64378486D01*
X93067702Y-64306903D01*
X92254605Y-65120000D01*
X92268748Y-65134143D01*
X92089143Y-65313748D01*
X92075000Y-65299605D01*
X91261903Y-66112702D01*
X91333486Y-66356671D01*
X91588996Y-66477571D01*
X91691289Y-66503212D01*
X91656426Y-66510147D01*
X91395273Y-66618320D01*
X91160241Y-66775363D01*
X90960363Y-66975241D01*
X90803320Y-67210273D01*
X90695147Y-67471426D01*
X90640000Y-67748665D01*
X90640000Y-68031335D01*
X90695147Y-68308574D01*
X90803320Y-68569727D01*
X90960363Y-68804759D01*
X91160241Y-69004637D01*
X91395273Y-69161680D01*
X91656426Y-69269853D01*
X91682301Y-69275000D01*
X91656426Y-69280147D01*
X91395273Y-69388320D01*
X91160241Y-69545363D01*
X90960363Y-69745241D01*
X90803320Y-69980273D01*
X90695147Y-70241426D01*
X90640000Y-70518665D01*
X90640000Y-70801335D01*
X90695147Y-71078574D01*
X90749585Y-71210000D01*
X90402930Y-71210000D01*
X90349637Y-71130241D01*
X90149759Y-70930363D01*
X89914727Y-70773320D01*
X89653574Y-70665147D01*
X89627699Y-70660000D01*
X89653574Y-70654853D01*
X89914727Y-70546680D01*
X90149759Y-70389637D01*
X90349637Y-70189759D01*
X90506680Y-69954727D01*
X90614853Y-69693574D01*
X90670000Y-69416335D01*
X90670000Y-69133665D01*
X90614853Y-68856426D01*
X90506680Y-68595273D01*
X90349637Y-68360241D01*
X90149759Y-68160363D01*
X89914727Y-68003320D01*
X89653574Y-67895147D01*
X89627699Y-67890000D01*
X89653574Y-67884853D01*
X89914727Y-67776680D01*
X90149759Y-67619637D01*
X90349637Y-67419759D01*
X90506680Y-67184727D01*
X90614853Y-66923574D01*
X90670000Y-66646335D01*
X90670000Y-66363665D01*
X90614853Y-66086426D01*
X90506680Y-65825273D01*
X90349637Y-65590241D01*
X90149759Y-65390363D01*
X89914727Y-65233320D01*
X89811380Y-65190512D01*
X90634783Y-65190512D01*
X90676213Y-65470130D01*
X90771397Y-65736292D01*
X90838329Y-65861514D01*
X91082298Y-65933097D01*
X91895395Y-65120000D01*
X91082298Y-64306903D01*
X90838329Y-64378486D01*
X90717429Y-64633996D01*
X90648700Y-64908184D01*
X90634783Y-65190512D01*
X89811380Y-65190512D01*
X89653574Y-65125147D01*
X89376335Y-65070000D01*
X89093665Y-65070000D01*
X88816426Y-65125147D01*
X88555273Y-65233320D01*
X88320241Y-65390363D01*
X88120363Y-65590241D01*
X87963320Y-65825273D01*
X87855147Y-66086426D01*
X87800000Y-66363665D01*
X87800000Y-66646335D01*
X87855147Y-66923574D01*
X87963320Y-67184727D01*
X88120363Y-67419759D01*
X88320241Y-67619637D01*
X88555273Y-67776680D01*
X88816426Y-67884853D01*
X88842301Y-67890000D01*
X88816426Y-67895147D01*
X88555273Y-68003320D01*
X88320241Y-68160363D01*
X88120363Y-68360241D01*
X87963320Y-68595273D01*
X87855147Y-68856426D01*
X87800000Y-69133665D01*
X87800000Y-69416335D01*
X87855147Y-69693574D01*
X87963320Y-69954727D01*
X88120363Y-70189759D01*
X88320241Y-70389637D01*
X88555273Y-70546680D01*
X88816426Y-70654853D01*
X88842301Y-70660000D01*
X88816426Y-70665147D01*
X88555273Y-70773320D01*
X88320241Y-70930363D01*
X88120363Y-71130241D01*
X87963320Y-71365273D01*
X87855147Y-71626426D01*
X87800000Y-71903665D01*
X87800000Y-72186335D01*
X87855147Y-72463574D01*
X87963320Y-72724727D01*
X88120363Y-72959759D01*
X88320241Y-73159637D01*
X88555273Y-73316680D01*
X88816426Y-73424853D01*
X88842301Y-73430000D01*
X88816426Y-73435147D01*
X88555273Y-73543320D01*
X88320241Y-73700363D01*
X88120363Y-73900241D01*
X87963320Y-74135273D01*
X87855147Y-74396426D01*
X87800000Y-74673665D01*
X87800000Y-74956335D01*
X87855147Y-75233574D01*
X87963320Y-75494727D01*
X88120363Y-75729759D01*
X88320241Y-75929637D01*
X88555273Y-76086680D01*
X88816426Y-76194853D01*
X89093665Y-76250000D01*
X89376335Y-76250000D01*
X89653574Y-76194853D01*
X89914727Y-76086680D01*
X90149759Y-75929637D01*
X90349637Y-75729759D01*
X90506680Y-75494727D01*
X90614853Y-75233574D01*
X90670000Y-74956335D01*
X90670000Y-74673665D01*
X90614853Y-74396426D01*
X90506680Y-74135273D01*
X90349637Y-73900241D01*
X90149759Y-73700363D01*
X89914727Y-73543320D01*
X89653574Y-73435147D01*
X89627699Y-73430000D01*
X89653574Y-73424853D01*
X89914727Y-73316680D01*
X90149759Y-73159637D01*
X90349637Y-72959759D01*
X90402930Y-72880000D01*
X90749585Y-72880000D01*
X90695147Y-73011426D01*
X90640000Y-73288665D01*
X90640000Y-73571335D01*
X90695147Y-73848574D01*
X90803320Y-74109727D01*
X90960363Y-74344759D01*
X91160241Y-74544637D01*
X91395273Y-74701680D01*
X91540725Y-74761928D01*
X91275000Y-74761928D01*
X91150518Y-74774188D01*
X91030820Y-74810498D01*
X90920506Y-74869463D01*
X90823815Y-74948815D01*
X90744463Y-75045506D01*
X90685498Y-75155820D01*
X90649188Y-75275518D01*
X90636928Y-75400000D01*
X90636928Y-77000000D01*
X90649188Y-77124482D01*
X90685498Y-77244180D01*
X90744463Y-77354494D01*
X90823815Y-77451185D01*
X90920506Y-77530537D01*
X91030820Y-77589502D01*
X91150518Y-77625812D01*
X91275000Y-77638072D01*
X92875000Y-77638072D01*
X92999482Y-77625812D01*
X93119180Y-77589502D01*
X93229494Y-77530537D01*
X93326185Y-77451185D01*
X93405537Y-77354494D01*
X93464502Y-77244180D01*
X93500812Y-77124482D01*
X93513072Y-77000000D01*
X93513072Y-75400000D01*
X93500812Y-75275518D01*
X93464502Y-75155820D01*
X93405537Y-75045506D01*
X93326185Y-74948815D01*
X93229494Y-74869463D01*
X93119180Y-74810498D01*
X92999482Y-74774188D01*
X92875000Y-74761928D01*
X92609275Y-74761928D01*
X92754727Y-74701680D01*
X92989759Y-74544637D01*
X93189637Y-74344759D01*
X93346680Y-74109727D01*
X93454853Y-73848574D01*
X93510000Y-73571335D01*
X93510000Y-73288665D01*
X93491285Y-73194582D01*
X95088178Y-71597690D01*
X95085000Y-71613665D01*
X95085000Y-71896335D01*
X95140147Y-72173574D01*
X95248320Y-72434727D01*
X95405363Y-72669759D01*
X95605241Y-72869637D01*
X95840273Y-73026680D01*
X96101426Y-73134853D01*
X96378665Y-73190000D01*
X96444133Y-73190000D01*
X95938205Y-73695928D01*
X95606500Y-73695928D01*
X95482018Y-73708188D01*
X95362320Y-73744498D01*
X95252006Y-73803463D01*
X95155315Y-73882815D01*
X95075963Y-73979506D01*
X95016998Y-74089820D01*
X94980688Y-74209518D01*
X94968428Y-74334000D01*
X94968428Y-76034000D01*
X94980688Y-76158482D01*
X95016998Y-76278180D01*
X95075963Y-76388494D01*
X95155315Y-76485185D01*
X95252006Y-76564537D01*
X95362320Y-76623502D01*
X95438126Y-76646498D01*
X95261322Y-76842645D01*
X95112343Y-77092748D01*
X95015019Y-77367109D01*
X95135686Y-77597000D01*
X96329500Y-77597000D01*
X96329500Y-77577000D01*
X96583500Y-77577000D01*
X96583500Y-77597000D01*
X98869500Y-77597000D01*
X98869500Y-77577000D01*
X99123500Y-77577000D01*
X99123500Y-77597000D01*
X100317314Y-77597000D01*
X100437981Y-77367109D01*
X100340657Y-77092748D01*
X100191678Y-76842645D01*
X99996769Y-76626412D01*
X99982810Y-76616000D01*
X102393928Y-76616000D01*
X102393928Y-77816000D01*
X102406188Y-77940482D01*
X102442498Y-78060180D01*
X102501463Y-78170494D01*
X102580815Y-78267185D01*
X102677506Y-78346537D01*
X102787820Y-78405502D01*
X102907518Y-78441812D01*
X103032000Y-78454072D01*
X104232000Y-78454072D01*
X104356482Y-78441812D01*
X104476180Y-78405502D01*
X104586494Y-78346537D01*
X104603681Y-78332432D01*
X104730516Y-78390237D01*
X104967313Y-78446000D01*
X105210438Y-78454495D01*
X105450549Y-78415395D01*
X105678418Y-78330202D01*
X105754852Y-78289348D01*
X105802159Y-78065764D01*
X105132000Y-77395605D01*
X105117858Y-77409748D01*
X104938253Y-77230143D01*
X104952395Y-77216000D01*
X105311605Y-77216000D01*
X105981764Y-77886159D01*
X106205348Y-77838852D01*
X106306237Y-77617484D01*
X106362000Y-77380687D01*
X106370495Y-77137562D01*
X106331395Y-76897451D01*
X106246202Y-76669582D01*
X106217563Y-76616000D01*
X107219928Y-76616000D01*
X107219928Y-77816000D01*
X107232188Y-77940482D01*
X107268498Y-78060180D01*
X107327463Y-78170494D01*
X107406815Y-78267185D01*
X107503506Y-78346537D01*
X107613820Y-78405502D01*
X107733518Y-78441812D01*
X107858000Y-78454072D01*
X109058000Y-78454072D01*
X109182482Y-78441812D01*
X109302180Y-78405502D01*
X109412494Y-78346537D01*
X109428478Y-78333419D01*
X109597764Y-78403540D01*
X109836363Y-78451000D01*
X110079637Y-78451000D01*
X110318236Y-78403540D01*
X110542992Y-78310443D01*
X110745267Y-78175287D01*
X110917287Y-78003267D01*
X111052443Y-77800992D01*
X111145540Y-77576236D01*
X111193000Y-77337637D01*
X111193000Y-77094363D01*
X111145540Y-76855764D01*
X111052443Y-76631008D01*
X111042415Y-76616000D01*
X112045928Y-76616000D01*
X112045928Y-77816000D01*
X112058188Y-77940482D01*
X112094498Y-78060180D01*
X112153463Y-78170494D01*
X112232815Y-78267185D01*
X112329506Y-78346537D01*
X112439820Y-78405502D01*
X112559518Y-78441812D01*
X112684000Y-78454072D01*
X113884000Y-78454072D01*
X114008482Y-78441812D01*
X114128180Y-78405502D01*
X114238494Y-78346537D01*
X114254478Y-78333419D01*
X114423764Y-78403540D01*
X114662363Y-78451000D01*
X114905637Y-78451000D01*
X115144236Y-78403540D01*
X115368992Y-78310443D01*
X115571267Y-78175287D01*
X115743287Y-78003267D01*
X115868414Y-77816000D01*
X116871928Y-77816000D01*
X116884188Y-77940482D01*
X116920498Y-78060180D01*
X116979463Y-78170494D01*
X117058815Y-78267185D01*
X117155506Y-78346537D01*
X117265820Y-78405502D01*
X117385518Y-78441812D01*
X117510000Y-78454072D01*
X117824250Y-78451000D01*
X117983000Y-78292250D01*
X117983000Y-77343000D01*
X117033750Y-77343000D01*
X116875000Y-77501750D01*
X116871928Y-77816000D01*
X115868414Y-77816000D01*
X115878443Y-77800992D01*
X115971540Y-77576236D01*
X116019000Y-77337637D01*
X116019000Y-77094363D01*
X115971540Y-76855764D01*
X115878443Y-76631008D01*
X115868415Y-76616000D01*
X116871928Y-76616000D01*
X116875000Y-76930250D01*
X117033750Y-77089000D01*
X117983000Y-77089000D01*
X117983000Y-76139750D01*
X118237000Y-76139750D01*
X118237000Y-77089000D01*
X118257000Y-77089000D01*
X118257000Y-77343000D01*
X118237000Y-77343000D01*
X118237000Y-78292250D01*
X118395750Y-78451000D01*
X118710000Y-78454072D01*
X118834482Y-78441812D01*
X118954180Y-78405502D01*
X119064494Y-78346537D01*
X119080478Y-78333419D01*
X119249764Y-78403540D01*
X119488363Y-78451000D01*
X119731637Y-78451000D01*
X119970236Y-78403540D01*
X120194992Y-78310443D01*
X120397267Y-78175287D01*
X120569287Y-78003267D01*
X120704443Y-77800992D01*
X120797540Y-77576236D01*
X120845000Y-77337637D01*
X120845000Y-77094363D01*
X120797540Y-76855764D01*
X120704443Y-76631008D01*
X120694415Y-76616000D01*
X121951928Y-76616000D01*
X121951928Y-77816000D01*
X121964188Y-77940482D01*
X122000498Y-78060180D01*
X122059463Y-78170494D01*
X122138815Y-78267185D01*
X122235506Y-78346537D01*
X122345820Y-78405502D01*
X122465518Y-78441812D01*
X122590000Y-78454072D01*
X123790000Y-78454072D01*
X123914482Y-78441812D01*
X124034180Y-78405502D01*
X124144494Y-78346537D01*
X124161681Y-78332432D01*
X124288516Y-78390237D01*
X124525313Y-78446000D01*
X124768438Y-78454495D01*
X125008549Y-78415395D01*
X125236418Y-78330202D01*
X125312852Y-78289348D01*
X125360159Y-78065764D01*
X124690000Y-77395605D01*
X124675858Y-77409748D01*
X124496253Y-77230143D01*
X124510395Y-77216000D01*
X124869605Y-77216000D01*
X125539764Y-77886159D01*
X125763348Y-77838852D01*
X125864237Y-77617484D01*
X125920000Y-77380687D01*
X125928495Y-77137562D01*
X125889395Y-76897451D01*
X125804202Y-76669582D01*
X125790170Y-76643329D01*
X132216784Y-76643329D01*
X132227520Y-76703550D01*
X132328931Y-76946090D01*
X132475710Y-77164185D01*
X132648915Y-77336241D01*
X132630566Y-77343192D01*
X132566341Y-77377522D01*
X132525126Y-77596021D01*
X133159500Y-78230395D01*
X133744895Y-77645000D01*
X133932500Y-77645000D01*
X133932500Y-76437000D01*
X134186500Y-76437000D01*
X134186500Y-77645000D01*
X134736500Y-77645000D01*
X134994505Y-77594572D01*
X135237715Y-77494779D01*
X135456783Y-77349455D01*
X135643290Y-77164185D01*
X135790069Y-76946090D01*
X135891480Y-76703550D01*
X135902216Y-76643329D01*
X136966784Y-76643329D01*
X136977520Y-76703550D01*
X137078931Y-76946090D01*
X137225710Y-77164185D01*
X137412217Y-77349455D01*
X137631285Y-77494779D01*
X137874495Y-77594572D01*
X138132500Y-77645000D01*
X138682500Y-77645000D01*
X138682500Y-76437000D01*
X138936500Y-76437000D01*
X138936500Y-77645000D01*
X139486500Y-77645000D01*
X139744505Y-77594572D01*
X139987715Y-77494779D01*
X140206783Y-77349455D01*
X140393290Y-77164185D01*
X140540069Y-76946090D01*
X140641480Y-76703550D01*
X140652216Y-76643329D01*
X140528874Y-76437000D01*
X138936500Y-76437000D01*
X138682500Y-76437000D01*
X137090126Y-76437000D01*
X136966784Y-76643329D01*
X135902216Y-76643329D01*
X135778874Y-76437000D01*
X134186500Y-76437000D01*
X133932500Y-76437000D01*
X132340126Y-76437000D01*
X132216784Y-76643329D01*
X125790170Y-76643329D01*
X125763348Y-76593148D01*
X125539764Y-76545841D01*
X124869605Y-77216000D01*
X124510395Y-77216000D01*
X124496253Y-77201858D01*
X124675858Y-77022253D01*
X124690000Y-77036395D01*
X125360159Y-76366236D01*
X125312852Y-76142652D01*
X125091484Y-76041763D01*
X124854687Y-75986000D01*
X124611562Y-75977505D01*
X124371451Y-76016605D01*
X124157883Y-76096451D01*
X124144494Y-76085463D01*
X124034180Y-76026498D01*
X123914482Y-75990188D01*
X123790000Y-75977928D01*
X122590000Y-75977928D01*
X122465518Y-75990188D01*
X122345820Y-76026498D01*
X122235506Y-76085463D01*
X122138815Y-76164815D01*
X122059463Y-76261506D01*
X122000498Y-76371820D01*
X121964188Y-76491518D01*
X121951928Y-76616000D01*
X120694415Y-76616000D01*
X120569287Y-76428733D01*
X120397267Y-76256713D01*
X120194992Y-76121557D01*
X119970236Y-76028460D01*
X119731637Y-75981000D01*
X119488363Y-75981000D01*
X119249764Y-76028460D01*
X119080478Y-76098581D01*
X119064494Y-76085463D01*
X118954180Y-76026498D01*
X118834482Y-75990188D01*
X118710000Y-75977928D01*
X118395750Y-75981000D01*
X118237000Y-76139750D01*
X117983000Y-76139750D01*
X117824250Y-75981000D01*
X117510000Y-75977928D01*
X117385518Y-75990188D01*
X117265820Y-76026498D01*
X117155506Y-76085463D01*
X117058815Y-76164815D01*
X116979463Y-76261506D01*
X116920498Y-76371820D01*
X116884188Y-76491518D01*
X116871928Y-76616000D01*
X115868415Y-76616000D01*
X115743287Y-76428733D01*
X115571267Y-76256713D01*
X115368992Y-76121557D01*
X115144236Y-76028460D01*
X114905637Y-75981000D01*
X114662363Y-75981000D01*
X114423764Y-76028460D01*
X114254478Y-76098581D01*
X114238494Y-76085463D01*
X114128180Y-76026498D01*
X114008482Y-75990188D01*
X113884000Y-75977928D01*
X112684000Y-75977928D01*
X112559518Y-75990188D01*
X112439820Y-76026498D01*
X112329506Y-76085463D01*
X112232815Y-76164815D01*
X112153463Y-76261506D01*
X112094498Y-76371820D01*
X112058188Y-76491518D01*
X112045928Y-76616000D01*
X111042415Y-76616000D01*
X110917287Y-76428733D01*
X110745267Y-76256713D01*
X110542992Y-76121557D01*
X110318236Y-76028460D01*
X110079637Y-75981000D01*
X109836363Y-75981000D01*
X109597764Y-76028460D01*
X109428478Y-76098581D01*
X109412494Y-76085463D01*
X109302180Y-76026498D01*
X109182482Y-75990188D01*
X109058000Y-75977928D01*
X107858000Y-75977928D01*
X107733518Y-75990188D01*
X107613820Y-76026498D01*
X107503506Y-76085463D01*
X107406815Y-76164815D01*
X107327463Y-76261506D01*
X107268498Y-76371820D01*
X107232188Y-76491518D01*
X107219928Y-76616000D01*
X106217563Y-76616000D01*
X106205348Y-76593148D01*
X105981764Y-76545841D01*
X105311605Y-77216000D01*
X104952395Y-77216000D01*
X104938253Y-77201858D01*
X105117858Y-77022253D01*
X105132000Y-77036395D01*
X105802159Y-76366236D01*
X105754852Y-76142652D01*
X105533484Y-76041763D01*
X105296687Y-75986000D01*
X105053562Y-75977505D01*
X104813451Y-76016605D01*
X104599883Y-76096451D01*
X104586494Y-76085463D01*
X104476180Y-76026498D01*
X104356482Y-75990188D01*
X104232000Y-75977928D01*
X103032000Y-75977928D01*
X102907518Y-75990188D01*
X102787820Y-76026498D01*
X102677506Y-76085463D01*
X102580815Y-76164815D01*
X102501463Y-76261506D01*
X102442498Y-76371820D01*
X102406188Y-76491518D01*
X102393928Y-76616000D01*
X99982810Y-76616000D01*
X99767094Y-76455100D01*
X99943132Y-76337475D01*
X100149975Y-76130632D01*
X100252848Y-75976671D01*
X132216784Y-75976671D01*
X132340126Y-76183000D01*
X133932500Y-76183000D01*
X133932500Y-74975000D01*
X134186500Y-74975000D01*
X134186500Y-76183000D01*
X135778874Y-76183000D01*
X135902216Y-75976671D01*
X136966784Y-75976671D01*
X137090126Y-76183000D01*
X138682500Y-76183000D01*
X138682500Y-74975000D01*
X138936500Y-74975000D01*
X138936500Y-76183000D01*
X140528874Y-76183000D01*
X140652216Y-75976671D01*
X140641480Y-75916450D01*
X140540069Y-75673910D01*
X140393290Y-75455815D01*
X140206783Y-75270545D01*
X139987715Y-75125221D01*
X139744505Y-75025428D01*
X139486500Y-74975000D01*
X138936500Y-74975000D01*
X138682500Y-74975000D01*
X138132500Y-74975000D01*
X137874495Y-75025428D01*
X137631285Y-75125221D01*
X137412217Y-75270545D01*
X137225710Y-75455815D01*
X137078931Y-75673910D01*
X136977520Y-75916450D01*
X136966784Y-75976671D01*
X135902216Y-75976671D01*
X135891480Y-75916450D01*
X135790069Y-75673910D01*
X135643290Y-75455815D01*
X135456783Y-75270545D01*
X135237715Y-75125221D01*
X134994505Y-75025428D01*
X134736500Y-74975000D01*
X134186500Y-74975000D01*
X133932500Y-74975000D01*
X133382500Y-74975000D01*
X133124495Y-75025428D01*
X132881285Y-75125221D01*
X132662217Y-75270545D01*
X132475710Y-75455815D01*
X132328931Y-75673910D01*
X132227520Y-75916450D01*
X132216784Y-75976671D01*
X100252848Y-75976671D01*
X100312490Y-75887411D01*
X100424432Y-75617158D01*
X100481500Y-75330260D01*
X100481500Y-75037740D01*
X100424432Y-74750842D01*
X100312490Y-74480589D01*
X100209465Y-74326402D01*
X101364582Y-73171286D01*
X101458665Y-73190000D01*
X101741335Y-73190000D01*
X102018574Y-73134853D01*
X102279727Y-73026680D01*
X102514759Y-72869637D01*
X102714637Y-72669759D01*
X102870000Y-72437241D01*
X103025363Y-72669759D01*
X103225241Y-72869637D01*
X103460273Y-73026680D01*
X103721426Y-73134853D01*
X103998665Y-73190000D01*
X104281335Y-73190000D01*
X104558574Y-73134853D01*
X104819727Y-73026680D01*
X105054759Y-72869637D01*
X105254637Y-72669759D01*
X105410000Y-72437241D01*
X105565363Y-72669759D01*
X105765241Y-72869637D01*
X106000273Y-73026680D01*
X106261426Y-73134853D01*
X106538665Y-73190000D01*
X106821335Y-73190000D01*
X107098574Y-73134853D01*
X107359727Y-73026680D01*
X107594759Y-72869637D01*
X107794637Y-72669759D01*
X107950000Y-72437241D01*
X108105363Y-72669759D01*
X108305241Y-72869637D01*
X108540273Y-73026680D01*
X108801426Y-73134853D01*
X109078665Y-73190000D01*
X109361335Y-73190000D01*
X109638574Y-73134853D01*
X109899727Y-73026680D01*
X110134759Y-72869637D01*
X110334637Y-72669759D01*
X110490000Y-72437241D01*
X110645363Y-72669759D01*
X110845241Y-72869637D01*
X111080273Y-73026680D01*
X111341426Y-73134853D01*
X111618665Y-73190000D01*
X111901335Y-73190000D01*
X112178574Y-73134853D01*
X112439727Y-73026680D01*
X112674759Y-72869637D01*
X112874637Y-72669759D01*
X113030000Y-72437241D01*
X113185363Y-72669759D01*
X113385241Y-72869637D01*
X113620273Y-73026680D01*
X113881426Y-73134853D01*
X114158665Y-73190000D01*
X114441335Y-73190000D01*
X114718574Y-73134853D01*
X114979727Y-73026680D01*
X115214759Y-72869637D01*
X115414637Y-72669759D01*
X115570000Y-72437241D01*
X115725363Y-72669759D01*
X115925241Y-72869637D01*
X116160273Y-73026680D01*
X116421426Y-73134853D01*
X116698665Y-73190000D01*
X116981335Y-73190000D01*
X117258574Y-73134853D01*
X117519727Y-73026680D01*
X117754759Y-72869637D01*
X117954637Y-72669759D01*
X118110000Y-72437241D01*
X118265363Y-72669759D01*
X118465241Y-72869637D01*
X118700273Y-73026680D01*
X118961426Y-73134853D01*
X119238665Y-73190000D01*
X119521335Y-73190000D01*
X119798574Y-73134853D01*
X120059727Y-73026680D01*
X120294759Y-72869637D01*
X120494637Y-72669759D01*
X120651680Y-72434727D01*
X120656067Y-72424135D01*
X120767615Y-72610131D01*
X120956586Y-72818519D01*
X121182580Y-72986037D01*
X121436913Y-73106246D01*
X121570961Y-73146904D01*
X121793000Y-73024915D01*
X121793000Y-71882000D01*
X121773000Y-71882000D01*
X121773000Y-71628000D01*
X121793000Y-71628000D01*
X121793000Y-71608000D01*
X122047000Y-71608000D01*
X122047000Y-71628000D01*
X122067000Y-71628000D01*
X122067000Y-71882000D01*
X122047000Y-71882000D01*
X122047000Y-73024915D01*
X122269039Y-73146904D01*
X122403087Y-73106246D01*
X122657420Y-72986037D01*
X122883414Y-72818519D01*
X123072385Y-72610131D01*
X123183933Y-72424135D01*
X123188320Y-72434727D01*
X123345363Y-72669759D01*
X123545241Y-72869637D01*
X123780273Y-73026680D01*
X124041426Y-73134853D01*
X124318665Y-73190000D01*
X124601335Y-73190000D01*
X124777616Y-73154935D01*
X134623670Y-73154935D01*
X134797723Y-73485854D01*
X135198040Y-73691625D01*
X135630808Y-73815346D01*
X136079398Y-73852259D01*
X136526570Y-73800949D01*
X136955139Y-73663385D01*
X137287277Y-73485854D01*
X137461330Y-73154935D01*
X136042500Y-71736105D01*
X134623670Y-73154935D01*
X124777616Y-73154935D01*
X124878574Y-73134853D01*
X125139727Y-73026680D01*
X125374759Y-72869637D01*
X125574637Y-72669759D01*
X125731680Y-72434727D01*
X125839853Y-72173574D01*
X125895000Y-71896335D01*
X125895000Y-71613665D01*
X125890969Y-71593398D01*
X133746741Y-71593398D01*
X133798051Y-72040570D01*
X133935615Y-72469139D01*
X134113146Y-72801277D01*
X134444065Y-72975330D01*
X135862895Y-71556500D01*
X136222105Y-71556500D01*
X137640935Y-72975330D01*
X137971854Y-72801277D01*
X138177625Y-72400960D01*
X138301346Y-71968192D01*
X138338259Y-71519602D01*
X138286949Y-71072430D01*
X138149385Y-70643861D01*
X137971854Y-70311723D01*
X137640935Y-70137670D01*
X136222105Y-71556500D01*
X135862895Y-71556500D01*
X134444065Y-70137670D01*
X134113146Y-70311723D01*
X133907375Y-70712040D01*
X133783654Y-71144808D01*
X133746741Y-71593398D01*
X125890969Y-71593398D01*
X125839853Y-71336426D01*
X125731680Y-71075273D01*
X125574637Y-70840241D01*
X125374759Y-70640363D01*
X125139727Y-70483320D01*
X124878574Y-70375147D01*
X124601335Y-70320000D01*
X124318665Y-70320000D01*
X124041426Y-70375147D01*
X123780273Y-70483320D01*
X123545241Y-70640363D01*
X123345363Y-70840241D01*
X123188320Y-71075273D01*
X123183933Y-71085865D01*
X123072385Y-70899869D01*
X122883414Y-70691481D01*
X122657420Y-70523963D01*
X122403087Y-70403754D01*
X122269039Y-70363096D01*
X122047002Y-70485084D01*
X122047002Y-70395865D01*
X122484802Y-69958065D01*
X134623670Y-69958065D01*
X136042500Y-71376895D01*
X137461330Y-69958065D01*
X137287277Y-69627146D01*
X136886960Y-69421375D01*
X136454192Y-69297654D01*
X136005602Y-69260741D01*
X135558430Y-69312051D01*
X135129861Y-69449615D01*
X134797723Y-69627146D01*
X134623670Y-69958065D01*
X122484802Y-69958065D01*
X128201368Y-64241500D01*
X131534435Y-64241500D01*
X131609025Y-64353132D01*
X131815868Y-64559975D01*
X132035158Y-64706500D01*
X131815868Y-64853025D01*
X131609025Y-65059868D01*
X131446510Y-65303089D01*
X131334568Y-65573342D01*
X131277500Y-65860240D01*
X131277500Y-66152760D01*
X131334568Y-66439658D01*
X131446510Y-66709911D01*
X131609025Y-66953132D01*
X131712393Y-67056500D01*
X131609025Y-67159868D01*
X131512500Y-67304328D01*
X131415975Y-67159868D01*
X131209132Y-66953025D01*
X130965911Y-66790510D01*
X130695658Y-66678568D01*
X130408760Y-66621500D01*
X130116240Y-66621500D01*
X129829342Y-66678568D01*
X129559089Y-66790510D01*
X129315868Y-66953025D01*
X129109025Y-67159868D01*
X128946510Y-67403089D01*
X128834568Y-67673342D01*
X128777500Y-67960240D01*
X128777500Y-68252760D01*
X128834568Y-68539658D01*
X128946510Y-68809911D01*
X129109025Y-69053132D01*
X129315868Y-69259975D01*
X129559089Y-69422490D01*
X129829342Y-69534432D01*
X130116240Y-69591500D01*
X130408760Y-69591500D01*
X130695658Y-69534432D01*
X130965911Y-69422490D01*
X131209132Y-69259975D01*
X131415975Y-69053132D01*
X131512500Y-68908672D01*
X131609025Y-69053132D01*
X131815868Y-69259975D01*
X132059089Y-69422490D01*
X132329342Y-69534432D01*
X132616240Y-69591500D01*
X132908760Y-69591500D01*
X133195658Y-69534432D01*
X133465911Y-69422490D01*
X133709132Y-69259975D01*
X133915975Y-69053132D01*
X134078490Y-68809911D01*
X134190432Y-68539658D01*
X134247500Y-68252760D01*
X134247500Y-67960240D01*
X134190432Y-67673342D01*
X134078490Y-67403089D01*
X133915975Y-67159868D01*
X133812607Y-67056500D01*
X133915975Y-66953132D01*
X134078490Y-66709911D01*
X134190432Y-66439658D01*
X134217230Y-66304935D01*
X135423670Y-66304935D01*
X135597723Y-66635854D01*
X135998040Y-66841625D01*
X136430808Y-66965346D01*
X136879398Y-67002259D01*
X137326570Y-66950949D01*
X137755139Y-66813385D01*
X138087277Y-66635854D01*
X138261330Y-66304935D01*
X136842500Y-64886105D01*
X135423670Y-66304935D01*
X134217230Y-66304935D01*
X134247500Y-66152760D01*
X134247500Y-65860240D01*
X134190432Y-65573342D01*
X134078490Y-65303089D01*
X133915975Y-65059868D01*
X133709132Y-64853025D01*
X133545064Y-64743398D01*
X134546741Y-64743398D01*
X134598051Y-65190570D01*
X134735615Y-65619139D01*
X134913146Y-65951277D01*
X135244065Y-66125330D01*
X136662895Y-64706500D01*
X137022105Y-64706500D01*
X138440935Y-66125330D01*
X138771854Y-65951277D01*
X138977625Y-65550960D01*
X139101346Y-65118192D01*
X139138259Y-64669602D01*
X139086949Y-64222430D01*
X138949385Y-63793861D01*
X138771854Y-63461723D01*
X138440935Y-63287670D01*
X137022105Y-64706500D01*
X136662895Y-64706500D01*
X135244065Y-63287670D01*
X134913146Y-63461723D01*
X134707375Y-63862040D01*
X134583654Y-64294808D01*
X134546741Y-64743398D01*
X133545064Y-64743398D01*
X133489842Y-64706500D01*
X133709132Y-64559975D01*
X133915975Y-64353132D01*
X134078490Y-64109911D01*
X134190432Y-63839658D01*
X134247500Y-63552760D01*
X134247500Y-63260240D01*
X134217231Y-63108065D01*
X135423670Y-63108065D01*
X136842500Y-64526895D01*
X138261330Y-63108065D01*
X138087277Y-62777146D01*
X137686960Y-62571375D01*
X137254192Y-62447654D01*
X136805602Y-62410741D01*
X136358430Y-62462051D01*
X135929861Y-62599615D01*
X135597723Y-62777146D01*
X135423670Y-63108065D01*
X134217231Y-63108065D01*
X134190432Y-62973342D01*
X134078490Y-62703089D01*
X133915975Y-62459868D01*
X133817254Y-62361147D01*
X133907004Y-62271396D01*
X133790899Y-62155291D01*
X134039972Y-62077657D01*
X134165871Y-61813617D01*
X134237839Y-61530089D01*
X134253111Y-61237969D01*
X134211099Y-60948481D01*
X134113419Y-60672753D01*
X134039972Y-60535343D01*
X133790897Y-60457708D01*
X132942105Y-61306500D01*
X132956248Y-61320643D01*
X132776643Y-61500248D01*
X132762500Y-61486105D01*
X132748358Y-61500248D01*
X132568753Y-61320643D01*
X132582895Y-61306500D01*
X131734103Y-60457708D01*
X131524916Y-60522910D01*
X131415975Y-60359868D01*
X131334210Y-60278103D01*
X131913708Y-60278103D01*
X132762500Y-61126895D01*
X133611292Y-60278103D01*
X133533657Y-60029028D01*
X133269617Y-59903129D01*
X132986089Y-59831161D01*
X132693969Y-59815889D01*
X132404481Y-59857901D01*
X132128753Y-59955581D01*
X131991343Y-60029028D01*
X131913708Y-60278103D01*
X131334210Y-60278103D01*
X131209132Y-60153025D01*
X130965911Y-59990510D01*
X130695658Y-59878568D01*
X130408760Y-59821500D01*
X130116240Y-59821500D01*
X129882802Y-59867934D01*
X129469803Y-59454935D01*
X134623670Y-59454935D01*
X134797723Y-59785854D01*
X135198040Y-59991625D01*
X135630808Y-60115346D01*
X136079398Y-60152259D01*
X136526570Y-60100949D01*
X136955139Y-59963385D01*
X137287277Y-59785854D01*
X137461330Y-59454935D01*
X136042500Y-58036105D01*
X134623670Y-59454935D01*
X129469803Y-59454935D01*
X127908266Y-57893398D01*
X133746741Y-57893398D01*
X133798051Y-58340570D01*
X133935615Y-58769139D01*
X134113146Y-59101277D01*
X134444065Y-59275330D01*
X135862895Y-57856500D01*
X136222105Y-57856500D01*
X137640935Y-59275330D01*
X137971854Y-59101277D01*
X138177625Y-58700960D01*
X138301346Y-58268192D01*
X138338259Y-57819602D01*
X138286949Y-57372430D01*
X138149385Y-56943861D01*
X137971854Y-56611723D01*
X137640935Y-56437670D01*
X136222105Y-57856500D01*
X135862895Y-57856500D01*
X134444065Y-56437670D01*
X134113146Y-56611723D01*
X133907375Y-57012040D01*
X133783654Y-57444808D01*
X133746741Y-57893398D01*
X127908266Y-57893398D01*
X127378425Y-57363558D01*
X127352270Y-57331688D01*
X127225125Y-57227343D01*
X127080066Y-57149807D01*
X126922668Y-57102061D01*
X126799998Y-57089979D01*
X126799997Y-57089979D01*
X126758979Y-57085939D01*
X126717961Y-57089979D01*
X125898072Y-57089979D01*
X125898072Y-55794484D01*
X135063987Y-55784825D01*
X134797723Y-55927146D01*
X134623670Y-56258065D01*
X136042500Y-57676895D01*
X137461330Y-56258065D01*
X137287277Y-55927146D01*
X137006418Y-55782779D01*
X140882851Y-55778694D01*
X140943649Y-85509500D01*
G37*
%TD.AperFunction*%
D23*
X116967000Y-56388000D02*
X116987000Y-56388000D01*
X116987000Y-56642000D01*
X116967000Y-56642000D01*
X116967000Y-56662000D01*
X116713000Y-56662000D01*
X116713000Y-56642000D01*
X116693000Y-56642000D01*
X116693000Y-56388000D01*
X116713000Y-56388000D01*
X116713000Y-56368000D01*
X116967000Y-56368000D01*
X116967000Y-56388000D01*
%TA.AperFunction,Conductor*%
D24*
G36*
X116967000Y-56388000D02*
G01*
X116987000Y-56388000D01*
X116987000Y-56642000D01*
X116967000Y-56642000D01*
X116967000Y-56662000D01*
X116713000Y-56662000D01*
X116713000Y-56642000D01*
X116693000Y-56642000D01*
X116693000Y-56388000D01*
X116713000Y-56388000D01*
X116713000Y-56368000D01*
X116967000Y-56368000D01*
X116967000Y-56388000D01*
G37*
%TD.AperFunction*%
%TD*%
M02*
