%TF.GenerationSoftware,KiCad,Pcbnew,5.1.8*%
%TF.CreationDate,2020-12-08T11:40:13+01:00*%
%TF.ProjectId,ps2-serial-mouse-adapter,7073322d-7365-4726-9961-6c2d6d6f7573,0.6*%
%TF.SameCoordinates,Original*%
%TF.FileFunction,Legend,Top*%
%TF.FilePolarity,Positive*%
%FSLAX46Y46*%
G04 Gerber Fmt 4.6, Leading zero omitted, Abs format (unit mm)*
G04 Created by KiCad (PCBNEW 5.1.8) date 2020-12-08 11:40:13*
%MOMM*%
%LPD*%
G01*
G04 APERTURE LIST*
%ADD10C,0.150000*%
%ADD11C,0.250000*%
%ADD12C,0.300000*%
%ADD13C,0.120000*%
G04 APERTURE END LIST*
D10*
X94847142Y-85632857D02*
X94847142Y-84832857D01*
X94847142Y-85061428D02*
X94904285Y-84947142D01*
X94961428Y-84890000D01*
X95075714Y-84832857D01*
X95190000Y-84832857D01*
X96047142Y-85575714D02*
X95932857Y-85632857D01*
X95704285Y-85632857D01*
X95590000Y-85575714D01*
X95532857Y-85461428D01*
X95532857Y-85004285D01*
X95590000Y-84890000D01*
X95704285Y-84832857D01*
X95932857Y-84832857D01*
X96047142Y-84890000D01*
X96104285Y-85004285D01*
X96104285Y-85118571D01*
X95532857Y-85232857D01*
X96504285Y-84832857D02*
X96790000Y-85632857D01*
X97075714Y-84832857D01*
X98675714Y-84432857D02*
X98790000Y-84432857D01*
X98904285Y-84490000D01*
X98961428Y-84547142D01*
X99018571Y-84661428D01*
X99075714Y-84890000D01*
X99075714Y-85175714D01*
X99018571Y-85404285D01*
X98961428Y-85518571D01*
X98904285Y-85575714D01*
X98790000Y-85632857D01*
X98675714Y-85632857D01*
X98561428Y-85575714D01*
X98504285Y-85518571D01*
X98447142Y-85404285D01*
X98390000Y-85175714D01*
X98390000Y-84890000D01*
X98447142Y-84661428D01*
X98504285Y-84547142D01*
X98561428Y-84490000D01*
X98675714Y-84432857D01*
X99590000Y-85518571D02*
X99647142Y-85575714D01*
X99590000Y-85632857D01*
X99532857Y-85575714D01*
X99590000Y-85518571D01*
X99590000Y-85632857D01*
X100675714Y-84432857D02*
X100447142Y-84432857D01*
X100332857Y-84490000D01*
X100275714Y-84547142D01*
X100161428Y-84718571D01*
X100104285Y-84947142D01*
X100104285Y-85404285D01*
X100161428Y-85518571D01*
X100218571Y-85575714D01*
X100332857Y-85632857D01*
X100561428Y-85632857D01*
X100675714Y-85575714D01*
X100732857Y-85518571D01*
X100790000Y-85404285D01*
X100790000Y-85118571D01*
X100732857Y-85004285D01*
X100675714Y-84947142D01*
X100561428Y-84890000D01*
X100332857Y-84890000D01*
X100218571Y-84947142D01*
X100161428Y-85004285D01*
X100104285Y-85118571D01*
D11*
X111177500Y-85070071D02*
X111177500Y-83570071D01*
X111177500Y-84141500D02*
X111320357Y-84070071D01*
X111606071Y-84070071D01*
X111748928Y-84141500D01*
X111820357Y-84212928D01*
X111891785Y-84355785D01*
X111891785Y-84784357D01*
X111820357Y-84927214D01*
X111748928Y-84998642D01*
X111606071Y-85070071D01*
X111320357Y-85070071D01*
X111177500Y-84998642D01*
X112391785Y-84070071D02*
X112748928Y-85070071D01*
X113106071Y-84070071D02*
X112748928Y-85070071D01*
X112606071Y-85427214D01*
X112534642Y-85498642D01*
X112391785Y-85570071D01*
X114820357Y-85070071D02*
X114820357Y-83570071D01*
X115677500Y-85070071D01*
X115677500Y-83570071D01*
X116963214Y-84998642D02*
X116820357Y-85070071D01*
X116534642Y-85070071D01*
X116391785Y-84998642D01*
X116320357Y-84855785D01*
X116320357Y-84284357D01*
X116391785Y-84141500D01*
X116534642Y-84070071D01*
X116820357Y-84070071D01*
X116963214Y-84141500D01*
X117034642Y-84284357D01*
X117034642Y-84427214D01*
X116320357Y-84570071D01*
X118320357Y-84998642D02*
X118177500Y-85070071D01*
X117891785Y-85070071D01*
X117748928Y-84998642D01*
X117677500Y-84927214D01*
X117606071Y-84784357D01*
X117606071Y-84355785D01*
X117677500Y-84212928D01*
X117748928Y-84141500D01*
X117891785Y-84070071D01*
X118177500Y-84070071D01*
X118320357Y-84141500D01*
X118963214Y-85070071D02*
X118963214Y-84070071D01*
X118963214Y-84355785D02*
X119034642Y-84212928D01*
X119106071Y-84141500D01*
X119248928Y-84070071D01*
X119391785Y-84070071D01*
X120106071Y-85070071D02*
X119963214Y-84998642D01*
X119891785Y-84927214D01*
X119820357Y-84784357D01*
X119820357Y-84355785D01*
X119891785Y-84212928D01*
X119963214Y-84141500D01*
X120106071Y-84070071D01*
X120320357Y-84070071D01*
X120463214Y-84141500D01*
X120534642Y-84212928D01*
X120606071Y-84355785D01*
X120606071Y-84784357D01*
X120534642Y-84927214D01*
X120463214Y-84998642D01*
X120320357Y-85070071D01*
X120106071Y-85070071D01*
X121106071Y-84070071D02*
X121391785Y-85070071D01*
X121677500Y-84355785D01*
X121963214Y-85070071D01*
X122248928Y-84070071D01*
X123463214Y-85070071D02*
X123463214Y-84284357D01*
X123391785Y-84141500D01*
X123248928Y-84070071D01*
X122963214Y-84070071D01*
X122820357Y-84141500D01*
X123463214Y-84998642D02*
X123320357Y-85070071D01*
X122963214Y-85070071D01*
X122820357Y-84998642D01*
X122748928Y-84855785D01*
X122748928Y-84712928D01*
X122820357Y-84570071D01*
X122963214Y-84498642D01*
X123320357Y-84498642D01*
X123463214Y-84427214D01*
X124177500Y-85070071D02*
X124177500Y-84070071D01*
X124177500Y-84355785D02*
X124248928Y-84212928D01*
X124320357Y-84141500D01*
X124463214Y-84070071D01*
X124606071Y-84070071D01*
X125677500Y-84998642D02*
X125534642Y-85070071D01*
X125248928Y-85070071D01*
X125106071Y-84998642D01*
X125034642Y-84855785D01*
X125034642Y-84284357D01*
X125106071Y-84141500D01*
X125248928Y-84070071D01*
X125534642Y-84070071D01*
X125677500Y-84141500D01*
X125748928Y-84284357D01*
X125748928Y-84427214D01*
X125034642Y-84570071D01*
D12*
X97522142Y-82938047D02*
X97522142Y-81238047D01*
X98093571Y-81238047D01*
X98236428Y-81319000D01*
X98307857Y-81399952D01*
X98379285Y-81561857D01*
X98379285Y-81804714D01*
X98307857Y-81966619D01*
X98236428Y-82047571D01*
X98093571Y-82128523D01*
X97522142Y-82128523D01*
X98950714Y-82857095D02*
X99165000Y-82938047D01*
X99522142Y-82938047D01*
X99665000Y-82857095D01*
X99736428Y-82776142D01*
X99807857Y-82614238D01*
X99807857Y-82452333D01*
X99736428Y-82290428D01*
X99665000Y-82209476D01*
X99522142Y-82128523D01*
X99236428Y-82047571D01*
X99093571Y-81966619D01*
X99022142Y-81885666D01*
X98950714Y-81723761D01*
X98950714Y-81561857D01*
X99022142Y-81399952D01*
X99093571Y-81319000D01*
X99236428Y-81238047D01*
X99593571Y-81238047D01*
X99807857Y-81319000D01*
X100379285Y-81399952D02*
X100450714Y-81319000D01*
X100593571Y-81238047D01*
X100950714Y-81238047D01*
X101093571Y-81319000D01*
X101165000Y-81399952D01*
X101236428Y-81561857D01*
X101236428Y-81723761D01*
X101165000Y-81966619D01*
X100307857Y-82938047D01*
X101236428Y-82938047D01*
X102807857Y-81804714D02*
X103379285Y-81804714D01*
X103022142Y-81238047D02*
X103022142Y-82695190D01*
X103093571Y-82857095D01*
X103236428Y-82938047D01*
X103379285Y-82938047D01*
X104093571Y-82938047D02*
X103950714Y-82857095D01*
X103879285Y-82776142D01*
X103807857Y-82614238D01*
X103807857Y-82128523D01*
X103879285Y-81966619D01*
X103950714Y-81885666D01*
X104093571Y-81804714D01*
X104307857Y-81804714D01*
X104450714Y-81885666D01*
X104522142Y-81966619D01*
X104593571Y-82128523D01*
X104593571Y-82614238D01*
X104522142Y-82776142D01*
X104450714Y-82857095D01*
X104307857Y-82938047D01*
X104093571Y-82938047D01*
X106307857Y-82857095D02*
X106522142Y-82938047D01*
X106879285Y-82938047D01*
X107022142Y-82857095D01*
X107093571Y-82776142D01*
X107165000Y-82614238D01*
X107165000Y-82452333D01*
X107093571Y-82290428D01*
X107022142Y-82209476D01*
X106879285Y-82128523D01*
X106593571Y-82047571D01*
X106450714Y-81966619D01*
X106379285Y-81885666D01*
X106307857Y-81723761D01*
X106307857Y-81561857D01*
X106379285Y-81399952D01*
X106450714Y-81319000D01*
X106593571Y-81238047D01*
X106950714Y-81238047D01*
X107165000Y-81319000D01*
X108379285Y-82857095D02*
X108236428Y-82938047D01*
X107950714Y-82938047D01*
X107807857Y-82857095D01*
X107736428Y-82695190D01*
X107736428Y-82047571D01*
X107807857Y-81885666D01*
X107950714Y-81804714D01*
X108236428Y-81804714D01*
X108379285Y-81885666D01*
X108450714Y-82047571D01*
X108450714Y-82209476D01*
X107736428Y-82371380D01*
X109093571Y-82938047D02*
X109093571Y-81804714D01*
X109093571Y-82128523D02*
X109165000Y-81966619D01*
X109236428Y-81885666D01*
X109379285Y-81804714D01*
X109522142Y-81804714D01*
X110022142Y-82938047D02*
X110022142Y-81804714D01*
X110022142Y-81238047D02*
X109950714Y-81319000D01*
X110022142Y-81399952D01*
X110093571Y-81319000D01*
X110022142Y-81238047D01*
X110022142Y-81399952D01*
X111379285Y-82938047D02*
X111379285Y-82047571D01*
X111307857Y-81885666D01*
X111165000Y-81804714D01*
X110879285Y-81804714D01*
X110736428Y-81885666D01*
X111379285Y-82857095D02*
X111236428Y-82938047D01*
X110879285Y-82938047D01*
X110736428Y-82857095D01*
X110665000Y-82695190D01*
X110665000Y-82533285D01*
X110736428Y-82371380D01*
X110879285Y-82290428D01*
X111236428Y-82290428D01*
X111379285Y-82209476D01*
X112307857Y-82938047D02*
X112165000Y-82857095D01*
X112093571Y-82695190D01*
X112093571Y-81238047D01*
X114022142Y-82938047D02*
X114022142Y-81238047D01*
X114522142Y-82452333D01*
X115022142Y-81238047D01*
X115022142Y-82938047D01*
X115950714Y-82938047D02*
X115807857Y-82857095D01*
X115736428Y-82776142D01*
X115665000Y-82614238D01*
X115665000Y-82128523D01*
X115736428Y-81966619D01*
X115807857Y-81885666D01*
X115950714Y-81804714D01*
X116165000Y-81804714D01*
X116307857Y-81885666D01*
X116379285Y-81966619D01*
X116450714Y-82128523D01*
X116450714Y-82614238D01*
X116379285Y-82776142D01*
X116307857Y-82857095D01*
X116165000Y-82938047D01*
X115950714Y-82938047D01*
X117736428Y-81804714D02*
X117736428Y-82938047D01*
X117093571Y-81804714D02*
X117093571Y-82695190D01*
X117165000Y-82857095D01*
X117307857Y-82938047D01*
X117522142Y-82938047D01*
X117665000Y-82857095D01*
X117736428Y-82776142D01*
X118379285Y-82857095D02*
X118522142Y-82938047D01*
X118807857Y-82938047D01*
X118950714Y-82857095D01*
X119022142Y-82695190D01*
X119022142Y-82614238D01*
X118950714Y-82452333D01*
X118807857Y-82371380D01*
X118593571Y-82371380D01*
X118450714Y-82290428D01*
X118379285Y-82128523D01*
X118379285Y-82047571D01*
X118450714Y-81885666D01*
X118593571Y-81804714D01*
X118807857Y-81804714D01*
X118950714Y-81885666D01*
X120236428Y-82857095D02*
X120093571Y-82938047D01*
X119807857Y-82938047D01*
X119665000Y-82857095D01*
X119593571Y-82695190D01*
X119593571Y-82047571D01*
X119665000Y-81885666D01*
X119807857Y-81804714D01*
X120093571Y-81804714D01*
X120236428Y-81885666D01*
X120307857Y-82047571D01*
X120307857Y-82209476D01*
X119593571Y-82371380D01*
X122022142Y-82452333D02*
X122736428Y-82452333D01*
X121879285Y-82938047D02*
X122379285Y-81238047D01*
X122879285Y-82938047D01*
X124022142Y-82938047D02*
X124022142Y-81238047D01*
X124022142Y-82857095D02*
X123879285Y-82938047D01*
X123593571Y-82938047D01*
X123450714Y-82857095D01*
X123379285Y-82776142D01*
X123307857Y-82614238D01*
X123307857Y-82128523D01*
X123379285Y-81966619D01*
X123450714Y-81885666D01*
X123593571Y-81804714D01*
X123879285Y-81804714D01*
X124022142Y-81885666D01*
X125379285Y-82938047D02*
X125379285Y-82047571D01*
X125307857Y-81885666D01*
X125165000Y-81804714D01*
X124879285Y-81804714D01*
X124736428Y-81885666D01*
X125379285Y-82857095D02*
X125236428Y-82938047D01*
X124879285Y-82938047D01*
X124736428Y-82857095D01*
X124665000Y-82695190D01*
X124665000Y-82533285D01*
X124736428Y-82371380D01*
X124879285Y-82290428D01*
X125236428Y-82290428D01*
X125379285Y-82209476D01*
X126093571Y-81804714D02*
X126093571Y-83504714D01*
X126093571Y-81885666D02*
X126236428Y-81804714D01*
X126522142Y-81804714D01*
X126665000Y-81885666D01*
X126736428Y-81966619D01*
X126807857Y-82128523D01*
X126807857Y-82614238D01*
X126736428Y-82776142D01*
X126665000Y-82857095D01*
X126522142Y-82938047D01*
X126236428Y-82938047D01*
X126093571Y-82857095D01*
X127236428Y-81804714D02*
X127807857Y-81804714D01*
X127450714Y-81238047D02*
X127450714Y-82695190D01*
X127522142Y-82857095D01*
X127665000Y-82938047D01*
X127807857Y-82938047D01*
X128879285Y-82857095D02*
X128736428Y-82938047D01*
X128450714Y-82938047D01*
X128307857Y-82857095D01*
X128236428Y-82695190D01*
X128236428Y-82047571D01*
X128307857Y-81885666D01*
X128450714Y-81804714D01*
X128736428Y-81804714D01*
X128879285Y-81885666D01*
X128950714Y-82047571D01*
X128950714Y-82209476D01*
X128236428Y-82371380D01*
X129593571Y-82938047D02*
X129593571Y-81804714D01*
X129593571Y-82128523D02*
X129665000Y-81966619D01*
X129736428Y-81885666D01*
X129879285Y-81804714D01*
X130022142Y-81804714D01*
D13*
%TO.C,MOUSE1*%
X128262500Y-71556500D02*
X141542500Y-71556500D01*
X141542500Y-57856500D02*
X141542500Y-71556500D01*
X128262500Y-57856500D02*
X141542500Y-57856500D01*
X128262500Y-71556500D02*
X128262500Y-57856500D01*
%TO.C,JP1*%
X95126500Y-79054000D02*
X95126500Y-76454000D01*
X95126500Y-79054000D02*
X100326500Y-79054000D01*
X100326500Y-79054000D02*
X100326500Y-73854000D01*
X97726500Y-73854000D02*
X100326500Y-73854000D01*
X97726500Y-76454000D02*
X97726500Y-73854000D01*
X95126500Y-76454000D02*
X97726500Y-76454000D01*
X95126500Y-73854000D02*
X96456500Y-73854000D01*
X95126500Y-75184000D02*
X95126500Y-73854000D01*
%TO.C,C2*%
X126060000Y-77216000D02*
G75*
G03*
X126060000Y-77216000I-2120000J0D01*
G01*
X123940000Y-78056000D02*
X123940000Y-79296000D01*
X123940000Y-75136000D02*
X123940000Y-76376000D01*
X123980000Y-78056000D02*
X123980000Y-79296000D01*
X123980000Y-75136000D02*
X123980000Y-76376000D01*
X124020000Y-78056000D02*
X124020000Y-79295000D01*
X124020000Y-75137000D02*
X124020000Y-76376000D01*
X124060000Y-75139000D02*
X124060000Y-76376000D01*
X124060000Y-78056000D02*
X124060000Y-79293000D01*
X124100000Y-75142000D02*
X124100000Y-76376000D01*
X124100000Y-78056000D02*
X124100000Y-79290000D01*
X124140000Y-75145000D02*
X124140000Y-76376000D01*
X124140000Y-78056000D02*
X124140000Y-79287000D01*
X124180000Y-75149000D02*
X124180000Y-76376000D01*
X124180000Y-78056000D02*
X124180000Y-79283000D01*
X124220000Y-75154000D02*
X124220000Y-76376000D01*
X124220000Y-78056000D02*
X124220000Y-79278000D01*
X124260000Y-75160000D02*
X124260000Y-76376000D01*
X124260000Y-78056000D02*
X124260000Y-79272000D01*
X124300000Y-75166000D02*
X124300000Y-76376000D01*
X124300000Y-78056000D02*
X124300000Y-79266000D01*
X124340000Y-75174000D02*
X124340000Y-76376000D01*
X124340000Y-78056000D02*
X124340000Y-79258000D01*
X124380000Y-75182000D02*
X124380000Y-76376000D01*
X124380000Y-78056000D02*
X124380000Y-79250000D01*
X124420000Y-75191000D02*
X124420000Y-76376000D01*
X124420000Y-78056000D02*
X124420000Y-79241000D01*
X124460000Y-75200000D02*
X124460000Y-76376000D01*
X124460000Y-78056000D02*
X124460000Y-79232000D01*
X124500000Y-75211000D02*
X124500000Y-76376000D01*
X124500000Y-78056000D02*
X124500000Y-79221000D01*
X124540000Y-75222000D02*
X124540000Y-76376000D01*
X124540000Y-78056000D02*
X124540000Y-79210000D01*
X124580000Y-75234000D02*
X124580000Y-76376000D01*
X124580000Y-78056000D02*
X124580000Y-79198000D01*
X124620000Y-75248000D02*
X124620000Y-76376000D01*
X124620000Y-78056000D02*
X124620000Y-79184000D01*
X124661000Y-75262000D02*
X124661000Y-76376000D01*
X124661000Y-78056000D02*
X124661000Y-79170000D01*
X124701000Y-75276000D02*
X124701000Y-76376000D01*
X124701000Y-78056000D02*
X124701000Y-79156000D01*
X124741000Y-75292000D02*
X124741000Y-76376000D01*
X124741000Y-78056000D02*
X124741000Y-79140000D01*
X124781000Y-75309000D02*
X124781000Y-76376000D01*
X124781000Y-78056000D02*
X124781000Y-79123000D01*
X124821000Y-75327000D02*
X124821000Y-76376000D01*
X124821000Y-78056000D02*
X124821000Y-79105000D01*
X124861000Y-75346000D02*
X124861000Y-76376000D01*
X124861000Y-78056000D02*
X124861000Y-79086000D01*
X124901000Y-75365000D02*
X124901000Y-76376000D01*
X124901000Y-78056000D02*
X124901000Y-79067000D01*
X124941000Y-75386000D02*
X124941000Y-76376000D01*
X124941000Y-78056000D02*
X124941000Y-79046000D01*
X124981000Y-75408000D02*
X124981000Y-76376000D01*
X124981000Y-78056000D02*
X124981000Y-79024000D01*
X125021000Y-75431000D02*
X125021000Y-76376000D01*
X125021000Y-78056000D02*
X125021000Y-79001000D01*
X125061000Y-75456000D02*
X125061000Y-76376000D01*
X125061000Y-78056000D02*
X125061000Y-78976000D01*
X125101000Y-75481000D02*
X125101000Y-76376000D01*
X125101000Y-78056000D02*
X125101000Y-78951000D01*
X125141000Y-75508000D02*
X125141000Y-76376000D01*
X125141000Y-78056000D02*
X125141000Y-78924000D01*
X125181000Y-75536000D02*
X125181000Y-76376000D01*
X125181000Y-78056000D02*
X125181000Y-78896000D01*
X125221000Y-75566000D02*
X125221000Y-76376000D01*
X125221000Y-78056000D02*
X125221000Y-78866000D01*
X125261000Y-75597000D02*
X125261000Y-76376000D01*
X125261000Y-78056000D02*
X125261000Y-78835000D01*
X125301000Y-75629000D02*
X125301000Y-76376000D01*
X125301000Y-78056000D02*
X125301000Y-78803000D01*
X125341000Y-75664000D02*
X125341000Y-76376000D01*
X125341000Y-78056000D02*
X125341000Y-78768000D01*
X125381000Y-75700000D02*
X125381000Y-76376000D01*
X125381000Y-78056000D02*
X125381000Y-78732000D01*
X125421000Y-75738000D02*
X125421000Y-76376000D01*
X125421000Y-78056000D02*
X125421000Y-78694000D01*
X125461000Y-75778000D02*
X125461000Y-76376000D01*
X125461000Y-78056000D02*
X125461000Y-78654000D01*
X125501000Y-75820000D02*
X125501000Y-76376000D01*
X125501000Y-78056000D02*
X125501000Y-78612000D01*
X125541000Y-75865000D02*
X125541000Y-78567000D01*
X125581000Y-75912000D02*
X125581000Y-78520000D01*
X125621000Y-75962000D02*
X125621000Y-78470000D01*
X125661000Y-76016000D02*
X125661000Y-78416000D01*
X125701000Y-76074000D02*
X125701000Y-78358000D01*
X125741000Y-76136000D02*
X125741000Y-78296000D01*
X125781000Y-76203000D02*
X125781000Y-78229000D01*
X125821000Y-76276000D02*
X125821000Y-78156000D01*
X125861000Y-76357000D02*
X125861000Y-78075000D01*
X125901000Y-76448000D02*
X125901000Y-77984000D01*
X125941000Y-76552000D02*
X125941000Y-77880000D01*
X125981000Y-76679000D02*
X125981000Y-77753000D01*
X126021000Y-76846000D02*
X126021000Y-77586000D01*
X121670199Y-76021000D02*
X122070199Y-76021000D01*
X121870199Y-75821000D02*
X121870199Y-76221000D01*
%TO.C,U1*%
X125790000Y-63135000D02*
X125790000Y-57675000D01*
X125790000Y-57675000D02*
X95190000Y-57675000D01*
X95190000Y-57675000D02*
X95190000Y-70595000D01*
X95190000Y-70595000D02*
X125790000Y-70595000D01*
X125790000Y-70595000D02*
X125790000Y-65135000D01*
X125850000Y-55185000D02*
X95130000Y-55185000D01*
X95130000Y-55185000D02*
X95130000Y-73085000D01*
X95130000Y-73085000D02*
X125850000Y-73085000D01*
X125850000Y-73085000D02*
X125850000Y-55185000D01*
X125790000Y-65135000D02*
G75*
G02*
X125790000Y-63135000I0J1000000D01*
G01*
%TO.C,C5*%
X120980000Y-77216000D02*
G75*
G03*
X120980000Y-77216000I-2120000J0D01*
G01*
X118860000Y-78056000D02*
X118860000Y-79296000D01*
X118860000Y-75136000D02*
X118860000Y-76376000D01*
X118900000Y-78056000D02*
X118900000Y-79296000D01*
X118900000Y-75136000D02*
X118900000Y-76376000D01*
X118940000Y-78056000D02*
X118940000Y-79295000D01*
X118940000Y-75137000D02*
X118940000Y-76376000D01*
X118980000Y-75139000D02*
X118980000Y-76376000D01*
X118980000Y-78056000D02*
X118980000Y-79293000D01*
X119020000Y-75142000D02*
X119020000Y-76376000D01*
X119020000Y-78056000D02*
X119020000Y-79290000D01*
X119060000Y-75145000D02*
X119060000Y-76376000D01*
X119060000Y-78056000D02*
X119060000Y-79287000D01*
X119100000Y-75149000D02*
X119100000Y-76376000D01*
X119100000Y-78056000D02*
X119100000Y-79283000D01*
X119140000Y-75154000D02*
X119140000Y-76376000D01*
X119140000Y-78056000D02*
X119140000Y-79278000D01*
X119180000Y-75160000D02*
X119180000Y-76376000D01*
X119180000Y-78056000D02*
X119180000Y-79272000D01*
X119220000Y-75166000D02*
X119220000Y-76376000D01*
X119220000Y-78056000D02*
X119220000Y-79266000D01*
X119260000Y-75174000D02*
X119260000Y-76376000D01*
X119260000Y-78056000D02*
X119260000Y-79258000D01*
X119300000Y-75182000D02*
X119300000Y-76376000D01*
X119300000Y-78056000D02*
X119300000Y-79250000D01*
X119340000Y-75191000D02*
X119340000Y-76376000D01*
X119340000Y-78056000D02*
X119340000Y-79241000D01*
X119380000Y-75200000D02*
X119380000Y-76376000D01*
X119380000Y-78056000D02*
X119380000Y-79232000D01*
X119420000Y-75211000D02*
X119420000Y-76376000D01*
X119420000Y-78056000D02*
X119420000Y-79221000D01*
X119460000Y-75222000D02*
X119460000Y-76376000D01*
X119460000Y-78056000D02*
X119460000Y-79210000D01*
X119500000Y-75234000D02*
X119500000Y-76376000D01*
X119500000Y-78056000D02*
X119500000Y-79198000D01*
X119540000Y-75248000D02*
X119540000Y-76376000D01*
X119540000Y-78056000D02*
X119540000Y-79184000D01*
X119581000Y-75262000D02*
X119581000Y-76376000D01*
X119581000Y-78056000D02*
X119581000Y-79170000D01*
X119621000Y-75276000D02*
X119621000Y-76376000D01*
X119621000Y-78056000D02*
X119621000Y-79156000D01*
X119661000Y-75292000D02*
X119661000Y-76376000D01*
X119661000Y-78056000D02*
X119661000Y-79140000D01*
X119701000Y-75309000D02*
X119701000Y-76376000D01*
X119701000Y-78056000D02*
X119701000Y-79123000D01*
X119741000Y-75327000D02*
X119741000Y-76376000D01*
X119741000Y-78056000D02*
X119741000Y-79105000D01*
X119781000Y-75346000D02*
X119781000Y-76376000D01*
X119781000Y-78056000D02*
X119781000Y-79086000D01*
X119821000Y-75365000D02*
X119821000Y-76376000D01*
X119821000Y-78056000D02*
X119821000Y-79067000D01*
X119861000Y-75386000D02*
X119861000Y-76376000D01*
X119861000Y-78056000D02*
X119861000Y-79046000D01*
X119901000Y-75408000D02*
X119901000Y-76376000D01*
X119901000Y-78056000D02*
X119901000Y-79024000D01*
X119941000Y-75431000D02*
X119941000Y-76376000D01*
X119941000Y-78056000D02*
X119941000Y-79001000D01*
X119981000Y-75456000D02*
X119981000Y-76376000D01*
X119981000Y-78056000D02*
X119981000Y-78976000D01*
X120021000Y-75481000D02*
X120021000Y-76376000D01*
X120021000Y-78056000D02*
X120021000Y-78951000D01*
X120061000Y-75508000D02*
X120061000Y-76376000D01*
X120061000Y-78056000D02*
X120061000Y-78924000D01*
X120101000Y-75536000D02*
X120101000Y-76376000D01*
X120101000Y-78056000D02*
X120101000Y-78896000D01*
X120141000Y-75566000D02*
X120141000Y-76376000D01*
X120141000Y-78056000D02*
X120141000Y-78866000D01*
X120181000Y-75597000D02*
X120181000Y-76376000D01*
X120181000Y-78056000D02*
X120181000Y-78835000D01*
X120221000Y-75629000D02*
X120221000Y-76376000D01*
X120221000Y-78056000D02*
X120221000Y-78803000D01*
X120261000Y-75664000D02*
X120261000Y-76376000D01*
X120261000Y-78056000D02*
X120261000Y-78768000D01*
X120301000Y-75700000D02*
X120301000Y-76376000D01*
X120301000Y-78056000D02*
X120301000Y-78732000D01*
X120341000Y-75738000D02*
X120341000Y-76376000D01*
X120341000Y-78056000D02*
X120341000Y-78694000D01*
X120381000Y-75778000D02*
X120381000Y-76376000D01*
X120381000Y-78056000D02*
X120381000Y-78654000D01*
X120421000Y-75820000D02*
X120421000Y-76376000D01*
X120421000Y-78056000D02*
X120421000Y-78612000D01*
X120461000Y-75865000D02*
X120461000Y-78567000D01*
X120501000Y-75912000D02*
X120501000Y-78520000D01*
X120541000Y-75962000D02*
X120541000Y-78470000D01*
X120581000Y-76016000D02*
X120581000Y-78416000D01*
X120621000Y-76074000D02*
X120621000Y-78358000D01*
X120661000Y-76136000D02*
X120661000Y-78296000D01*
X120701000Y-76203000D02*
X120701000Y-78229000D01*
X120741000Y-76276000D02*
X120741000Y-78156000D01*
X120781000Y-76357000D02*
X120781000Y-78075000D01*
X120821000Y-76448000D02*
X120821000Y-77984000D01*
X120861000Y-76552000D02*
X120861000Y-77880000D01*
X120901000Y-76679000D02*
X120901000Y-77753000D01*
X120941000Y-76846000D02*
X120941000Y-77586000D01*
X116590199Y-76021000D02*
X116990199Y-76021000D01*
X116790199Y-75821000D02*
X116790199Y-76221000D01*
%TO.C,RS232*%
X81595000Y-55175000D02*
X93935000Y-55175000D01*
X93935000Y-55175000D02*
X93935000Y-86145000D01*
X93935000Y-86145000D02*
X81595000Y-86145000D01*
X94829338Y-75950000D02*
X94829338Y-76450000D01*
X94829338Y-76450000D02*
X94396325Y-76200000D01*
X94396325Y-76200000D02*
X94829338Y-75950000D01*
%TO.C,U2*%
X99000000Y-65135000D02*
X99000000Y-66785000D01*
X99000000Y-66785000D02*
X119440000Y-66785000D01*
X119440000Y-66785000D02*
X119440000Y-61485000D01*
X119440000Y-61485000D02*
X99000000Y-61485000D01*
X99000000Y-61485000D02*
X99000000Y-63135000D01*
X98940000Y-69275000D02*
X119500000Y-69275000D01*
X119500000Y-69275000D02*
X119500000Y-58995000D01*
X119500000Y-58995000D02*
X98940000Y-58995000D01*
X98940000Y-58995000D02*
X98940000Y-69275000D01*
X99000000Y-63135000D02*
G75*
G02*
X99000000Y-65135000I0J-1000000D01*
G01*
%TO.C,PWR1*%
X140609500Y-83710000D02*
X140609500Y-76310000D01*
X142859500Y-83710000D02*
X133159500Y-83710000D01*
X142859500Y-83710000D02*
X142859500Y-76310000D01*
X133159500Y-76310000D02*
X142859500Y-76310000D01*
X133159500Y-83710000D02*
X133159500Y-76310000D01*
%TO.C,C4*%
X106502000Y-77216000D02*
G75*
G03*
X106502000Y-77216000I-2120000J0D01*
G01*
X104382000Y-78056000D02*
X104382000Y-79296000D01*
X104382000Y-75136000D02*
X104382000Y-76376000D01*
X104422000Y-78056000D02*
X104422000Y-79296000D01*
X104422000Y-75136000D02*
X104422000Y-76376000D01*
X104462000Y-78056000D02*
X104462000Y-79295000D01*
X104462000Y-75137000D02*
X104462000Y-76376000D01*
X104502000Y-75139000D02*
X104502000Y-76376000D01*
X104502000Y-78056000D02*
X104502000Y-79293000D01*
X104542000Y-75142000D02*
X104542000Y-76376000D01*
X104542000Y-78056000D02*
X104542000Y-79290000D01*
X104582000Y-75145000D02*
X104582000Y-76376000D01*
X104582000Y-78056000D02*
X104582000Y-79287000D01*
X104622000Y-75149000D02*
X104622000Y-76376000D01*
X104622000Y-78056000D02*
X104622000Y-79283000D01*
X104662000Y-75154000D02*
X104662000Y-76376000D01*
X104662000Y-78056000D02*
X104662000Y-79278000D01*
X104702000Y-75160000D02*
X104702000Y-76376000D01*
X104702000Y-78056000D02*
X104702000Y-79272000D01*
X104742000Y-75166000D02*
X104742000Y-76376000D01*
X104742000Y-78056000D02*
X104742000Y-79266000D01*
X104782000Y-75174000D02*
X104782000Y-76376000D01*
X104782000Y-78056000D02*
X104782000Y-79258000D01*
X104822000Y-75182000D02*
X104822000Y-76376000D01*
X104822000Y-78056000D02*
X104822000Y-79250000D01*
X104862000Y-75191000D02*
X104862000Y-76376000D01*
X104862000Y-78056000D02*
X104862000Y-79241000D01*
X104902000Y-75200000D02*
X104902000Y-76376000D01*
X104902000Y-78056000D02*
X104902000Y-79232000D01*
X104942000Y-75211000D02*
X104942000Y-76376000D01*
X104942000Y-78056000D02*
X104942000Y-79221000D01*
X104982000Y-75222000D02*
X104982000Y-76376000D01*
X104982000Y-78056000D02*
X104982000Y-79210000D01*
X105022000Y-75234000D02*
X105022000Y-76376000D01*
X105022000Y-78056000D02*
X105022000Y-79198000D01*
X105062000Y-75248000D02*
X105062000Y-76376000D01*
X105062000Y-78056000D02*
X105062000Y-79184000D01*
X105103000Y-75262000D02*
X105103000Y-76376000D01*
X105103000Y-78056000D02*
X105103000Y-79170000D01*
X105143000Y-75276000D02*
X105143000Y-76376000D01*
X105143000Y-78056000D02*
X105143000Y-79156000D01*
X105183000Y-75292000D02*
X105183000Y-76376000D01*
X105183000Y-78056000D02*
X105183000Y-79140000D01*
X105223000Y-75309000D02*
X105223000Y-76376000D01*
X105223000Y-78056000D02*
X105223000Y-79123000D01*
X105263000Y-75327000D02*
X105263000Y-76376000D01*
X105263000Y-78056000D02*
X105263000Y-79105000D01*
X105303000Y-75346000D02*
X105303000Y-76376000D01*
X105303000Y-78056000D02*
X105303000Y-79086000D01*
X105343000Y-75365000D02*
X105343000Y-76376000D01*
X105343000Y-78056000D02*
X105343000Y-79067000D01*
X105383000Y-75386000D02*
X105383000Y-76376000D01*
X105383000Y-78056000D02*
X105383000Y-79046000D01*
X105423000Y-75408000D02*
X105423000Y-76376000D01*
X105423000Y-78056000D02*
X105423000Y-79024000D01*
X105463000Y-75431000D02*
X105463000Y-76376000D01*
X105463000Y-78056000D02*
X105463000Y-79001000D01*
X105503000Y-75456000D02*
X105503000Y-76376000D01*
X105503000Y-78056000D02*
X105503000Y-78976000D01*
X105543000Y-75481000D02*
X105543000Y-76376000D01*
X105543000Y-78056000D02*
X105543000Y-78951000D01*
X105583000Y-75508000D02*
X105583000Y-76376000D01*
X105583000Y-78056000D02*
X105583000Y-78924000D01*
X105623000Y-75536000D02*
X105623000Y-76376000D01*
X105623000Y-78056000D02*
X105623000Y-78896000D01*
X105663000Y-75566000D02*
X105663000Y-76376000D01*
X105663000Y-78056000D02*
X105663000Y-78866000D01*
X105703000Y-75597000D02*
X105703000Y-76376000D01*
X105703000Y-78056000D02*
X105703000Y-78835000D01*
X105743000Y-75629000D02*
X105743000Y-76376000D01*
X105743000Y-78056000D02*
X105743000Y-78803000D01*
X105783000Y-75664000D02*
X105783000Y-76376000D01*
X105783000Y-78056000D02*
X105783000Y-78768000D01*
X105823000Y-75700000D02*
X105823000Y-76376000D01*
X105823000Y-78056000D02*
X105823000Y-78732000D01*
X105863000Y-75738000D02*
X105863000Y-76376000D01*
X105863000Y-78056000D02*
X105863000Y-78694000D01*
X105903000Y-75778000D02*
X105903000Y-76376000D01*
X105903000Y-78056000D02*
X105903000Y-78654000D01*
X105943000Y-75820000D02*
X105943000Y-76376000D01*
X105943000Y-78056000D02*
X105943000Y-78612000D01*
X105983000Y-75865000D02*
X105983000Y-78567000D01*
X106023000Y-75912000D02*
X106023000Y-78520000D01*
X106063000Y-75962000D02*
X106063000Y-78470000D01*
X106103000Y-76016000D02*
X106103000Y-78416000D01*
X106143000Y-76074000D02*
X106143000Y-78358000D01*
X106183000Y-76136000D02*
X106183000Y-78296000D01*
X106223000Y-76203000D02*
X106223000Y-78229000D01*
X106263000Y-76276000D02*
X106263000Y-78156000D01*
X106303000Y-76357000D02*
X106303000Y-78075000D01*
X106343000Y-76448000D02*
X106343000Y-77984000D01*
X106383000Y-76552000D02*
X106383000Y-77880000D01*
X106423000Y-76679000D02*
X106423000Y-77753000D01*
X106463000Y-76846000D02*
X106463000Y-77586000D01*
X102112199Y-76021000D02*
X102512199Y-76021000D01*
X102312199Y-75821000D02*
X102312199Y-76221000D01*
%TO.C,C3*%
X116154000Y-77216000D02*
G75*
G03*
X116154000Y-77216000I-2120000J0D01*
G01*
X114034000Y-78056000D02*
X114034000Y-79296000D01*
X114034000Y-75136000D02*
X114034000Y-76376000D01*
X114074000Y-78056000D02*
X114074000Y-79296000D01*
X114074000Y-75136000D02*
X114074000Y-76376000D01*
X114114000Y-78056000D02*
X114114000Y-79295000D01*
X114114000Y-75137000D02*
X114114000Y-76376000D01*
X114154000Y-75139000D02*
X114154000Y-76376000D01*
X114154000Y-78056000D02*
X114154000Y-79293000D01*
X114194000Y-75142000D02*
X114194000Y-76376000D01*
X114194000Y-78056000D02*
X114194000Y-79290000D01*
X114234000Y-75145000D02*
X114234000Y-76376000D01*
X114234000Y-78056000D02*
X114234000Y-79287000D01*
X114274000Y-75149000D02*
X114274000Y-76376000D01*
X114274000Y-78056000D02*
X114274000Y-79283000D01*
X114314000Y-75154000D02*
X114314000Y-76376000D01*
X114314000Y-78056000D02*
X114314000Y-79278000D01*
X114354000Y-75160000D02*
X114354000Y-76376000D01*
X114354000Y-78056000D02*
X114354000Y-79272000D01*
X114394000Y-75166000D02*
X114394000Y-76376000D01*
X114394000Y-78056000D02*
X114394000Y-79266000D01*
X114434000Y-75174000D02*
X114434000Y-76376000D01*
X114434000Y-78056000D02*
X114434000Y-79258000D01*
X114474000Y-75182000D02*
X114474000Y-76376000D01*
X114474000Y-78056000D02*
X114474000Y-79250000D01*
X114514000Y-75191000D02*
X114514000Y-76376000D01*
X114514000Y-78056000D02*
X114514000Y-79241000D01*
X114554000Y-75200000D02*
X114554000Y-76376000D01*
X114554000Y-78056000D02*
X114554000Y-79232000D01*
X114594000Y-75211000D02*
X114594000Y-76376000D01*
X114594000Y-78056000D02*
X114594000Y-79221000D01*
X114634000Y-75222000D02*
X114634000Y-76376000D01*
X114634000Y-78056000D02*
X114634000Y-79210000D01*
X114674000Y-75234000D02*
X114674000Y-76376000D01*
X114674000Y-78056000D02*
X114674000Y-79198000D01*
X114714000Y-75248000D02*
X114714000Y-76376000D01*
X114714000Y-78056000D02*
X114714000Y-79184000D01*
X114755000Y-75262000D02*
X114755000Y-76376000D01*
X114755000Y-78056000D02*
X114755000Y-79170000D01*
X114795000Y-75276000D02*
X114795000Y-76376000D01*
X114795000Y-78056000D02*
X114795000Y-79156000D01*
X114835000Y-75292000D02*
X114835000Y-76376000D01*
X114835000Y-78056000D02*
X114835000Y-79140000D01*
X114875000Y-75309000D02*
X114875000Y-76376000D01*
X114875000Y-78056000D02*
X114875000Y-79123000D01*
X114915000Y-75327000D02*
X114915000Y-76376000D01*
X114915000Y-78056000D02*
X114915000Y-79105000D01*
X114955000Y-75346000D02*
X114955000Y-76376000D01*
X114955000Y-78056000D02*
X114955000Y-79086000D01*
X114995000Y-75365000D02*
X114995000Y-76376000D01*
X114995000Y-78056000D02*
X114995000Y-79067000D01*
X115035000Y-75386000D02*
X115035000Y-76376000D01*
X115035000Y-78056000D02*
X115035000Y-79046000D01*
X115075000Y-75408000D02*
X115075000Y-76376000D01*
X115075000Y-78056000D02*
X115075000Y-79024000D01*
X115115000Y-75431000D02*
X115115000Y-76376000D01*
X115115000Y-78056000D02*
X115115000Y-79001000D01*
X115155000Y-75456000D02*
X115155000Y-76376000D01*
X115155000Y-78056000D02*
X115155000Y-78976000D01*
X115195000Y-75481000D02*
X115195000Y-76376000D01*
X115195000Y-78056000D02*
X115195000Y-78951000D01*
X115235000Y-75508000D02*
X115235000Y-76376000D01*
X115235000Y-78056000D02*
X115235000Y-78924000D01*
X115275000Y-75536000D02*
X115275000Y-76376000D01*
X115275000Y-78056000D02*
X115275000Y-78896000D01*
X115315000Y-75566000D02*
X115315000Y-76376000D01*
X115315000Y-78056000D02*
X115315000Y-78866000D01*
X115355000Y-75597000D02*
X115355000Y-76376000D01*
X115355000Y-78056000D02*
X115355000Y-78835000D01*
X115395000Y-75629000D02*
X115395000Y-76376000D01*
X115395000Y-78056000D02*
X115395000Y-78803000D01*
X115435000Y-75664000D02*
X115435000Y-76376000D01*
X115435000Y-78056000D02*
X115435000Y-78768000D01*
X115475000Y-75700000D02*
X115475000Y-76376000D01*
X115475000Y-78056000D02*
X115475000Y-78732000D01*
X115515000Y-75738000D02*
X115515000Y-76376000D01*
X115515000Y-78056000D02*
X115515000Y-78694000D01*
X115555000Y-75778000D02*
X115555000Y-76376000D01*
X115555000Y-78056000D02*
X115555000Y-78654000D01*
X115595000Y-75820000D02*
X115595000Y-76376000D01*
X115595000Y-78056000D02*
X115595000Y-78612000D01*
X115635000Y-75865000D02*
X115635000Y-78567000D01*
X115675000Y-75912000D02*
X115675000Y-78520000D01*
X115715000Y-75962000D02*
X115715000Y-78470000D01*
X115755000Y-76016000D02*
X115755000Y-78416000D01*
X115795000Y-76074000D02*
X115795000Y-78358000D01*
X115835000Y-76136000D02*
X115835000Y-78296000D01*
X115875000Y-76203000D02*
X115875000Y-78229000D01*
X115915000Y-76276000D02*
X115915000Y-78156000D01*
X115955000Y-76357000D02*
X115955000Y-78075000D01*
X115995000Y-76448000D02*
X115995000Y-77984000D01*
X116035000Y-76552000D02*
X116035000Y-77880000D01*
X116075000Y-76679000D02*
X116075000Y-77753000D01*
X116115000Y-76846000D02*
X116115000Y-77586000D01*
X111764199Y-76021000D02*
X112164199Y-76021000D01*
X111964199Y-75821000D02*
X111964199Y-76221000D01*
%TO.C,C1*%
X111328000Y-77216000D02*
G75*
G03*
X111328000Y-77216000I-2120000J0D01*
G01*
X109208000Y-78056000D02*
X109208000Y-79296000D01*
X109208000Y-75136000D02*
X109208000Y-76376000D01*
X109248000Y-78056000D02*
X109248000Y-79296000D01*
X109248000Y-75136000D02*
X109248000Y-76376000D01*
X109288000Y-78056000D02*
X109288000Y-79295000D01*
X109288000Y-75137000D02*
X109288000Y-76376000D01*
X109328000Y-75139000D02*
X109328000Y-76376000D01*
X109328000Y-78056000D02*
X109328000Y-79293000D01*
X109368000Y-75142000D02*
X109368000Y-76376000D01*
X109368000Y-78056000D02*
X109368000Y-79290000D01*
X109408000Y-75145000D02*
X109408000Y-76376000D01*
X109408000Y-78056000D02*
X109408000Y-79287000D01*
X109448000Y-75149000D02*
X109448000Y-76376000D01*
X109448000Y-78056000D02*
X109448000Y-79283000D01*
X109488000Y-75154000D02*
X109488000Y-76376000D01*
X109488000Y-78056000D02*
X109488000Y-79278000D01*
X109528000Y-75160000D02*
X109528000Y-76376000D01*
X109528000Y-78056000D02*
X109528000Y-79272000D01*
X109568000Y-75166000D02*
X109568000Y-76376000D01*
X109568000Y-78056000D02*
X109568000Y-79266000D01*
X109608000Y-75174000D02*
X109608000Y-76376000D01*
X109608000Y-78056000D02*
X109608000Y-79258000D01*
X109648000Y-75182000D02*
X109648000Y-76376000D01*
X109648000Y-78056000D02*
X109648000Y-79250000D01*
X109688000Y-75191000D02*
X109688000Y-76376000D01*
X109688000Y-78056000D02*
X109688000Y-79241000D01*
X109728000Y-75200000D02*
X109728000Y-76376000D01*
X109728000Y-78056000D02*
X109728000Y-79232000D01*
X109768000Y-75211000D02*
X109768000Y-76376000D01*
X109768000Y-78056000D02*
X109768000Y-79221000D01*
X109808000Y-75222000D02*
X109808000Y-76376000D01*
X109808000Y-78056000D02*
X109808000Y-79210000D01*
X109848000Y-75234000D02*
X109848000Y-76376000D01*
X109848000Y-78056000D02*
X109848000Y-79198000D01*
X109888000Y-75248000D02*
X109888000Y-76376000D01*
X109888000Y-78056000D02*
X109888000Y-79184000D01*
X109929000Y-75262000D02*
X109929000Y-76376000D01*
X109929000Y-78056000D02*
X109929000Y-79170000D01*
X109969000Y-75276000D02*
X109969000Y-76376000D01*
X109969000Y-78056000D02*
X109969000Y-79156000D01*
X110009000Y-75292000D02*
X110009000Y-76376000D01*
X110009000Y-78056000D02*
X110009000Y-79140000D01*
X110049000Y-75309000D02*
X110049000Y-76376000D01*
X110049000Y-78056000D02*
X110049000Y-79123000D01*
X110089000Y-75327000D02*
X110089000Y-76376000D01*
X110089000Y-78056000D02*
X110089000Y-79105000D01*
X110129000Y-75346000D02*
X110129000Y-76376000D01*
X110129000Y-78056000D02*
X110129000Y-79086000D01*
X110169000Y-75365000D02*
X110169000Y-76376000D01*
X110169000Y-78056000D02*
X110169000Y-79067000D01*
X110209000Y-75386000D02*
X110209000Y-76376000D01*
X110209000Y-78056000D02*
X110209000Y-79046000D01*
X110249000Y-75408000D02*
X110249000Y-76376000D01*
X110249000Y-78056000D02*
X110249000Y-79024000D01*
X110289000Y-75431000D02*
X110289000Y-76376000D01*
X110289000Y-78056000D02*
X110289000Y-79001000D01*
X110329000Y-75456000D02*
X110329000Y-76376000D01*
X110329000Y-78056000D02*
X110329000Y-78976000D01*
X110369000Y-75481000D02*
X110369000Y-76376000D01*
X110369000Y-78056000D02*
X110369000Y-78951000D01*
X110409000Y-75508000D02*
X110409000Y-76376000D01*
X110409000Y-78056000D02*
X110409000Y-78924000D01*
X110449000Y-75536000D02*
X110449000Y-76376000D01*
X110449000Y-78056000D02*
X110449000Y-78896000D01*
X110489000Y-75566000D02*
X110489000Y-76376000D01*
X110489000Y-78056000D02*
X110489000Y-78866000D01*
X110529000Y-75597000D02*
X110529000Y-76376000D01*
X110529000Y-78056000D02*
X110529000Y-78835000D01*
X110569000Y-75629000D02*
X110569000Y-76376000D01*
X110569000Y-78056000D02*
X110569000Y-78803000D01*
X110609000Y-75664000D02*
X110609000Y-76376000D01*
X110609000Y-78056000D02*
X110609000Y-78768000D01*
X110649000Y-75700000D02*
X110649000Y-76376000D01*
X110649000Y-78056000D02*
X110649000Y-78732000D01*
X110689000Y-75738000D02*
X110689000Y-76376000D01*
X110689000Y-78056000D02*
X110689000Y-78694000D01*
X110729000Y-75778000D02*
X110729000Y-76376000D01*
X110729000Y-78056000D02*
X110729000Y-78654000D01*
X110769000Y-75820000D02*
X110769000Y-76376000D01*
X110769000Y-78056000D02*
X110769000Y-78612000D01*
X110809000Y-75865000D02*
X110809000Y-78567000D01*
X110849000Y-75912000D02*
X110849000Y-78520000D01*
X110889000Y-75962000D02*
X110889000Y-78470000D01*
X110929000Y-76016000D02*
X110929000Y-78416000D01*
X110969000Y-76074000D02*
X110969000Y-78358000D01*
X111009000Y-76136000D02*
X111009000Y-78296000D01*
X111049000Y-76203000D02*
X111049000Y-78229000D01*
X111089000Y-76276000D02*
X111089000Y-78156000D01*
X111129000Y-76357000D02*
X111129000Y-78075000D01*
X111169000Y-76448000D02*
X111169000Y-77984000D01*
X111209000Y-76552000D02*
X111209000Y-77880000D01*
X111249000Y-76679000D02*
X111249000Y-77753000D01*
X111289000Y-76846000D02*
X111289000Y-77586000D01*
X106938199Y-76021000D02*
X107338199Y-76021000D01*
X107138199Y-75821000D02*
X107138199Y-76221000D01*
%TO.C,MOUSE1*%
D10*
X127714880Y-67892214D02*
X126714880Y-67892214D01*
X127429166Y-67558880D01*
X126714880Y-67225547D01*
X127714880Y-67225547D01*
X126714880Y-66558880D02*
X126714880Y-66368404D01*
X126762500Y-66273166D01*
X126857738Y-66177928D01*
X127048214Y-66130309D01*
X127381547Y-66130309D01*
X127572023Y-66177928D01*
X127667261Y-66273166D01*
X127714880Y-66368404D01*
X127714880Y-66558880D01*
X127667261Y-66654119D01*
X127572023Y-66749357D01*
X127381547Y-66796976D01*
X127048214Y-66796976D01*
X126857738Y-66749357D01*
X126762500Y-66654119D01*
X126714880Y-66558880D01*
X126714880Y-65701738D02*
X127524404Y-65701738D01*
X127619642Y-65654119D01*
X127667261Y-65606500D01*
X127714880Y-65511261D01*
X127714880Y-65320785D01*
X127667261Y-65225547D01*
X127619642Y-65177928D01*
X127524404Y-65130309D01*
X126714880Y-65130309D01*
X127667261Y-64701738D02*
X127714880Y-64558880D01*
X127714880Y-64320785D01*
X127667261Y-64225547D01*
X127619642Y-64177928D01*
X127524404Y-64130309D01*
X127429166Y-64130309D01*
X127333928Y-64177928D01*
X127286309Y-64225547D01*
X127238690Y-64320785D01*
X127191071Y-64511261D01*
X127143452Y-64606500D01*
X127095833Y-64654119D01*
X127000595Y-64701738D01*
X126905357Y-64701738D01*
X126810119Y-64654119D01*
X126762500Y-64606500D01*
X126714880Y-64511261D01*
X126714880Y-64273166D01*
X126762500Y-64130309D01*
X127191071Y-63701738D02*
X127191071Y-63368404D01*
X127714880Y-63225547D02*
X127714880Y-63701738D01*
X126714880Y-63701738D01*
X126714880Y-63225547D01*
X127714880Y-62273166D02*
X127714880Y-62844595D01*
X127714880Y-62558880D02*
X126714880Y-62558880D01*
X126857738Y-62654119D01*
X126952976Y-62749357D01*
X127000595Y-62844595D01*
%TO.C,JP1*%
X100734880Y-77414333D02*
X101449166Y-77414333D01*
X101592023Y-77461952D01*
X101687261Y-77557190D01*
X101734880Y-77700047D01*
X101734880Y-77795285D01*
X101734880Y-76938142D02*
X100734880Y-76938142D01*
X100734880Y-76557190D01*
X100782500Y-76461952D01*
X100830119Y-76414333D01*
X100925357Y-76366714D01*
X101068214Y-76366714D01*
X101163452Y-76414333D01*
X101211071Y-76461952D01*
X101258690Y-76557190D01*
X101258690Y-76938142D01*
X101734880Y-75414333D02*
X101734880Y-75985761D01*
X101734880Y-75700047D02*
X100734880Y-75700047D01*
X100877738Y-75795285D01*
X100972976Y-75890523D01*
X101020595Y-75985761D01*
%TO.C,C2*%
X123785333Y-74525142D02*
X123737714Y-74572761D01*
X123594857Y-74620380D01*
X123499619Y-74620380D01*
X123356761Y-74572761D01*
X123261523Y-74477523D01*
X123213904Y-74382285D01*
X123166285Y-74191809D01*
X123166285Y-74048952D01*
X123213904Y-73858476D01*
X123261523Y-73763238D01*
X123356761Y-73668000D01*
X123499619Y-73620380D01*
X123594857Y-73620380D01*
X123737714Y-73668000D01*
X123785333Y-73715619D01*
X124166285Y-73715619D02*
X124213904Y-73668000D01*
X124309142Y-73620380D01*
X124547238Y-73620380D01*
X124642476Y-73668000D01*
X124690095Y-73715619D01*
X124737714Y-73810857D01*
X124737714Y-73906095D01*
X124690095Y-74048952D01*
X124118666Y-74620380D01*
X124737714Y-74620380D01*
X126071333Y-79954380D02*
X125499904Y-79954380D01*
X125785619Y-79954380D02*
X125785619Y-78954380D01*
X125690380Y-79097238D01*
X125595142Y-79192476D01*
X125499904Y-79240095D01*
X126928476Y-79287714D02*
X126928476Y-79954380D01*
X126499904Y-79287714D02*
X126499904Y-79811523D01*
X126547523Y-79906761D01*
X126642761Y-79954380D01*
X126785619Y-79954380D01*
X126880857Y-79906761D01*
X126928476Y-79859142D01*
%TO.C,U1*%
X123090030Y-64829978D02*
X123899554Y-64829978D01*
X123994792Y-64782359D01*
X124042411Y-64734740D01*
X124090030Y-64639502D01*
X124090030Y-64449026D01*
X124042411Y-64353788D01*
X123994792Y-64306169D01*
X123899554Y-64258550D01*
X123090030Y-64258550D01*
X124090030Y-63258550D02*
X124090030Y-63829978D01*
X124090030Y-63544264D02*
X123090030Y-63544264D01*
X123232888Y-63639502D01*
X123328126Y-63734740D01*
X123375745Y-63829978D01*
X122086666Y-67976190D02*
X122086666Y-67500000D01*
X122372380Y-68071428D02*
X121372380Y-67738095D01*
X122372380Y-67404761D01*
X122372380Y-67071428D02*
X121705714Y-67071428D01*
X121896190Y-67071428D02*
X121800952Y-67023809D01*
X121753333Y-66976190D01*
X121705714Y-66880952D01*
X121705714Y-66785714D01*
X122372380Y-66023809D02*
X121372380Y-66023809D01*
X122324761Y-66023809D02*
X122372380Y-66119047D01*
X122372380Y-66309523D01*
X122324761Y-66404761D01*
X122277142Y-66452380D01*
X122181904Y-66500000D01*
X121896190Y-66500000D01*
X121800952Y-66452380D01*
X121753333Y-66404761D01*
X121705714Y-66309523D01*
X121705714Y-66119047D01*
X121753333Y-66023809D01*
X121705714Y-65119047D02*
X122372380Y-65119047D01*
X121705714Y-65547619D02*
X122229523Y-65547619D01*
X122324761Y-65500000D01*
X122372380Y-65404761D01*
X122372380Y-65261904D01*
X122324761Y-65166666D01*
X122277142Y-65119047D01*
X122372380Y-64642857D02*
X121705714Y-64642857D01*
X121372380Y-64642857D02*
X121420000Y-64690476D01*
X121467619Y-64642857D01*
X121420000Y-64595238D01*
X121372380Y-64642857D01*
X121467619Y-64642857D01*
X121705714Y-64166666D02*
X122372380Y-64166666D01*
X121800952Y-64166666D02*
X121753333Y-64119047D01*
X121705714Y-64023809D01*
X121705714Y-63880952D01*
X121753333Y-63785714D01*
X121848571Y-63738095D01*
X122372380Y-63738095D01*
X122372380Y-63119047D02*
X122324761Y-63214285D01*
X122277142Y-63261904D01*
X122181904Y-63309523D01*
X121896190Y-63309523D01*
X121800952Y-63261904D01*
X121753333Y-63214285D01*
X121705714Y-63119047D01*
X121705714Y-62976190D01*
X121753333Y-62880952D01*
X121800952Y-62833333D01*
X121896190Y-62785714D01*
X122181904Y-62785714D01*
X122277142Y-62833333D01*
X122324761Y-62880952D01*
X122372380Y-62976190D01*
X122372380Y-63119047D01*
X122467619Y-62595238D02*
X122467619Y-61833333D01*
X122372380Y-61595238D02*
X121372380Y-61595238D01*
X122086666Y-61261904D01*
X121372380Y-60928571D01*
X122372380Y-60928571D01*
X122372380Y-60452380D02*
X121705714Y-60452380D01*
X121372380Y-60452380D02*
X121420000Y-60500000D01*
X121467619Y-60452380D01*
X121420000Y-60404761D01*
X121372380Y-60452380D01*
X121467619Y-60452380D01*
X121705714Y-59976190D02*
X122372380Y-59976190D01*
X121800952Y-59976190D02*
X121753333Y-59928571D01*
X121705714Y-59833333D01*
X121705714Y-59690476D01*
X121753333Y-59595238D01*
X121848571Y-59547619D01*
X122372380Y-59547619D01*
X122372380Y-59071428D02*
X121705714Y-59071428D01*
X121372380Y-59071428D02*
X121420000Y-59119047D01*
X121467619Y-59071428D01*
X121420000Y-59023809D01*
X121372380Y-59071428D01*
X121467619Y-59071428D01*
%TO.C,C5*%
X118705333Y-74525142D02*
X118657714Y-74572761D01*
X118514857Y-74620380D01*
X118419619Y-74620380D01*
X118276761Y-74572761D01*
X118181523Y-74477523D01*
X118133904Y-74382285D01*
X118086285Y-74191809D01*
X118086285Y-74048952D01*
X118133904Y-73858476D01*
X118181523Y-73763238D01*
X118276761Y-73668000D01*
X118419619Y-73620380D01*
X118514857Y-73620380D01*
X118657714Y-73668000D01*
X118705333Y-73715619D01*
X119610095Y-73620380D02*
X119133904Y-73620380D01*
X119086285Y-74096571D01*
X119133904Y-74048952D01*
X119229142Y-74001333D01*
X119467238Y-74001333D01*
X119562476Y-74048952D01*
X119610095Y-74096571D01*
X119657714Y-74191809D01*
X119657714Y-74429904D01*
X119610095Y-74525142D01*
X119562476Y-74572761D01*
X119467238Y-74620380D01*
X119229142Y-74620380D01*
X119133904Y-74572761D01*
X119086285Y-74525142D01*
X120991333Y-79954380D02*
X120419904Y-79954380D01*
X120705619Y-79954380D02*
X120705619Y-78954380D01*
X120610380Y-79097238D01*
X120515142Y-79192476D01*
X120419904Y-79240095D01*
X121848476Y-79287714D02*
X121848476Y-79954380D01*
X121419904Y-79287714D02*
X121419904Y-79811523D01*
X121467523Y-79906761D01*
X121562761Y-79954380D01*
X121705619Y-79954380D01*
X121800857Y-79906761D01*
X121848476Y-79859142D01*
%TO.C,RS232*%
X86177380Y-72255238D02*
X85701190Y-72588571D01*
X86177380Y-72826666D02*
X85177380Y-72826666D01*
X85177380Y-72445714D01*
X85225000Y-72350476D01*
X85272619Y-72302857D01*
X85367857Y-72255238D01*
X85510714Y-72255238D01*
X85605952Y-72302857D01*
X85653571Y-72350476D01*
X85701190Y-72445714D01*
X85701190Y-72826666D01*
X86129761Y-71874285D02*
X86177380Y-71731428D01*
X86177380Y-71493333D01*
X86129761Y-71398095D01*
X86082142Y-71350476D01*
X85986904Y-71302857D01*
X85891666Y-71302857D01*
X85796428Y-71350476D01*
X85748809Y-71398095D01*
X85701190Y-71493333D01*
X85653571Y-71683809D01*
X85605952Y-71779047D01*
X85558333Y-71826666D01*
X85463095Y-71874285D01*
X85367857Y-71874285D01*
X85272619Y-71826666D01*
X85225000Y-71779047D01*
X85177380Y-71683809D01*
X85177380Y-71445714D01*
X85225000Y-71302857D01*
X85272619Y-70921904D02*
X85225000Y-70874285D01*
X85177380Y-70779047D01*
X85177380Y-70540952D01*
X85225000Y-70445714D01*
X85272619Y-70398095D01*
X85367857Y-70350476D01*
X85463095Y-70350476D01*
X85605952Y-70398095D01*
X86177380Y-70969523D01*
X86177380Y-70350476D01*
X85177380Y-70017142D02*
X85177380Y-69398095D01*
X85558333Y-69731428D01*
X85558333Y-69588571D01*
X85605952Y-69493333D01*
X85653571Y-69445714D01*
X85748809Y-69398095D01*
X85986904Y-69398095D01*
X86082142Y-69445714D01*
X86129761Y-69493333D01*
X86177380Y-69588571D01*
X86177380Y-69874285D01*
X86129761Y-69969523D01*
X86082142Y-70017142D01*
X85272619Y-69017142D02*
X85225000Y-68969523D01*
X85177380Y-68874285D01*
X85177380Y-68636190D01*
X85225000Y-68540952D01*
X85272619Y-68493333D01*
X85367857Y-68445714D01*
X85463095Y-68445714D01*
X85605952Y-68493333D01*
X86177380Y-69064761D01*
X86177380Y-68445714D01*
%TO.C,U2*%
X100544380Y-64896904D02*
X101353904Y-64896904D01*
X101449142Y-64849285D01*
X101496761Y-64801666D01*
X101544380Y-64706428D01*
X101544380Y-64515952D01*
X101496761Y-64420714D01*
X101449142Y-64373095D01*
X101353904Y-64325476D01*
X100544380Y-64325476D01*
X100639619Y-63896904D02*
X100592000Y-63849285D01*
X100544380Y-63754047D01*
X100544380Y-63515952D01*
X100592000Y-63420714D01*
X100639619Y-63373095D01*
X100734857Y-63325476D01*
X100830095Y-63325476D01*
X100972952Y-63373095D01*
X101544380Y-63944523D01*
X101544380Y-63325476D01*
X106426333Y-64333380D02*
X106426333Y-63333380D01*
X106759666Y-64047666D01*
X107093000Y-63333380D01*
X107093000Y-64333380D01*
X107521571Y-64047666D02*
X107997761Y-64047666D01*
X107426333Y-64333380D02*
X107759666Y-63333380D01*
X108093000Y-64333380D01*
X108331095Y-63333380D02*
X108997761Y-64333380D01*
X108997761Y-63333380D02*
X108331095Y-64333380D01*
X109331095Y-63428619D02*
X109378714Y-63381000D01*
X109473952Y-63333380D01*
X109712047Y-63333380D01*
X109807285Y-63381000D01*
X109854904Y-63428619D01*
X109902523Y-63523857D01*
X109902523Y-63619095D01*
X109854904Y-63761952D01*
X109283476Y-64333380D01*
X109902523Y-64333380D01*
X110235857Y-63333380D02*
X110854904Y-63333380D01*
X110521571Y-63714333D01*
X110664428Y-63714333D01*
X110759666Y-63761952D01*
X110807285Y-63809571D01*
X110854904Y-63904809D01*
X110854904Y-64142904D01*
X110807285Y-64238142D01*
X110759666Y-64285761D01*
X110664428Y-64333380D01*
X110378714Y-64333380D01*
X110283476Y-64285761D01*
X110235857Y-64238142D01*
X111235857Y-63428619D02*
X111283476Y-63381000D01*
X111378714Y-63333380D01*
X111616809Y-63333380D01*
X111712047Y-63381000D01*
X111759666Y-63428619D01*
X111807285Y-63523857D01*
X111807285Y-63619095D01*
X111759666Y-63761952D01*
X111188238Y-64333380D01*
X111807285Y-64333380D01*
%TO.C,PWR1*%
X135096476Y-75001380D02*
X135096476Y-74001380D01*
X135477428Y-74001380D01*
X135572666Y-74049000D01*
X135620285Y-74096619D01*
X135667904Y-74191857D01*
X135667904Y-74334714D01*
X135620285Y-74429952D01*
X135572666Y-74477571D01*
X135477428Y-74525190D01*
X135096476Y-74525190D01*
X136001238Y-74001380D02*
X136239333Y-75001380D01*
X136429809Y-74287095D01*
X136620285Y-75001380D01*
X136858380Y-74001380D01*
X137810761Y-75001380D02*
X137477428Y-74525190D01*
X137239333Y-75001380D02*
X137239333Y-74001380D01*
X137620285Y-74001380D01*
X137715523Y-74049000D01*
X137763142Y-74096619D01*
X137810761Y-74191857D01*
X137810761Y-74334714D01*
X137763142Y-74429952D01*
X137715523Y-74477571D01*
X137620285Y-74525190D01*
X137239333Y-74525190D01*
X138763142Y-75001380D02*
X138191714Y-75001380D01*
X138477428Y-75001380D02*
X138477428Y-74001380D01*
X138382190Y-74144238D01*
X138286952Y-74239476D01*
X138191714Y-74287095D01*
%TO.C,C4*%
X103973333Y-74525142D02*
X103925714Y-74572761D01*
X103782857Y-74620380D01*
X103687619Y-74620380D01*
X103544761Y-74572761D01*
X103449523Y-74477523D01*
X103401904Y-74382285D01*
X103354285Y-74191809D01*
X103354285Y-74048952D01*
X103401904Y-73858476D01*
X103449523Y-73763238D01*
X103544761Y-73668000D01*
X103687619Y-73620380D01*
X103782857Y-73620380D01*
X103925714Y-73668000D01*
X103973333Y-73715619D01*
X104830476Y-73953714D02*
X104830476Y-74620380D01*
X104592380Y-73572761D02*
X104354285Y-74287047D01*
X104973333Y-74287047D01*
X106259333Y-79954380D02*
X105687904Y-79954380D01*
X105973619Y-79954380D02*
X105973619Y-78954380D01*
X105878380Y-79097238D01*
X105783142Y-79192476D01*
X105687904Y-79240095D01*
X107116476Y-79287714D02*
X107116476Y-79954380D01*
X106687904Y-79287714D02*
X106687904Y-79811523D01*
X106735523Y-79906761D01*
X106830761Y-79954380D01*
X106973619Y-79954380D01*
X107068857Y-79906761D01*
X107116476Y-79859142D01*
%TO.C,C3*%
X113879333Y-74525142D02*
X113831714Y-74572761D01*
X113688857Y-74620380D01*
X113593619Y-74620380D01*
X113450761Y-74572761D01*
X113355523Y-74477523D01*
X113307904Y-74382285D01*
X113260285Y-74191809D01*
X113260285Y-74048952D01*
X113307904Y-73858476D01*
X113355523Y-73763238D01*
X113450761Y-73668000D01*
X113593619Y-73620380D01*
X113688857Y-73620380D01*
X113831714Y-73668000D01*
X113879333Y-73715619D01*
X114212666Y-73620380D02*
X114831714Y-73620380D01*
X114498380Y-74001333D01*
X114641238Y-74001333D01*
X114736476Y-74048952D01*
X114784095Y-74096571D01*
X114831714Y-74191809D01*
X114831714Y-74429904D01*
X114784095Y-74525142D01*
X114736476Y-74572761D01*
X114641238Y-74620380D01*
X114355523Y-74620380D01*
X114260285Y-74572761D01*
X114212666Y-74525142D01*
X116165333Y-79954380D02*
X115593904Y-79954380D01*
X115879619Y-79954380D02*
X115879619Y-78954380D01*
X115784380Y-79097238D01*
X115689142Y-79192476D01*
X115593904Y-79240095D01*
X117022476Y-79287714D02*
X117022476Y-79954380D01*
X116593904Y-79287714D02*
X116593904Y-79811523D01*
X116641523Y-79906761D01*
X116736761Y-79954380D01*
X116879619Y-79954380D01*
X116974857Y-79906761D01*
X117022476Y-79859142D01*
%TO.C,C1*%
X109053333Y-74525142D02*
X109005714Y-74572761D01*
X108862857Y-74620380D01*
X108767619Y-74620380D01*
X108624761Y-74572761D01*
X108529523Y-74477523D01*
X108481904Y-74382285D01*
X108434285Y-74191809D01*
X108434285Y-74048952D01*
X108481904Y-73858476D01*
X108529523Y-73763238D01*
X108624761Y-73668000D01*
X108767619Y-73620380D01*
X108862857Y-73620380D01*
X109005714Y-73668000D01*
X109053333Y-73715619D01*
X110005714Y-74620380D02*
X109434285Y-74620380D01*
X109720000Y-74620380D02*
X109720000Y-73620380D01*
X109624761Y-73763238D01*
X109529523Y-73858476D01*
X109434285Y-73906095D01*
X111085333Y-79954380D02*
X110513904Y-79954380D01*
X110799619Y-79954380D02*
X110799619Y-78954380D01*
X110704380Y-79097238D01*
X110609142Y-79192476D01*
X110513904Y-79240095D01*
X111942476Y-79287714D02*
X111942476Y-79954380D01*
X111513904Y-79287714D02*
X111513904Y-79811523D01*
X111561523Y-79906761D01*
X111656761Y-79954380D01*
X111799619Y-79954380D01*
X111894857Y-79906761D01*
X111942476Y-79859142D01*
%TD*%
M02*
