%TF.GenerationSoftware,KiCad,Pcbnew,5.1.8*%
%TF.CreationDate,2020-12-08T11:40:13+01:00*%
%TF.ProjectId,ps2-serial-mouse-adapter,7073322d-7365-4726-9961-6c2d6d6f7573,0.6*%
%TF.SameCoordinates,Original*%
%TF.FileFunction,Copper,L2,Bot*%
%TF.FilePolarity,Positive*%
%FSLAX46Y46*%
G04 Gerber Fmt 4.6, Leading zero omitted, Abs format (unit mm)*
G04 Created by KiCad (PCBNEW 5.1.8) date 2020-12-08 11:40:13*
%MOMM*%
%LPD*%
G01*
G04 APERTURE LIST*
%TA.AperFunction,ComponentPad*%
%ADD10C,3.300000*%
%TD*%
%TA.AperFunction,ComponentPad*%
%ADD11C,1.700000*%
%TD*%
%TA.AperFunction,ComponentPad*%
%ADD12O,1.700000X1.700000*%
%TD*%
%TA.AperFunction,ComponentPad*%
%ADD13R,1.700000X1.700000*%
%TD*%
%TA.AperFunction,ComponentPad*%
%ADD14C,1.200000*%
%TD*%
%TA.AperFunction,ComponentPad*%
%ADD15R,1.200000X1.200000*%
%TD*%
%TA.AperFunction,ComponentPad*%
%ADD16O,1.600000X1.600000*%
%TD*%
%TA.AperFunction,ComponentPad*%
%ADD17R,1.600000X1.600000*%
%TD*%
%TA.AperFunction,ComponentPad*%
%ADD18C,4.000000*%
%TD*%
%TA.AperFunction,ComponentPad*%
%ADD19C,1.600000*%
%TD*%
%TA.AperFunction,ComponentPad*%
%ADD20O,2.500000X1.400000*%
%TD*%
%TA.AperFunction,ComponentPad*%
%ADD21C,1.100000*%
%TD*%
%TA.AperFunction,Conductor*%
%ADD22C,0.400000*%
%TD*%
%TA.AperFunction,Conductor*%
%ADD23C,0.450000*%
%TD*%
%TA.AperFunction,Conductor*%
%ADD24C,0.254000*%
%TD*%
%TA.AperFunction,Conductor*%
%ADD25C,0.100000*%
%TD*%
G04 APERTURE END LIST*
D10*
%TO.P,MOUSE1,7*%
%TO.N,GND*%
X136042500Y-57856500D03*
X136042500Y-71556500D03*
X136842500Y-64706500D03*
D11*
%TO.P,MOUSE1,1*%
%TO.N,DATA*%
X132762500Y-63406500D03*
%TO.P,MOUSE1,2*%
%TO.N,N/C*%
X132762500Y-66006500D03*
%TO.P,MOUSE1,3*%
%TO.N,GND*%
X132762500Y-61306500D03*
%TO.P,MOUSE1,5*%
%TO.N,CLK*%
X130262500Y-61306500D03*
%TO.P,MOUSE1,4*%
%TO.N,Net-(C2-Pad1)*%
X132762500Y-68106500D03*
%TO.P,MOUSE1,6*%
%TO.N,N/C*%
X130262500Y-68106500D03*
%TD*%
D12*
%TO.P,JP1,4*%
%TO.N,GND*%
X98996500Y-77724000D03*
%TO.P,JP1,3*%
%TO.N,Net-(JP1-Pad3)*%
X98996500Y-75184000D03*
%TO.P,JP1,2*%
%TO.N,GND*%
X96456500Y-77724000D03*
D13*
%TO.P,JP1,1*%
%TO.N,Net-(JP1-Pad1)*%
X96456500Y-75184000D03*
%TD*%
D14*
%TO.P,C2,2*%
%TO.N,GND*%
X124690000Y-77216000D03*
D15*
%TO.P,C2,1*%
%TO.N,Net-(C2-Pad1)*%
X123190000Y-77216000D03*
%TD*%
D16*
%TO.P,U1,24*%
%TO.N,N/C*%
X124460000Y-71755000D03*
%TO.P,U1,12*%
X96520000Y-56515000D03*
%TO.P,U1,23*%
%TO.N,GND*%
X121920000Y-71755000D03*
%TO.P,U1,11*%
%TO.N,N/C*%
X99060000Y-56515000D03*
%TO.P,U1,22*%
X119380000Y-71755000D03*
%TO.P,U1,10*%
X101600000Y-56515000D03*
%TO.P,U1,21*%
%TO.N,Net-(C2-Pad1)*%
X116840000Y-71755000D03*
%TO.P,U1,9*%
%TO.N,N/C*%
X104140000Y-56515000D03*
%TO.P,U1,20*%
%TO.N,DATA*%
X114300000Y-71755000D03*
%TO.P,U1,8*%
%TO.N,DTS*%
X106680000Y-56515000D03*
%TO.P,U1,19*%
%TO.N,N/C*%
X111760000Y-71755000D03*
%TO.P,U1,7*%
%TO.N,TX*%
X109220000Y-56515000D03*
%TO.P,U1,18*%
%TO.N,N/C*%
X109220000Y-71755000D03*
%TO.P,U1,6*%
%TO.N,RTS*%
X111760000Y-56515000D03*
%TO.P,U1,17*%
%TO.N,N/C*%
X106680000Y-71755000D03*
%TO.P,U1,5*%
%TO.N,CLK*%
X114300000Y-56515000D03*
%TO.P,U1,16*%
%TO.N,N/C*%
X104140000Y-71755000D03*
%TO.P,U1,4*%
%TO.N,GND*%
X116840000Y-56515000D03*
%TO.P,U1,15*%
%TO.N,Net-(JP1-Pad3)*%
X101600000Y-71755000D03*
%TO.P,U1,3*%
%TO.N,N/C*%
X119380000Y-56515000D03*
%TO.P,U1,14*%
%TO.N,Net-(JP1-Pad1)*%
X99060000Y-71755000D03*
%TO.P,U1,2*%
%TO.N,N/C*%
X121920000Y-56515000D03*
%TO.P,U1,13*%
X96520000Y-71755000D03*
D17*
%TO.P,U1,1*%
X124460000Y-56515000D03*
%TD*%
D14*
%TO.P,C5,2*%
%TO.N,Net-(C5-Pad2)*%
X119610000Y-77216000D03*
D15*
%TO.P,C5,1*%
%TO.N,GND*%
X118110000Y-77216000D03*
%TD*%
D18*
%TO.P,RS232,0*%
%TO.N,GND*%
X90655000Y-83160000D03*
X90655000Y-58160000D03*
D19*
%TO.P,RS232,9*%
%TO.N,N/C*%
X89235000Y-66505000D03*
%TO.P,RS232,8*%
X89235000Y-69275000D03*
%TO.P,RS232,7*%
%TO.N,Net-(RS232-Pad7)*%
X89235000Y-72045000D03*
%TO.P,RS232,6*%
%TO.N,N/C*%
X89235000Y-74815000D03*
%TO.P,RS232,5*%
%TO.N,GND*%
X92075000Y-65120000D03*
%TO.P,RS232,4*%
%TO.N,Net-(RS232-Pad4)*%
X92075000Y-67890000D03*
%TO.P,RS232,3*%
%TO.N,N/C*%
X92075000Y-70660000D03*
%TO.P,RS232,2*%
%TO.N,Net-(RS232-Pad2)*%
X92075000Y-73430000D03*
D17*
%TO.P,RS232,1*%
%TO.N,N/C*%
X92075000Y-76200000D03*
%TD*%
D16*
%TO.P,U2,16*%
%TO.N,Net-(C2-Pad1)*%
X100330000Y-60325000D03*
%TO.P,U2,8*%
%TO.N,Net-(RS232-Pad7)*%
X118110000Y-67945000D03*
%TO.P,U2,15*%
%TO.N,GND*%
X102870000Y-60325000D03*
%TO.P,U2,7*%
%TO.N,Net-(RS232-Pad2)*%
X115570000Y-67945000D03*
%TO.P,U2,14*%
%TO.N,N/C*%
X105410000Y-60325000D03*
%TO.P,U2,6*%
%TO.N,Net-(C5-Pad2)*%
X113030000Y-67945000D03*
%TO.P,U2,13*%
%TO.N,Net-(RS232-Pad4)*%
X107950000Y-60325000D03*
%TO.P,U2,5*%
%TO.N,Net-(C3-Pad2)*%
X110490000Y-67945000D03*
%TO.P,U2,12*%
%TO.N,DTS*%
X110490000Y-60325000D03*
%TO.P,U2,4*%
%TO.N,Net-(C3-Pad1)*%
X107950000Y-67945000D03*
%TO.P,U2,11*%
%TO.N,N/C*%
X113030000Y-60325000D03*
%TO.P,U2,3*%
%TO.N,Net-(C1-Pad2)*%
X105410000Y-67945000D03*
%TO.P,U2,10*%
%TO.N,TX*%
X115570000Y-60325000D03*
%TO.P,U2,2*%
%TO.N,Net-(C4-Pad1)*%
X102870000Y-67945000D03*
%TO.P,U2,9*%
%TO.N,RTS*%
X118110000Y-60325000D03*
D17*
%TO.P,U2,1*%
%TO.N,Net-(C1-Pad1)*%
X100330000Y-67945000D03*
%TD*%
D20*
%TO.P,PWR1,6*%
%TO.N,GND*%
X138809500Y-76310000D03*
X138809500Y-83710000D03*
X134059500Y-83710000D03*
X134059500Y-76310000D03*
D21*
%TO.P,PWR1,4*%
%TO.N,N/C*%
X134359500Y-79210000D03*
%TO.P,PWR1,2*%
X134359500Y-80810000D03*
%TO.P,PWR1,1*%
%TO.N,Net-(C2-Pad1)*%
X133159500Y-81610000D03*
%TO.P,PWR1,5*%
%TO.N,GND*%
X133159500Y-78410000D03*
%TO.P,PWR1,3*%
%TO.N,N/C*%
X133159500Y-80010000D03*
%TD*%
D14*
%TO.P,C4,2*%
%TO.N,GND*%
X105132000Y-77216000D03*
D15*
%TO.P,C4,1*%
%TO.N,Net-(C4-Pad1)*%
X103632000Y-77216000D03*
%TD*%
D14*
%TO.P,C3,2*%
%TO.N,Net-(C3-Pad2)*%
X114784000Y-77216000D03*
D15*
%TO.P,C3,1*%
%TO.N,Net-(C3-Pad1)*%
X113284000Y-77216000D03*
%TD*%
D14*
%TO.P,C1,2*%
%TO.N,Net-(C1-Pad2)*%
X109958000Y-77216000D03*
D15*
%TO.P,C1,1*%
%TO.N,Net-(C1-Pad1)*%
X108458000Y-77216000D03*
%TD*%
D22*
%TO.N,Net-(C1-Pad2)*%
X109958000Y-76367472D02*
X109958000Y-77216000D01*
X107950000Y-74359472D02*
X109958000Y-76367472D01*
X107950000Y-70485000D02*
X107950000Y-74359472D01*
X105410000Y-67945000D02*
X107950000Y-70485000D01*
%TO.N,Net-(C1-Pad1)*%
X105410000Y-74168000D02*
X108458000Y-77216000D01*
X105410000Y-70866000D02*
X105410000Y-74168000D01*
X104209999Y-67508997D02*
X104209999Y-69665999D01*
X103446001Y-66744999D02*
X104209999Y-67508997D01*
X101530001Y-66744999D02*
X103446001Y-66744999D01*
X104209999Y-69665999D02*
X105410000Y-70866000D01*
X100330000Y-67945000D02*
X101530001Y-66744999D01*
D23*
%TO.N,Net-(C2-Pad1)*%
X123190000Y-78266000D02*
X123190000Y-77216000D01*
X126534000Y-81610000D02*
X123190000Y-78266000D01*
X133159500Y-81610000D02*
X126534000Y-81610000D01*
X118237000Y-73152000D02*
X116840000Y-71755000D01*
X122301000Y-77216000D02*
X118237000Y-73152000D01*
X123190000Y-77216000D02*
X122301000Y-77216000D01*
X130765000Y-70104000D02*
X132762500Y-68106500D01*
X118364000Y-70104000D02*
X130765000Y-70104000D01*
X116840000Y-71628000D02*
X118364000Y-70104000D01*
X116840000Y-71755000D02*
X116840000Y-71628000D01*
X104394000Y-64389000D02*
X100330000Y-60325000D01*
X129045000Y-64389000D02*
X104394000Y-64389000D01*
X132762500Y-68106500D02*
X129045000Y-64389000D01*
D22*
%TO.N,Net-(C3-Pad2)*%
X114784000Y-76367472D02*
X114784000Y-77216000D01*
X113030000Y-74613472D02*
X114784000Y-76367472D01*
X113030000Y-70485000D02*
X113030000Y-74613472D01*
X110490000Y-67945000D02*
X113030000Y-70485000D01*
%TO.N,Net-(C3-Pad1)*%
X110490000Y-74422000D02*
X113284000Y-77216000D01*
X110490000Y-70485000D02*
X110490000Y-74422000D01*
X107950000Y-67945000D02*
X110490000Y-70485000D01*
%TO.N,Net-(C4-Pad1)*%
X102870000Y-76454000D02*
X103632000Y-77216000D01*
X102870000Y-67945000D02*
X102870000Y-76454000D01*
%TO.N,Net-(C5-Pad2)*%
X119610000Y-76684000D02*
X119610000Y-77216000D01*
X115500001Y-72574001D02*
X119610000Y-76684000D01*
X115500001Y-70415001D02*
X115500001Y-72574001D01*
X113030000Y-67945000D02*
X115500001Y-70415001D01*
%TD*%
D24*
%TO.N,GND*%
X140943649Y-85509500D02*
X91853750Y-85509500D01*
X92106772Y-85374258D01*
X92322894Y-85007499D01*
X90655000Y-83339605D01*
X88987106Y-85007499D01*
X89203228Y-85374258D01*
X89461640Y-85509500D01*
X81940000Y-85509500D01*
X81940000Y-83183071D01*
X88007352Y-83183071D01*
X88062727Y-83699159D01*
X88217721Y-84194526D01*
X88440742Y-84611772D01*
X88807501Y-84827894D01*
X90475395Y-83160000D01*
X90834605Y-83160000D01*
X92502499Y-84827894D01*
X92869258Y-84611772D01*
X93109938Y-84151895D01*
X93141840Y-84043329D01*
X132216784Y-84043329D01*
X132227520Y-84103550D01*
X132328931Y-84346090D01*
X132475710Y-84564185D01*
X132662217Y-84749455D01*
X132881285Y-84894779D01*
X133124495Y-84994572D01*
X133382500Y-85045000D01*
X133932500Y-85045000D01*
X133932500Y-83837000D01*
X134186500Y-83837000D01*
X134186500Y-85045000D01*
X134736500Y-85045000D01*
X134994505Y-84994572D01*
X135237715Y-84894779D01*
X135456783Y-84749455D01*
X135643290Y-84564185D01*
X135790069Y-84346090D01*
X135891480Y-84103550D01*
X135902216Y-84043329D01*
X136966784Y-84043329D01*
X136977520Y-84103550D01*
X137078931Y-84346090D01*
X137225710Y-84564185D01*
X137412217Y-84749455D01*
X137631285Y-84894779D01*
X137874495Y-84994572D01*
X138132500Y-85045000D01*
X138682500Y-85045000D01*
X138682500Y-83837000D01*
X138936500Y-83837000D01*
X138936500Y-85045000D01*
X139486500Y-85045000D01*
X139744505Y-84994572D01*
X139987715Y-84894779D01*
X140206783Y-84749455D01*
X140393290Y-84564185D01*
X140540069Y-84346090D01*
X140641480Y-84103550D01*
X140652216Y-84043329D01*
X140528874Y-83837000D01*
X138936500Y-83837000D01*
X138682500Y-83837000D01*
X137090126Y-83837000D01*
X136966784Y-84043329D01*
X135902216Y-84043329D01*
X135778874Y-83837000D01*
X134186500Y-83837000D01*
X133932500Y-83837000D01*
X132340126Y-83837000D01*
X132216784Y-84043329D01*
X93141840Y-84043329D01*
X93256275Y-83653902D01*
X93302648Y-83136929D01*
X93247273Y-82620841D01*
X93092279Y-82125474D01*
X92869258Y-81708228D01*
X92502499Y-81492106D01*
X90834605Y-83160000D01*
X90475395Y-83160000D01*
X88807501Y-81492106D01*
X88440742Y-81708228D01*
X88200062Y-82168105D01*
X88053725Y-82666098D01*
X88007352Y-83183071D01*
X81940000Y-83183071D01*
X81940000Y-81312501D01*
X88987106Y-81312501D01*
X90655000Y-82980395D01*
X92322894Y-81312501D01*
X92106772Y-80945742D01*
X91646895Y-80705062D01*
X91148902Y-80558725D01*
X90631929Y-80512352D01*
X90115841Y-80567727D01*
X89620474Y-80722721D01*
X89203228Y-80945742D01*
X88987106Y-81312501D01*
X81940000Y-81312501D01*
X81940000Y-78080891D01*
X95015019Y-78080891D01*
X95112343Y-78355252D01*
X95261322Y-78605355D01*
X95456231Y-78821588D01*
X95689580Y-78995641D01*
X95952401Y-79120825D01*
X96099610Y-79165476D01*
X96329500Y-79044155D01*
X96329500Y-77851000D01*
X96583500Y-77851000D01*
X96583500Y-79044155D01*
X96813390Y-79165476D01*
X96960599Y-79120825D01*
X97223420Y-78995641D01*
X97456769Y-78821588D01*
X97651678Y-78605355D01*
X97726500Y-78479745D01*
X97801322Y-78605355D01*
X97996231Y-78821588D01*
X98229580Y-78995641D01*
X98492401Y-79120825D01*
X98639610Y-79165476D01*
X98869500Y-79044155D01*
X98869500Y-77851000D01*
X99123500Y-77851000D01*
X99123500Y-79044155D01*
X99353390Y-79165476D01*
X99500599Y-79120825D01*
X99763420Y-78995641D01*
X99996769Y-78821588D01*
X100191678Y-78605355D01*
X100340657Y-78355252D01*
X100437981Y-78080891D01*
X100317314Y-77851000D01*
X99123500Y-77851000D01*
X98869500Y-77851000D01*
X96583500Y-77851000D01*
X96329500Y-77851000D01*
X95135686Y-77851000D01*
X95015019Y-78080891D01*
X81940000Y-78080891D01*
X81940000Y-66363665D01*
X87800000Y-66363665D01*
X87800000Y-66646335D01*
X87855147Y-66923574D01*
X87963320Y-67184727D01*
X88120363Y-67419759D01*
X88320241Y-67619637D01*
X88555273Y-67776680D01*
X88816426Y-67884853D01*
X88842301Y-67890000D01*
X88816426Y-67895147D01*
X88555273Y-68003320D01*
X88320241Y-68160363D01*
X88120363Y-68360241D01*
X87963320Y-68595273D01*
X87855147Y-68856426D01*
X87800000Y-69133665D01*
X87800000Y-69416335D01*
X87855147Y-69693574D01*
X87963320Y-69954727D01*
X88120363Y-70189759D01*
X88320241Y-70389637D01*
X88555273Y-70546680D01*
X88816426Y-70654853D01*
X88842301Y-70660000D01*
X88816426Y-70665147D01*
X88555273Y-70773320D01*
X88320241Y-70930363D01*
X88120363Y-71130241D01*
X87963320Y-71365273D01*
X87855147Y-71626426D01*
X87800000Y-71903665D01*
X87800000Y-72186335D01*
X87855147Y-72463574D01*
X87963320Y-72724727D01*
X88120363Y-72959759D01*
X88320241Y-73159637D01*
X88555273Y-73316680D01*
X88816426Y-73424853D01*
X88842301Y-73430000D01*
X88816426Y-73435147D01*
X88555273Y-73543320D01*
X88320241Y-73700363D01*
X88120363Y-73900241D01*
X87963320Y-74135273D01*
X87855147Y-74396426D01*
X87800000Y-74673665D01*
X87800000Y-74956335D01*
X87855147Y-75233574D01*
X87963320Y-75494727D01*
X88120363Y-75729759D01*
X88320241Y-75929637D01*
X88555273Y-76086680D01*
X88816426Y-76194853D01*
X89093665Y-76250000D01*
X89376335Y-76250000D01*
X89653574Y-76194853D01*
X89914727Y-76086680D01*
X90149759Y-75929637D01*
X90349637Y-75729759D01*
X90506680Y-75494727D01*
X90545917Y-75400000D01*
X90636928Y-75400000D01*
X90636928Y-77000000D01*
X90649188Y-77124482D01*
X90685498Y-77244180D01*
X90744463Y-77354494D01*
X90823815Y-77451185D01*
X90920506Y-77530537D01*
X91030820Y-77589502D01*
X91150518Y-77625812D01*
X91275000Y-77638072D01*
X92875000Y-77638072D01*
X92999482Y-77625812D01*
X93119180Y-77589502D01*
X93229494Y-77530537D01*
X93326185Y-77451185D01*
X93405537Y-77354494D01*
X93464502Y-77244180D01*
X93500812Y-77124482D01*
X93513072Y-77000000D01*
X93513072Y-75400000D01*
X93500812Y-75275518D01*
X93464502Y-75155820D01*
X93405537Y-75045506D01*
X93326185Y-74948815D01*
X93229494Y-74869463D01*
X93119180Y-74810498D01*
X92999482Y-74774188D01*
X92875000Y-74761928D01*
X92609275Y-74761928D01*
X92754727Y-74701680D01*
X92989759Y-74544637D01*
X93189637Y-74344759D01*
X93196825Y-74334000D01*
X94968428Y-74334000D01*
X94968428Y-76034000D01*
X94980688Y-76158482D01*
X95016998Y-76278180D01*
X95075963Y-76388494D01*
X95155315Y-76485185D01*
X95252006Y-76564537D01*
X95362320Y-76623502D01*
X95438126Y-76646498D01*
X95261322Y-76842645D01*
X95112343Y-77092748D01*
X95015019Y-77367109D01*
X95135686Y-77597000D01*
X96329500Y-77597000D01*
X96329500Y-77577000D01*
X96583500Y-77577000D01*
X96583500Y-77597000D01*
X98869500Y-77597000D01*
X98869500Y-77577000D01*
X99123500Y-77577000D01*
X99123500Y-77597000D01*
X100317314Y-77597000D01*
X100437981Y-77367109D01*
X100340657Y-77092748D01*
X100191678Y-76842645D01*
X99996769Y-76626412D01*
X99767094Y-76455100D01*
X99943132Y-76337475D01*
X100149975Y-76130632D01*
X100312490Y-75887411D01*
X100424432Y-75617158D01*
X100481500Y-75330260D01*
X100481500Y-75037740D01*
X100424432Y-74750842D01*
X100312490Y-74480589D01*
X100149975Y-74237368D01*
X99943132Y-74030525D01*
X99699911Y-73868010D01*
X99429658Y-73756068D01*
X99142760Y-73699000D01*
X98850240Y-73699000D01*
X98563342Y-73756068D01*
X98293089Y-73868010D01*
X98049868Y-74030525D01*
X97918013Y-74162380D01*
X97896002Y-74089820D01*
X97837037Y-73979506D01*
X97757685Y-73882815D01*
X97660994Y-73803463D01*
X97550680Y-73744498D01*
X97430982Y-73708188D01*
X97306500Y-73695928D01*
X95606500Y-73695928D01*
X95482018Y-73708188D01*
X95362320Y-73744498D01*
X95252006Y-73803463D01*
X95155315Y-73882815D01*
X95075963Y-73979506D01*
X95016998Y-74089820D01*
X94980688Y-74209518D01*
X94968428Y-74334000D01*
X93196825Y-74334000D01*
X93346680Y-74109727D01*
X93454853Y-73848574D01*
X93510000Y-73571335D01*
X93510000Y-73288665D01*
X93454853Y-73011426D01*
X93346680Y-72750273D01*
X93189637Y-72515241D01*
X92989759Y-72315363D01*
X92754727Y-72158320D01*
X92493574Y-72050147D01*
X92467699Y-72045000D01*
X92493574Y-72039853D01*
X92754727Y-71931680D01*
X92989759Y-71774637D01*
X93150731Y-71613665D01*
X95085000Y-71613665D01*
X95085000Y-71896335D01*
X95140147Y-72173574D01*
X95248320Y-72434727D01*
X95405363Y-72669759D01*
X95605241Y-72869637D01*
X95840273Y-73026680D01*
X96101426Y-73134853D01*
X96378665Y-73190000D01*
X96661335Y-73190000D01*
X96938574Y-73134853D01*
X97199727Y-73026680D01*
X97434759Y-72869637D01*
X97634637Y-72669759D01*
X97790000Y-72437241D01*
X97945363Y-72669759D01*
X98145241Y-72869637D01*
X98380273Y-73026680D01*
X98641426Y-73134853D01*
X98918665Y-73190000D01*
X99201335Y-73190000D01*
X99478574Y-73134853D01*
X99739727Y-73026680D01*
X99974759Y-72869637D01*
X100174637Y-72669759D01*
X100330000Y-72437241D01*
X100485363Y-72669759D01*
X100685241Y-72869637D01*
X100920273Y-73026680D01*
X101181426Y-73134853D01*
X101458665Y-73190000D01*
X101741335Y-73190000D01*
X102018574Y-73134853D01*
X102035001Y-73128049D01*
X102035001Y-76412971D01*
X102030960Y-76454000D01*
X102047082Y-76617688D01*
X102094828Y-76775086D01*
X102160234Y-76897451D01*
X102172365Y-76920146D01*
X102276710Y-77047291D01*
X102308574Y-77073441D01*
X102393928Y-77158795D01*
X102393928Y-77816000D01*
X102406188Y-77940482D01*
X102442498Y-78060180D01*
X102501463Y-78170494D01*
X102580815Y-78267185D01*
X102677506Y-78346537D01*
X102787820Y-78405502D01*
X102907518Y-78441812D01*
X103032000Y-78454072D01*
X104232000Y-78454072D01*
X104356482Y-78441812D01*
X104476180Y-78405502D01*
X104586494Y-78346537D01*
X104603681Y-78332432D01*
X104730516Y-78390237D01*
X104967313Y-78446000D01*
X105210438Y-78454495D01*
X105450549Y-78415395D01*
X105678418Y-78330202D01*
X105754852Y-78289348D01*
X105802159Y-78065764D01*
X105132000Y-77395605D01*
X105117858Y-77409748D01*
X104938253Y-77230143D01*
X104952395Y-77216000D01*
X105311605Y-77216000D01*
X105981764Y-77886159D01*
X106205348Y-77838852D01*
X106306237Y-77617484D01*
X106362000Y-77380687D01*
X106370495Y-77137562D01*
X106331395Y-76897451D01*
X106246202Y-76669582D01*
X106205348Y-76593148D01*
X105981764Y-76545841D01*
X105311605Y-77216000D01*
X104952395Y-77216000D01*
X104938253Y-77201858D01*
X105117858Y-77022253D01*
X105132000Y-77036395D01*
X105802159Y-76366236D01*
X105754852Y-76142652D01*
X105533484Y-76041763D01*
X105296687Y-75986000D01*
X105053562Y-75977505D01*
X104813451Y-76016605D01*
X104599883Y-76096451D01*
X104586494Y-76085463D01*
X104476180Y-76026498D01*
X104356482Y-75990188D01*
X104232000Y-75977928D01*
X103705000Y-75977928D01*
X103705000Y-73128049D01*
X103721426Y-73134853D01*
X103998665Y-73190000D01*
X104281335Y-73190000D01*
X104558574Y-73134853D01*
X104575001Y-73128049D01*
X104575001Y-74126972D01*
X104570960Y-74168000D01*
X104587082Y-74331688D01*
X104634828Y-74489086D01*
X104686464Y-74585689D01*
X104712365Y-74634146D01*
X104816710Y-74761291D01*
X104848574Y-74787441D01*
X107219928Y-77158797D01*
X107219928Y-77816000D01*
X107232188Y-77940482D01*
X107268498Y-78060180D01*
X107327463Y-78170494D01*
X107406815Y-78267185D01*
X107503506Y-78346537D01*
X107613820Y-78405502D01*
X107733518Y-78441812D01*
X107858000Y-78454072D01*
X109058000Y-78454072D01*
X109182482Y-78441812D01*
X109302180Y-78405502D01*
X109412494Y-78346537D01*
X109428478Y-78333419D01*
X109597764Y-78403540D01*
X109836363Y-78451000D01*
X110079637Y-78451000D01*
X110318236Y-78403540D01*
X110542992Y-78310443D01*
X110745267Y-78175287D01*
X110917287Y-78003267D01*
X111052443Y-77800992D01*
X111145540Y-77576236D01*
X111193000Y-77337637D01*
X111193000Y-77094363D01*
X111145540Y-76855764D01*
X111052443Y-76631008D01*
X110917287Y-76428733D01*
X110790596Y-76302042D01*
X110788246Y-76278180D01*
X110780918Y-76203783D01*
X110733172Y-76046385D01*
X110655636Y-75901326D01*
X110622609Y-75861082D01*
X110577439Y-75806042D01*
X110577437Y-75806040D01*
X110551291Y-75774181D01*
X110519433Y-75748036D01*
X108785000Y-74013605D01*
X108785000Y-73128049D01*
X108801426Y-73134853D01*
X109078665Y-73190000D01*
X109361335Y-73190000D01*
X109638574Y-73134853D01*
X109655001Y-73128049D01*
X109655001Y-74380972D01*
X109650960Y-74422000D01*
X109667082Y-74585688D01*
X109714828Y-74743086D01*
X109792364Y-74888145D01*
X109792365Y-74888146D01*
X109896710Y-75015291D01*
X109928574Y-75041441D01*
X112045928Y-77158797D01*
X112045928Y-77816000D01*
X112058188Y-77940482D01*
X112094498Y-78060180D01*
X112153463Y-78170494D01*
X112232815Y-78267185D01*
X112329506Y-78346537D01*
X112439820Y-78405502D01*
X112559518Y-78441812D01*
X112684000Y-78454072D01*
X113884000Y-78454072D01*
X114008482Y-78441812D01*
X114128180Y-78405502D01*
X114238494Y-78346537D01*
X114254478Y-78333419D01*
X114423764Y-78403540D01*
X114662363Y-78451000D01*
X114905637Y-78451000D01*
X115144236Y-78403540D01*
X115368992Y-78310443D01*
X115571267Y-78175287D01*
X115743287Y-78003267D01*
X115868414Y-77816000D01*
X116871928Y-77816000D01*
X116884188Y-77940482D01*
X116920498Y-78060180D01*
X116979463Y-78170494D01*
X117058815Y-78267185D01*
X117155506Y-78346537D01*
X117265820Y-78405502D01*
X117385518Y-78441812D01*
X117510000Y-78454072D01*
X117824250Y-78451000D01*
X117983000Y-78292250D01*
X117983000Y-77343000D01*
X117033750Y-77343000D01*
X116875000Y-77501750D01*
X116871928Y-77816000D01*
X115868414Y-77816000D01*
X115878443Y-77800992D01*
X115971540Y-77576236D01*
X116019000Y-77337637D01*
X116019000Y-77094363D01*
X115971540Y-76855764D01*
X115878443Y-76631008D01*
X115743287Y-76428733D01*
X115616596Y-76302042D01*
X115614673Y-76282524D01*
X115606918Y-76203783D01*
X115559172Y-76046385D01*
X115481636Y-75901326D01*
X115448609Y-75861082D01*
X115403439Y-75806042D01*
X115403437Y-75806040D01*
X115377291Y-75774181D01*
X115345433Y-75748036D01*
X113865000Y-74267605D01*
X113865000Y-73128049D01*
X113881426Y-73134853D01*
X114158665Y-73190000D01*
X114441335Y-73190000D01*
X114718574Y-73134853D01*
X114839113Y-73084924D01*
X114906711Y-73167292D01*
X114938575Y-73193442D01*
X117725164Y-75980031D01*
X117510000Y-75977928D01*
X117385518Y-75990188D01*
X117265820Y-76026498D01*
X117155506Y-76085463D01*
X117058815Y-76164815D01*
X116979463Y-76261506D01*
X116920498Y-76371820D01*
X116884188Y-76491518D01*
X116871928Y-76616000D01*
X116875000Y-76930250D01*
X117033750Y-77089000D01*
X117983000Y-77089000D01*
X117983000Y-77069000D01*
X118237000Y-77069000D01*
X118237000Y-77089000D01*
X118257000Y-77089000D01*
X118257000Y-77343000D01*
X118237000Y-77343000D01*
X118237000Y-78292250D01*
X118395750Y-78451000D01*
X118710000Y-78454072D01*
X118834482Y-78441812D01*
X118954180Y-78405502D01*
X119064494Y-78346537D01*
X119080478Y-78333419D01*
X119249764Y-78403540D01*
X119488363Y-78451000D01*
X119731637Y-78451000D01*
X119970236Y-78403540D01*
X120194992Y-78310443D01*
X120397267Y-78175287D01*
X120569287Y-78003267D01*
X120704443Y-77800992D01*
X120797540Y-77576236D01*
X120845000Y-77337637D01*
X120845000Y-77094363D01*
X120815666Y-76946890D01*
X121663017Y-77794241D01*
X121689946Y-77827054D01*
X121722759Y-77853983D01*
X121722760Y-77853984D01*
X121761965Y-77886159D01*
X121820898Y-77934524D01*
X121970300Y-78014381D01*
X121988257Y-78019828D01*
X122000498Y-78060180D01*
X122059463Y-78170494D01*
X122138815Y-78267185D01*
X122235506Y-78346537D01*
X122339232Y-78401981D01*
X122342444Y-78434589D01*
X122348516Y-78454606D01*
X122391619Y-78596699D01*
X122471476Y-78746101D01*
X122578946Y-78877054D01*
X122611765Y-78903988D01*
X125896017Y-82188241D01*
X125922946Y-82221054D01*
X126053898Y-82328524D01*
X126203300Y-82408381D01*
X126316235Y-82442639D01*
X126365410Y-82457556D01*
X126382558Y-82459245D01*
X126491754Y-82470000D01*
X126491760Y-82470000D01*
X126533999Y-82474160D01*
X126576238Y-82470000D01*
X132343656Y-82470000D01*
X132404106Y-82530450D01*
X132598192Y-82660134D01*
X132650773Y-82681913D01*
X132475710Y-82855815D01*
X132328931Y-83073910D01*
X132227520Y-83316450D01*
X132216784Y-83376671D01*
X132340126Y-83583000D01*
X133932500Y-83583000D01*
X133932500Y-83563000D01*
X134186500Y-83563000D01*
X134186500Y-83583000D01*
X135778874Y-83583000D01*
X135902216Y-83376671D01*
X136966784Y-83376671D01*
X137090126Y-83583000D01*
X138682500Y-83583000D01*
X138682500Y-82375000D01*
X138936500Y-82375000D01*
X138936500Y-83583000D01*
X140528874Y-83583000D01*
X140652216Y-83376671D01*
X140641480Y-83316450D01*
X140540069Y-83073910D01*
X140393290Y-82855815D01*
X140206783Y-82670545D01*
X139987715Y-82525221D01*
X139744505Y-82425428D01*
X139486500Y-82375000D01*
X138936500Y-82375000D01*
X138682500Y-82375000D01*
X138132500Y-82375000D01*
X137874495Y-82425428D01*
X137631285Y-82525221D01*
X137412217Y-82670545D01*
X137225710Y-82855815D01*
X137078931Y-83073910D01*
X136977520Y-83316450D01*
X136966784Y-83376671D01*
X135902216Y-83376671D01*
X135891480Y-83316450D01*
X135790069Y-83073910D01*
X135643290Y-82855815D01*
X135456783Y-82670545D01*
X135237715Y-82525221D01*
X134994505Y-82425428D01*
X134736500Y-82375000D01*
X134070344Y-82375000D01*
X134079950Y-82365394D01*
X134209634Y-82171308D01*
X134282663Y-81995000D01*
X134476212Y-81995000D01*
X134705152Y-81949461D01*
X134920808Y-81860134D01*
X135114894Y-81730450D01*
X135279950Y-81565394D01*
X135409634Y-81371308D01*
X135498961Y-81155652D01*
X135544500Y-80926712D01*
X135544500Y-80693288D01*
X135498961Y-80464348D01*
X135409634Y-80248692D01*
X135279950Y-80054606D01*
X135235344Y-80010000D01*
X135279950Y-79965394D01*
X135409634Y-79771308D01*
X135498961Y-79555652D01*
X135544500Y-79326712D01*
X135544500Y-79093288D01*
X135498961Y-78864348D01*
X135409634Y-78648692D01*
X135279950Y-78454606D01*
X135114894Y-78289550D01*
X134920808Y-78159866D01*
X134705152Y-78070539D01*
X134476212Y-78025000D01*
X134280833Y-78025000D01*
X134226308Y-77881066D01*
X134191978Y-77816841D01*
X133973479Y-77775626D01*
X133339105Y-78410000D01*
X133353248Y-78424143D01*
X133173643Y-78603748D01*
X133159500Y-78589605D01*
X133145358Y-78603748D01*
X132965753Y-78424143D01*
X132979895Y-78410000D01*
X132345521Y-77775626D01*
X132127022Y-77816841D01*
X132031141Y-78029665D01*
X131978622Y-78257105D01*
X131971484Y-78490421D01*
X132010000Y-78720646D01*
X132092692Y-78938934D01*
X132127022Y-79003159D01*
X132345518Y-79044374D01*
X132228155Y-79161737D01*
X132280037Y-79213619D01*
X132239050Y-79254606D01*
X132109366Y-79448692D01*
X132020039Y-79664348D01*
X131974500Y-79893288D01*
X131974500Y-80126712D01*
X132020039Y-80355652D01*
X132109366Y-80571308D01*
X132228764Y-80750000D01*
X126890224Y-80750000D01*
X124588429Y-78448205D01*
X124768438Y-78454495D01*
X125008549Y-78415395D01*
X125236418Y-78330202D01*
X125312852Y-78289348D01*
X125360159Y-78065764D01*
X124690000Y-77395605D01*
X124675858Y-77409748D01*
X124496253Y-77230143D01*
X124510395Y-77216000D01*
X124869605Y-77216000D01*
X125539764Y-77886159D01*
X125763348Y-77838852D01*
X125864237Y-77617484D01*
X125920000Y-77380687D01*
X125928495Y-77137562D01*
X125889395Y-76897451D01*
X125804202Y-76669582D01*
X125790170Y-76643329D01*
X132216784Y-76643329D01*
X132227520Y-76703550D01*
X132328931Y-76946090D01*
X132475710Y-77164185D01*
X132648915Y-77336241D01*
X132630566Y-77343192D01*
X132566341Y-77377522D01*
X132525126Y-77596021D01*
X133159500Y-78230395D01*
X133744895Y-77645000D01*
X133932500Y-77645000D01*
X133932500Y-76437000D01*
X134186500Y-76437000D01*
X134186500Y-77645000D01*
X134736500Y-77645000D01*
X134994505Y-77594572D01*
X135237715Y-77494779D01*
X135456783Y-77349455D01*
X135643290Y-77164185D01*
X135790069Y-76946090D01*
X135891480Y-76703550D01*
X135902216Y-76643329D01*
X136966784Y-76643329D01*
X136977520Y-76703550D01*
X137078931Y-76946090D01*
X137225710Y-77164185D01*
X137412217Y-77349455D01*
X137631285Y-77494779D01*
X137874495Y-77594572D01*
X138132500Y-77645000D01*
X138682500Y-77645000D01*
X138682500Y-76437000D01*
X138936500Y-76437000D01*
X138936500Y-77645000D01*
X139486500Y-77645000D01*
X139744505Y-77594572D01*
X139987715Y-77494779D01*
X140206783Y-77349455D01*
X140393290Y-77164185D01*
X140540069Y-76946090D01*
X140641480Y-76703550D01*
X140652216Y-76643329D01*
X140528874Y-76437000D01*
X138936500Y-76437000D01*
X138682500Y-76437000D01*
X137090126Y-76437000D01*
X136966784Y-76643329D01*
X135902216Y-76643329D01*
X135778874Y-76437000D01*
X134186500Y-76437000D01*
X133932500Y-76437000D01*
X132340126Y-76437000D01*
X132216784Y-76643329D01*
X125790170Y-76643329D01*
X125763348Y-76593148D01*
X125539764Y-76545841D01*
X124869605Y-77216000D01*
X124510395Y-77216000D01*
X124496253Y-77201858D01*
X124675858Y-77022253D01*
X124690000Y-77036395D01*
X125360159Y-76366236D01*
X125312852Y-76142652D01*
X125091484Y-76041763D01*
X124854687Y-75986000D01*
X124611562Y-75977505D01*
X124371451Y-76016605D01*
X124157883Y-76096451D01*
X124144494Y-76085463D01*
X124034180Y-76026498D01*
X123914482Y-75990188D01*
X123790000Y-75977928D01*
X122590000Y-75977928D01*
X122465518Y-75990188D01*
X122345820Y-76026498D01*
X122334026Y-76032802D01*
X122277895Y-75976671D01*
X132216784Y-75976671D01*
X132340126Y-76183000D01*
X133932500Y-76183000D01*
X133932500Y-74975000D01*
X134186500Y-74975000D01*
X134186500Y-76183000D01*
X135778874Y-76183000D01*
X135902216Y-75976671D01*
X136966784Y-75976671D01*
X137090126Y-76183000D01*
X138682500Y-76183000D01*
X138682500Y-74975000D01*
X138936500Y-74975000D01*
X138936500Y-76183000D01*
X140528874Y-76183000D01*
X140652216Y-75976671D01*
X140641480Y-75916450D01*
X140540069Y-75673910D01*
X140393290Y-75455815D01*
X140206783Y-75270545D01*
X139987715Y-75125221D01*
X139744505Y-75025428D01*
X139486500Y-74975000D01*
X138936500Y-74975000D01*
X138682500Y-74975000D01*
X138132500Y-74975000D01*
X137874495Y-75025428D01*
X137631285Y-75125221D01*
X137412217Y-75270545D01*
X137225710Y-75455815D01*
X137078931Y-75673910D01*
X136977520Y-75916450D01*
X136966784Y-75976671D01*
X135902216Y-75976671D01*
X135891480Y-75916450D01*
X135790069Y-75673910D01*
X135643290Y-75455815D01*
X135456783Y-75270545D01*
X135237715Y-75125221D01*
X134994505Y-75025428D01*
X134736500Y-74975000D01*
X134186500Y-74975000D01*
X133932500Y-74975000D01*
X133382500Y-74975000D01*
X133124495Y-75025428D01*
X132881285Y-75125221D01*
X132662217Y-75270545D01*
X132475710Y-75455815D01*
X132328931Y-75673910D01*
X132227520Y-75916450D01*
X132216784Y-75976671D01*
X122277895Y-75976671D01*
X119491223Y-73190000D01*
X119521335Y-73190000D01*
X119798574Y-73134853D01*
X120059727Y-73026680D01*
X120294759Y-72869637D01*
X120494637Y-72669759D01*
X120651680Y-72434727D01*
X120656067Y-72424135D01*
X120767615Y-72610131D01*
X120956586Y-72818519D01*
X121182580Y-72986037D01*
X121436913Y-73106246D01*
X121570961Y-73146904D01*
X121793000Y-73024915D01*
X121793000Y-71882000D01*
X121773000Y-71882000D01*
X121773000Y-71628000D01*
X121793000Y-71628000D01*
X121793000Y-71608000D01*
X122047000Y-71608000D01*
X122047000Y-71628000D01*
X122067000Y-71628000D01*
X122067000Y-71882000D01*
X122047000Y-71882000D01*
X122047000Y-73024915D01*
X122269039Y-73146904D01*
X122403087Y-73106246D01*
X122657420Y-72986037D01*
X122883414Y-72818519D01*
X123072385Y-72610131D01*
X123183933Y-72424135D01*
X123188320Y-72434727D01*
X123345363Y-72669759D01*
X123545241Y-72869637D01*
X123780273Y-73026680D01*
X124041426Y-73134853D01*
X124318665Y-73190000D01*
X124601335Y-73190000D01*
X124777616Y-73154935D01*
X134623670Y-73154935D01*
X134797723Y-73485854D01*
X135198040Y-73691625D01*
X135630808Y-73815346D01*
X136079398Y-73852259D01*
X136526570Y-73800949D01*
X136955139Y-73663385D01*
X137287277Y-73485854D01*
X137461330Y-73154935D01*
X136042500Y-71736105D01*
X134623670Y-73154935D01*
X124777616Y-73154935D01*
X124878574Y-73134853D01*
X125139727Y-73026680D01*
X125374759Y-72869637D01*
X125574637Y-72669759D01*
X125731680Y-72434727D01*
X125839853Y-72173574D01*
X125895000Y-71896335D01*
X125895000Y-71613665D01*
X125890969Y-71593398D01*
X133746741Y-71593398D01*
X133798051Y-72040570D01*
X133935615Y-72469139D01*
X134113146Y-72801277D01*
X134444065Y-72975330D01*
X135862895Y-71556500D01*
X136222105Y-71556500D01*
X137640935Y-72975330D01*
X137971854Y-72801277D01*
X138177625Y-72400960D01*
X138301346Y-71968192D01*
X138338259Y-71519602D01*
X138286949Y-71072430D01*
X138149385Y-70643861D01*
X137971854Y-70311723D01*
X137640935Y-70137670D01*
X136222105Y-71556500D01*
X135862895Y-71556500D01*
X134444065Y-70137670D01*
X134113146Y-70311723D01*
X133907375Y-70712040D01*
X133783654Y-71144808D01*
X133746741Y-71593398D01*
X125890969Y-71593398D01*
X125839853Y-71336426D01*
X125731680Y-71075273D01*
X125657330Y-70964000D01*
X130722761Y-70964000D01*
X130765000Y-70968160D01*
X130807239Y-70964000D01*
X130807246Y-70964000D01*
X130933589Y-70951556D01*
X131095700Y-70902381D01*
X131245102Y-70822524D01*
X131376054Y-70715054D01*
X131402988Y-70682235D01*
X132127158Y-69958065D01*
X134623670Y-69958065D01*
X136042500Y-71376895D01*
X137461330Y-69958065D01*
X137287277Y-69627146D01*
X136886960Y-69421375D01*
X136454192Y-69297654D01*
X136005602Y-69260741D01*
X135558430Y-69312051D01*
X135129861Y-69449615D01*
X134797723Y-69627146D01*
X134623670Y-69958065D01*
X132127158Y-69958065D01*
X132514050Y-69571173D01*
X132616240Y-69591500D01*
X132908760Y-69591500D01*
X133195658Y-69534432D01*
X133465911Y-69422490D01*
X133709132Y-69259975D01*
X133915975Y-69053132D01*
X134078490Y-68809911D01*
X134190432Y-68539658D01*
X134247500Y-68252760D01*
X134247500Y-67960240D01*
X134190432Y-67673342D01*
X134078490Y-67403089D01*
X133915975Y-67159868D01*
X133812607Y-67056500D01*
X133915975Y-66953132D01*
X134078490Y-66709911D01*
X134190432Y-66439658D01*
X134217230Y-66304935D01*
X135423670Y-66304935D01*
X135597723Y-66635854D01*
X135998040Y-66841625D01*
X136430808Y-66965346D01*
X136879398Y-67002259D01*
X137326570Y-66950949D01*
X137755139Y-66813385D01*
X138087277Y-66635854D01*
X138261330Y-66304935D01*
X136842500Y-64886105D01*
X135423670Y-66304935D01*
X134217230Y-66304935D01*
X134247500Y-66152760D01*
X134247500Y-65860240D01*
X134190432Y-65573342D01*
X134078490Y-65303089D01*
X133915975Y-65059868D01*
X133709132Y-64853025D01*
X133545064Y-64743398D01*
X134546741Y-64743398D01*
X134598051Y-65190570D01*
X134735615Y-65619139D01*
X134913146Y-65951277D01*
X135244065Y-66125330D01*
X136662895Y-64706500D01*
X137022105Y-64706500D01*
X138440935Y-66125330D01*
X138771854Y-65951277D01*
X138977625Y-65550960D01*
X139101346Y-65118192D01*
X139138259Y-64669602D01*
X139086949Y-64222430D01*
X138949385Y-63793861D01*
X138771854Y-63461723D01*
X138440935Y-63287670D01*
X137022105Y-64706500D01*
X136662895Y-64706500D01*
X135244065Y-63287670D01*
X134913146Y-63461723D01*
X134707375Y-63862040D01*
X134583654Y-64294808D01*
X134546741Y-64743398D01*
X133545064Y-64743398D01*
X133489842Y-64706500D01*
X133709132Y-64559975D01*
X133915975Y-64353132D01*
X134078490Y-64109911D01*
X134190432Y-63839658D01*
X134247500Y-63552760D01*
X134247500Y-63260240D01*
X134217231Y-63108065D01*
X135423670Y-63108065D01*
X136842500Y-64526895D01*
X138261330Y-63108065D01*
X138087277Y-62777146D01*
X137686960Y-62571375D01*
X137254192Y-62447654D01*
X136805602Y-62410741D01*
X136358430Y-62462051D01*
X135929861Y-62599615D01*
X135597723Y-62777146D01*
X135423670Y-63108065D01*
X134217231Y-63108065D01*
X134190432Y-62973342D01*
X134078490Y-62703089D01*
X133915975Y-62459868D01*
X133817254Y-62361147D01*
X133907004Y-62271396D01*
X133790899Y-62155291D01*
X134039972Y-62077657D01*
X134165871Y-61813617D01*
X134237839Y-61530089D01*
X134253111Y-61237969D01*
X134211099Y-60948481D01*
X134113419Y-60672753D01*
X134039972Y-60535343D01*
X133790897Y-60457708D01*
X132942105Y-61306500D01*
X132956248Y-61320643D01*
X132776643Y-61500248D01*
X132762500Y-61486105D01*
X132748358Y-61500248D01*
X132568753Y-61320643D01*
X132582895Y-61306500D01*
X131734103Y-60457708D01*
X131524916Y-60522910D01*
X131415975Y-60359868D01*
X131334210Y-60278103D01*
X131913708Y-60278103D01*
X132762500Y-61126895D01*
X133611292Y-60278103D01*
X133533657Y-60029028D01*
X133269617Y-59903129D01*
X132986089Y-59831161D01*
X132693969Y-59815889D01*
X132404481Y-59857901D01*
X132128753Y-59955581D01*
X131991343Y-60029028D01*
X131913708Y-60278103D01*
X131334210Y-60278103D01*
X131209132Y-60153025D01*
X130965911Y-59990510D01*
X130695658Y-59878568D01*
X130408760Y-59821500D01*
X130116240Y-59821500D01*
X129829342Y-59878568D01*
X129559089Y-59990510D01*
X129315868Y-60153025D01*
X129109025Y-60359868D01*
X128946510Y-60603089D01*
X128834568Y-60873342D01*
X128777500Y-61160240D01*
X128777500Y-61452760D01*
X128834568Y-61739658D01*
X128946510Y-62009911D01*
X129109025Y-62253132D01*
X129315868Y-62459975D01*
X129559089Y-62622490D01*
X129829342Y-62734432D01*
X130116240Y-62791500D01*
X130408760Y-62791500D01*
X130695658Y-62734432D01*
X130965911Y-62622490D01*
X131209132Y-62459975D01*
X131415975Y-62253132D01*
X131524916Y-62090090D01*
X131734101Y-62155291D01*
X131617996Y-62271396D01*
X131707747Y-62361147D01*
X131609025Y-62459868D01*
X131446510Y-62703089D01*
X131334568Y-62973342D01*
X131277500Y-63260240D01*
X131277500Y-63552760D01*
X131334568Y-63839658D01*
X131446510Y-64109911D01*
X131609025Y-64353132D01*
X131815868Y-64559975D01*
X132035158Y-64706500D01*
X131815868Y-64853025D01*
X131609025Y-65059868D01*
X131446510Y-65303089D01*
X131367078Y-65494855D01*
X129682988Y-63810765D01*
X129656054Y-63777946D01*
X129525102Y-63670476D01*
X129375700Y-63590619D01*
X129213589Y-63541444D01*
X129087246Y-63529000D01*
X129087239Y-63529000D01*
X129045000Y-63524840D01*
X129002761Y-63529000D01*
X104750224Y-63529000D01*
X102981223Y-61760000D01*
X102997002Y-61760000D01*
X102997002Y-61594916D01*
X103219039Y-61716904D01*
X103353087Y-61676246D01*
X103607420Y-61556037D01*
X103833414Y-61388519D01*
X104022385Y-61180131D01*
X104133933Y-60994135D01*
X104138320Y-61004727D01*
X104295363Y-61239759D01*
X104495241Y-61439637D01*
X104730273Y-61596680D01*
X104991426Y-61704853D01*
X105268665Y-61760000D01*
X105551335Y-61760000D01*
X105828574Y-61704853D01*
X106089727Y-61596680D01*
X106324759Y-61439637D01*
X106524637Y-61239759D01*
X106680000Y-61007241D01*
X106835363Y-61239759D01*
X107035241Y-61439637D01*
X107270273Y-61596680D01*
X107531426Y-61704853D01*
X107808665Y-61760000D01*
X108091335Y-61760000D01*
X108368574Y-61704853D01*
X108629727Y-61596680D01*
X108864759Y-61439637D01*
X109064637Y-61239759D01*
X109220000Y-61007241D01*
X109375363Y-61239759D01*
X109575241Y-61439637D01*
X109810273Y-61596680D01*
X110071426Y-61704853D01*
X110348665Y-61760000D01*
X110631335Y-61760000D01*
X110908574Y-61704853D01*
X111169727Y-61596680D01*
X111404759Y-61439637D01*
X111604637Y-61239759D01*
X111760000Y-61007241D01*
X111915363Y-61239759D01*
X112115241Y-61439637D01*
X112350273Y-61596680D01*
X112611426Y-61704853D01*
X112888665Y-61760000D01*
X113171335Y-61760000D01*
X113448574Y-61704853D01*
X113709727Y-61596680D01*
X113944759Y-61439637D01*
X114144637Y-61239759D01*
X114300000Y-61007241D01*
X114455363Y-61239759D01*
X114655241Y-61439637D01*
X114890273Y-61596680D01*
X115151426Y-61704853D01*
X115428665Y-61760000D01*
X115711335Y-61760000D01*
X115988574Y-61704853D01*
X116249727Y-61596680D01*
X116484759Y-61439637D01*
X116684637Y-61239759D01*
X116840000Y-61007241D01*
X116995363Y-61239759D01*
X117195241Y-61439637D01*
X117430273Y-61596680D01*
X117691426Y-61704853D01*
X117968665Y-61760000D01*
X118251335Y-61760000D01*
X118528574Y-61704853D01*
X118789727Y-61596680D01*
X119024759Y-61439637D01*
X119224637Y-61239759D01*
X119381680Y-61004727D01*
X119489853Y-60743574D01*
X119545000Y-60466335D01*
X119545000Y-60183665D01*
X119489853Y-59906426D01*
X119381680Y-59645273D01*
X119254501Y-59454935D01*
X134623670Y-59454935D01*
X134797723Y-59785854D01*
X135198040Y-59991625D01*
X135630808Y-60115346D01*
X136079398Y-60152259D01*
X136526570Y-60100949D01*
X136955139Y-59963385D01*
X137287277Y-59785854D01*
X137461330Y-59454935D01*
X136042500Y-58036105D01*
X134623670Y-59454935D01*
X119254501Y-59454935D01*
X119224637Y-59410241D01*
X119024759Y-59210363D01*
X118789727Y-59053320D01*
X118528574Y-58945147D01*
X118251335Y-58890000D01*
X117968665Y-58890000D01*
X117691426Y-58945147D01*
X117430273Y-59053320D01*
X117195241Y-59210363D01*
X116995363Y-59410241D01*
X116840000Y-59642759D01*
X116684637Y-59410241D01*
X116484759Y-59210363D01*
X116249727Y-59053320D01*
X115988574Y-58945147D01*
X115711335Y-58890000D01*
X115428665Y-58890000D01*
X115151426Y-58945147D01*
X114890273Y-59053320D01*
X114655241Y-59210363D01*
X114455363Y-59410241D01*
X114300000Y-59642759D01*
X114144637Y-59410241D01*
X113944759Y-59210363D01*
X113709727Y-59053320D01*
X113448574Y-58945147D01*
X113171335Y-58890000D01*
X112888665Y-58890000D01*
X112611426Y-58945147D01*
X112350273Y-59053320D01*
X112115241Y-59210363D01*
X111915363Y-59410241D01*
X111760000Y-59642759D01*
X111604637Y-59410241D01*
X111404759Y-59210363D01*
X111169727Y-59053320D01*
X110908574Y-58945147D01*
X110631335Y-58890000D01*
X110348665Y-58890000D01*
X110071426Y-58945147D01*
X109810273Y-59053320D01*
X109575241Y-59210363D01*
X109375363Y-59410241D01*
X109220000Y-59642759D01*
X109064637Y-59410241D01*
X108864759Y-59210363D01*
X108629727Y-59053320D01*
X108368574Y-58945147D01*
X108091335Y-58890000D01*
X107808665Y-58890000D01*
X107531426Y-58945147D01*
X107270273Y-59053320D01*
X107035241Y-59210363D01*
X106835363Y-59410241D01*
X106680000Y-59642759D01*
X106524637Y-59410241D01*
X106324759Y-59210363D01*
X106089727Y-59053320D01*
X105828574Y-58945147D01*
X105551335Y-58890000D01*
X105268665Y-58890000D01*
X104991426Y-58945147D01*
X104730273Y-59053320D01*
X104495241Y-59210363D01*
X104295363Y-59410241D01*
X104138320Y-59645273D01*
X104133933Y-59655865D01*
X104022385Y-59469869D01*
X103833414Y-59261481D01*
X103607420Y-59093963D01*
X103353087Y-58973754D01*
X103219039Y-58933096D01*
X102997000Y-59055085D01*
X102997000Y-60198000D01*
X103017000Y-60198000D01*
X103017000Y-60452000D01*
X102997000Y-60452000D01*
X102997000Y-60472000D01*
X102743000Y-60472000D01*
X102743000Y-60452000D01*
X102723000Y-60452000D01*
X102723000Y-60198000D01*
X102743000Y-60198000D01*
X102743000Y-59055085D01*
X102520961Y-58933096D01*
X102386913Y-58973754D01*
X102132580Y-59093963D01*
X101906586Y-59261481D01*
X101717615Y-59469869D01*
X101606067Y-59655865D01*
X101601680Y-59645273D01*
X101444637Y-59410241D01*
X101244759Y-59210363D01*
X101009727Y-59053320D01*
X100748574Y-58945147D01*
X100471335Y-58890000D01*
X100188665Y-58890000D01*
X99911426Y-58945147D01*
X99650273Y-59053320D01*
X99415241Y-59210363D01*
X99215363Y-59410241D01*
X99058320Y-59645273D01*
X98950147Y-59906426D01*
X98895000Y-60183665D01*
X98895000Y-60466335D01*
X98950147Y-60743574D01*
X99058320Y-61004727D01*
X99215363Y-61239759D01*
X99415241Y-61439637D01*
X99650273Y-61596680D01*
X99911426Y-61704853D01*
X100188665Y-61760000D01*
X100471335Y-61760000D01*
X100535928Y-61747151D01*
X103756015Y-64967239D01*
X103782946Y-65000054D01*
X103913898Y-65107524D01*
X104063300Y-65187381D01*
X104176235Y-65221639D01*
X104225410Y-65236556D01*
X104240975Y-65238089D01*
X104351754Y-65249000D01*
X104351761Y-65249000D01*
X104394000Y-65253160D01*
X104436239Y-65249000D01*
X128688777Y-65249000D01*
X130070396Y-66630619D01*
X129829342Y-66678568D01*
X129559089Y-66790510D01*
X129315868Y-66953025D01*
X129109025Y-67159868D01*
X128946510Y-67403089D01*
X128834568Y-67673342D01*
X128777500Y-67960240D01*
X128777500Y-68252760D01*
X128834568Y-68539658D01*
X128946510Y-68809911D01*
X129109025Y-69053132D01*
X129299893Y-69244000D01*
X118723771Y-69244000D01*
X118789727Y-69216680D01*
X119024759Y-69059637D01*
X119224637Y-68859759D01*
X119381680Y-68624727D01*
X119489853Y-68363574D01*
X119545000Y-68086335D01*
X119545000Y-67803665D01*
X119489853Y-67526426D01*
X119381680Y-67265273D01*
X119224637Y-67030241D01*
X119024759Y-66830363D01*
X118789727Y-66673320D01*
X118528574Y-66565147D01*
X118251335Y-66510000D01*
X117968665Y-66510000D01*
X117691426Y-66565147D01*
X117430273Y-66673320D01*
X117195241Y-66830363D01*
X116995363Y-67030241D01*
X116840000Y-67262759D01*
X116684637Y-67030241D01*
X116484759Y-66830363D01*
X116249727Y-66673320D01*
X115988574Y-66565147D01*
X115711335Y-66510000D01*
X115428665Y-66510000D01*
X115151426Y-66565147D01*
X114890273Y-66673320D01*
X114655241Y-66830363D01*
X114455363Y-67030241D01*
X114300000Y-67262759D01*
X114144637Y-67030241D01*
X113944759Y-66830363D01*
X113709727Y-66673320D01*
X113448574Y-66565147D01*
X113171335Y-66510000D01*
X112888665Y-66510000D01*
X112611426Y-66565147D01*
X112350273Y-66673320D01*
X112115241Y-66830363D01*
X111915363Y-67030241D01*
X111760000Y-67262759D01*
X111604637Y-67030241D01*
X111404759Y-66830363D01*
X111169727Y-66673320D01*
X110908574Y-66565147D01*
X110631335Y-66510000D01*
X110348665Y-66510000D01*
X110071426Y-66565147D01*
X109810273Y-66673320D01*
X109575241Y-66830363D01*
X109375363Y-67030241D01*
X109220000Y-67262759D01*
X109064637Y-67030241D01*
X108864759Y-66830363D01*
X108629727Y-66673320D01*
X108368574Y-66565147D01*
X108091335Y-66510000D01*
X107808665Y-66510000D01*
X107531426Y-66565147D01*
X107270273Y-66673320D01*
X107035241Y-66830363D01*
X106835363Y-67030241D01*
X106680000Y-67262759D01*
X106524637Y-67030241D01*
X106324759Y-66830363D01*
X106089727Y-66673320D01*
X105828574Y-66565147D01*
X105551335Y-66510000D01*
X105268665Y-66510000D01*
X104991426Y-66565147D01*
X104730273Y-66673320D01*
X104625318Y-66743448D01*
X104065447Y-66183578D01*
X104039292Y-66151708D01*
X103912147Y-66047363D01*
X103767088Y-65969827D01*
X103609690Y-65922081D01*
X103487020Y-65909999D01*
X103487019Y-65909999D01*
X103446001Y-65905959D01*
X103404983Y-65909999D01*
X101571019Y-65909999D01*
X101530001Y-65905959D01*
X101488983Y-65909999D01*
X101488982Y-65909999D01*
X101366312Y-65922081D01*
X101208914Y-65969827D01*
X101063855Y-66047363D01*
X100968852Y-66125330D01*
X100936710Y-66151708D01*
X100910564Y-66183567D01*
X100587204Y-66506928D01*
X99530000Y-66506928D01*
X99405518Y-66519188D01*
X99285820Y-66555498D01*
X99175506Y-66614463D01*
X99078815Y-66693815D01*
X98999463Y-66790506D01*
X98940498Y-66900820D01*
X98904188Y-67020518D01*
X98891928Y-67145000D01*
X98891928Y-68745000D01*
X98904188Y-68869482D01*
X98940498Y-68989180D01*
X98999463Y-69099494D01*
X99078815Y-69196185D01*
X99175506Y-69275537D01*
X99285820Y-69334502D01*
X99405518Y-69370812D01*
X99530000Y-69383072D01*
X101130000Y-69383072D01*
X101254482Y-69370812D01*
X101374180Y-69334502D01*
X101484494Y-69275537D01*
X101581185Y-69196185D01*
X101660537Y-69099494D01*
X101719502Y-68989180D01*
X101755812Y-68869482D01*
X101756643Y-68861039D01*
X101955241Y-69059637D01*
X102035000Y-69112930D01*
X102035000Y-70381951D01*
X102018574Y-70375147D01*
X101741335Y-70320000D01*
X101458665Y-70320000D01*
X101181426Y-70375147D01*
X100920273Y-70483320D01*
X100685241Y-70640363D01*
X100485363Y-70840241D01*
X100330000Y-71072759D01*
X100174637Y-70840241D01*
X99974759Y-70640363D01*
X99739727Y-70483320D01*
X99478574Y-70375147D01*
X99201335Y-70320000D01*
X98918665Y-70320000D01*
X98641426Y-70375147D01*
X98380273Y-70483320D01*
X98145241Y-70640363D01*
X97945363Y-70840241D01*
X97790000Y-71072759D01*
X97634637Y-70840241D01*
X97434759Y-70640363D01*
X97199727Y-70483320D01*
X96938574Y-70375147D01*
X96661335Y-70320000D01*
X96378665Y-70320000D01*
X96101426Y-70375147D01*
X95840273Y-70483320D01*
X95605241Y-70640363D01*
X95405363Y-70840241D01*
X95248320Y-71075273D01*
X95140147Y-71336426D01*
X95085000Y-71613665D01*
X93150731Y-71613665D01*
X93189637Y-71574759D01*
X93346680Y-71339727D01*
X93454853Y-71078574D01*
X93510000Y-70801335D01*
X93510000Y-70518665D01*
X93454853Y-70241426D01*
X93346680Y-69980273D01*
X93189637Y-69745241D01*
X92989759Y-69545363D01*
X92754727Y-69388320D01*
X92493574Y-69280147D01*
X92467699Y-69275000D01*
X92493574Y-69269853D01*
X92754727Y-69161680D01*
X92989759Y-69004637D01*
X93189637Y-68804759D01*
X93346680Y-68569727D01*
X93454853Y-68308574D01*
X93510000Y-68031335D01*
X93510000Y-67748665D01*
X93454853Y-67471426D01*
X93346680Y-67210273D01*
X93189637Y-66975241D01*
X92989759Y-66775363D01*
X92754727Y-66618320D01*
X92493574Y-66510147D01*
X92465118Y-66504487D01*
X92691292Y-66423603D01*
X92816514Y-66356671D01*
X92888097Y-66112702D01*
X92075000Y-65299605D01*
X91261903Y-66112702D01*
X91333486Y-66356671D01*
X91588996Y-66477571D01*
X91691289Y-66503212D01*
X91656426Y-66510147D01*
X91395273Y-66618320D01*
X91160241Y-66775363D01*
X90960363Y-66975241D01*
X90803320Y-67210273D01*
X90695147Y-67471426D01*
X90640000Y-67748665D01*
X90640000Y-68031335D01*
X90695147Y-68308574D01*
X90803320Y-68569727D01*
X90960363Y-68804759D01*
X91160241Y-69004637D01*
X91395273Y-69161680D01*
X91656426Y-69269853D01*
X91682301Y-69275000D01*
X91656426Y-69280147D01*
X91395273Y-69388320D01*
X91160241Y-69545363D01*
X90960363Y-69745241D01*
X90803320Y-69980273D01*
X90695147Y-70241426D01*
X90640000Y-70518665D01*
X90640000Y-70801335D01*
X90695147Y-71078574D01*
X90803320Y-71339727D01*
X90960363Y-71574759D01*
X91160241Y-71774637D01*
X91395273Y-71931680D01*
X91656426Y-72039853D01*
X91682301Y-72045000D01*
X91656426Y-72050147D01*
X91395273Y-72158320D01*
X91160241Y-72315363D01*
X90960363Y-72515241D01*
X90803320Y-72750273D01*
X90695147Y-73011426D01*
X90640000Y-73288665D01*
X90640000Y-73571335D01*
X90695147Y-73848574D01*
X90803320Y-74109727D01*
X90960363Y-74344759D01*
X91160241Y-74544637D01*
X91395273Y-74701680D01*
X91540725Y-74761928D01*
X91275000Y-74761928D01*
X91150518Y-74774188D01*
X91030820Y-74810498D01*
X90920506Y-74869463D01*
X90823815Y-74948815D01*
X90744463Y-75045506D01*
X90685498Y-75155820D01*
X90649188Y-75275518D01*
X90636928Y-75400000D01*
X90545917Y-75400000D01*
X90614853Y-75233574D01*
X90670000Y-74956335D01*
X90670000Y-74673665D01*
X90614853Y-74396426D01*
X90506680Y-74135273D01*
X90349637Y-73900241D01*
X90149759Y-73700363D01*
X89914727Y-73543320D01*
X89653574Y-73435147D01*
X89627699Y-73430000D01*
X89653574Y-73424853D01*
X89914727Y-73316680D01*
X90149759Y-73159637D01*
X90349637Y-72959759D01*
X90506680Y-72724727D01*
X90614853Y-72463574D01*
X90670000Y-72186335D01*
X90670000Y-71903665D01*
X90614853Y-71626426D01*
X90506680Y-71365273D01*
X90349637Y-71130241D01*
X90149759Y-70930363D01*
X89914727Y-70773320D01*
X89653574Y-70665147D01*
X89627699Y-70660000D01*
X89653574Y-70654853D01*
X89914727Y-70546680D01*
X90149759Y-70389637D01*
X90349637Y-70189759D01*
X90506680Y-69954727D01*
X90614853Y-69693574D01*
X90670000Y-69416335D01*
X90670000Y-69133665D01*
X90614853Y-68856426D01*
X90506680Y-68595273D01*
X90349637Y-68360241D01*
X90149759Y-68160363D01*
X89914727Y-68003320D01*
X89653574Y-67895147D01*
X89627699Y-67890000D01*
X89653574Y-67884853D01*
X89914727Y-67776680D01*
X90149759Y-67619637D01*
X90349637Y-67419759D01*
X90506680Y-67184727D01*
X90614853Y-66923574D01*
X90670000Y-66646335D01*
X90670000Y-66363665D01*
X90614853Y-66086426D01*
X90506680Y-65825273D01*
X90349637Y-65590241D01*
X90149759Y-65390363D01*
X89914727Y-65233320D01*
X89811380Y-65190512D01*
X90634783Y-65190512D01*
X90676213Y-65470130D01*
X90771397Y-65736292D01*
X90838329Y-65861514D01*
X91082298Y-65933097D01*
X91895395Y-65120000D01*
X92254605Y-65120000D01*
X93067702Y-65933097D01*
X93311671Y-65861514D01*
X93432571Y-65606004D01*
X93501300Y-65331816D01*
X93515217Y-65049488D01*
X93473787Y-64769870D01*
X93378603Y-64503708D01*
X93311671Y-64378486D01*
X93067702Y-64306903D01*
X92254605Y-65120000D01*
X91895395Y-65120000D01*
X91082298Y-64306903D01*
X90838329Y-64378486D01*
X90717429Y-64633996D01*
X90648700Y-64908184D01*
X90634783Y-65190512D01*
X89811380Y-65190512D01*
X89653574Y-65125147D01*
X89376335Y-65070000D01*
X89093665Y-65070000D01*
X88816426Y-65125147D01*
X88555273Y-65233320D01*
X88320241Y-65390363D01*
X88120363Y-65590241D01*
X87963320Y-65825273D01*
X87855147Y-66086426D01*
X87800000Y-66363665D01*
X81940000Y-66363665D01*
X81940000Y-64127298D01*
X91261903Y-64127298D01*
X92075000Y-64940395D01*
X92888097Y-64127298D01*
X92816514Y-63883329D01*
X92561004Y-63762429D01*
X92286816Y-63693700D01*
X92004488Y-63679783D01*
X91724870Y-63721213D01*
X91458708Y-63816397D01*
X91333486Y-63883329D01*
X91261903Y-64127298D01*
X81940000Y-64127298D01*
X81940000Y-60007499D01*
X88987106Y-60007499D01*
X89203228Y-60374258D01*
X89663105Y-60614938D01*
X90161098Y-60761275D01*
X90678071Y-60807648D01*
X91194159Y-60752273D01*
X91689526Y-60597279D01*
X92106772Y-60374258D01*
X92322894Y-60007499D01*
X90655000Y-58339605D01*
X88987106Y-60007499D01*
X81940000Y-60007499D01*
X81940000Y-58183071D01*
X88007352Y-58183071D01*
X88062727Y-58699159D01*
X88217721Y-59194526D01*
X88440742Y-59611772D01*
X88807501Y-59827894D01*
X90475395Y-58160000D01*
X90834605Y-58160000D01*
X92502499Y-59827894D01*
X92869258Y-59611772D01*
X93109938Y-59151895D01*
X93256275Y-58653902D01*
X93302648Y-58136929D01*
X93247273Y-57620841D01*
X93092279Y-57125474D01*
X92869258Y-56708228D01*
X92502499Y-56492106D01*
X90834605Y-58160000D01*
X90475395Y-58160000D01*
X88807501Y-56492106D01*
X88440742Y-56708228D01*
X88200062Y-57168105D01*
X88053725Y-57666098D01*
X88007352Y-58183071D01*
X81940000Y-58183071D01*
X81940000Y-55840804D01*
X89414289Y-55832928D01*
X89203228Y-55945742D01*
X88987106Y-56312501D01*
X90655000Y-57980395D01*
X92322894Y-56312501D01*
X92106772Y-55945742D01*
X91886237Y-55830323D01*
X95253998Y-55826775D01*
X95248320Y-55835273D01*
X95140147Y-56096426D01*
X95085000Y-56373665D01*
X95085000Y-56656335D01*
X95140147Y-56933574D01*
X95248320Y-57194727D01*
X95405363Y-57429759D01*
X95605241Y-57629637D01*
X95840273Y-57786680D01*
X96101426Y-57894853D01*
X96378665Y-57950000D01*
X96661335Y-57950000D01*
X96938574Y-57894853D01*
X97199727Y-57786680D01*
X97434759Y-57629637D01*
X97634637Y-57429759D01*
X97790000Y-57197241D01*
X97945363Y-57429759D01*
X98145241Y-57629637D01*
X98380273Y-57786680D01*
X98641426Y-57894853D01*
X98918665Y-57950000D01*
X99201335Y-57950000D01*
X99478574Y-57894853D01*
X99739727Y-57786680D01*
X99974759Y-57629637D01*
X100174637Y-57429759D01*
X100330000Y-57197241D01*
X100485363Y-57429759D01*
X100685241Y-57629637D01*
X100920273Y-57786680D01*
X101181426Y-57894853D01*
X101458665Y-57950000D01*
X101741335Y-57950000D01*
X102018574Y-57894853D01*
X102279727Y-57786680D01*
X102514759Y-57629637D01*
X102714637Y-57429759D01*
X102870000Y-57197241D01*
X103025363Y-57429759D01*
X103225241Y-57629637D01*
X103460273Y-57786680D01*
X103721426Y-57894853D01*
X103998665Y-57950000D01*
X104281335Y-57950000D01*
X104558574Y-57894853D01*
X104819727Y-57786680D01*
X105054759Y-57629637D01*
X105254637Y-57429759D01*
X105410000Y-57197241D01*
X105565363Y-57429759D01*
X105765241Y-57629637D01*
X106000273Y-57786680D01*
X106261426Y-57894853D01*
X106538665Y-57950000D01*
X106821335Y-57950000D01*
X107098574Y-57894853D01*
X107359727Y-57786680D01*
X107594759Y-57629637D01*
X107794637Y-57429759D01*
X107950000Y-57197241D01*
X108105363Y-57429759D01*
X108305241Y-57629637D01*
X108540273Y-57786680D01*
X108801426Y-57894853D01*
X109078665Y-57950000D01*
X109361335Y-57950000D01*
X109638574Y-57894853D01*
X109899727Y-57786680D01*
X110134759Y-57629637D01*
X110334637Y-57429759D01*
X110490000Y-57197241D01*
X110645363Y-57429759D01*
X110845241Y-57629637D01*
X111080273Y-57786680D01*
X111341426Y-57894853D01*
X111618665Y-57950000D01*
X111901335Y-57950000D01*
X112178574Y-57894853D01*
X112439727Y-57786680D01*
X112674759Y-57629637D01*
X112874637Y-57429759D01*
X113030000Y-57197241D01*
X113185363Y-57429759D01*
X113385241Y-57629637D01*
X113620273Y-57786680D01*
X113881426Y-57894853D01*
X114158665Y-57950000D01*
X114441335Y-57950000D01*
X114718574Y-57894853D01*
X114979727Y-57786680D01*
X115214759Y-57629637D01*
X115414637Y-57429759D01*
X115571680Y-57194727D01*
X115576067Y-57184135D01*
X115687615Y-57370131D01*
X115876586Y-57578519D01*
X116102580Y-57746037D01*
X116356913Y-57866246D01*
X116490961Y-57906904D01*
X116713000Y-57784915D01*
X116713000Y-56642000D01*
X116693000Y-56642000D01*
X116693000Y-56388000D01*
X116713000Y-56388000D01*
X116713000Y-56368000D01*
X116967000Y-56368000D01*
X116967000Y-56388000D01*
X116987000Y-56388000D01*
X116987000Y-56642000D01*
X116967000Y-56642000D01*
X116967000Y-57784915D01*
X117189039Y-57906904D01*
X117323087Y-57866246D01*
X117577420Y-57746037D01*
X117803414Y-57578519D01*
X117992385Y-57370131D01*
X118103933Y-57184135D01*
X118108320Y-57194727D01*
X118265363Y-57429759D01*
X118465241Y-57629637D01*
X118700273Y-57786680D01*
X118961426Y-57894853D01*
X119238665Y-57950000D01*
X119521335Y-57950000D01*
X119798574Y-57894853D01*
X120059727Y-57786680D01*
X120294759Y-57629637D01*
X120494637Y-57429759D01*
X120650000Y-57197241D01*
X120805363Y-57429759D01*
X121005241Y-57629637D01*
X121240273Y-57786680D01*
X121501426Y-57894853D01*
X121778665Y-57950000D01*
X122061335Y-57950000D01*
X122338574Y-57894853D01*
X122599727Y-57786680D01*
X122834759Y-57629637D01*
X123033357Y-57431039D01*
X123034188Y-57439482D01*
X123070498Y-57559180D01*
X123129463Y-57669494D01*
X123208815Y-57766185D01*
X123305506Y-57845537D01*
X123415820Y-57904502D01*
X123535518Y-57940812D01*
X123660000Y-57953072D01*
X125260000Y-57953072D01*
X125384482Y-57940812D01*
X125504180Y-57904502D01*
X125524953Y-57893398D01*
X133746741Y-57893398D01*
X133798051Y-58340570D01*
X133935615Y-58769139D01*
X134113146Y-59101277D01*
X134444065Y-59275330D01*
X135862895Y-57856500D01*
X136222105Y-57856500D01*
X137640935Y-59275330D01*
X137971854Y-59101277D01*
X138177625Y-58700960D01*
X138301346Y-58268192D01*
X138338259Y-57819602D01*
X138286949Y-57372430D01*
X138149385Y-56943861D01*
X137971854Y-56611723D01*
X137640935Y-56437670D01*
X136222105Y-57856500D01*
X135862895Y-57856500D01*
X134444065Y-56437670D01*
X134113146Y-56611723D01*
X133907375Y-57012040D01*
X133783654Y-57444808D01*
X133746741Y-57893398D01*
X125524953Y-57893398D01*
X125614494Y-57845537D01*
X125711185Y-57766185D01*
X125790537Y-57669494D01*
X125849502Y-57559180D01*
X125885812Y-57439482D01*
X125898072Y-57315000D01*
X125898072Y-55794484D01*
X135063987Y-55784825D01*
X134797723Y-55927146D01*
X134623670Y-56258065D01*
X136042500Y-57676895D01*
X137461330Y-56258065D01*
X137287277Y-55927146D01*
X137006418Y-55782779D01*
X140882851Y-55778694D01*
X140943649Y-85509500D01*
%TA.AperFunction,Conductor*%
D25*
G36*
X140943649Y-85509500D02*
G01*
X91853750Y-85509500D01*
X92106772Y-85374258D01*
X92322894Y-85007499D01*
X90655000Y-83339605D01*
X88987106Y-85007499D01*
X89203228Y-85374258D01*
X89461640Y-85509500D01*
X81940000Y-85509500D01*
X81940000Y-83183071D01*
X88007352Y-83183071D01*
X88062727Y-83699159D01*
X88217721Y-84194526D01*
X88440742Y-84611772D01*
X88807501Y-84827894D01*
X90475395Y-83160000D01*
X90834605Y-83160000D01*
X92502499Y-84827894D01*
X92869258Y-84611772D01*
X93109938Y-84151895D01*
X93141840Y-84043329D01*
X132216784Y-84043329D01*
X132227520Y-84103550D01*
X132328931Y-84346090D01*
X132475710Y-84564185D01*
X132662217Y-84749455D01*
X132881285Y-84894779D01*
X133124495Y-84994572D01*
X133382500Y-85045000D01*
X133932500Y-85045000D01*
X133932500Y-83837000D01*
X134186500Y-83837000D01*
X134186500Y-85045000D01*
X134736500Y-85045000D01*
X134994505Y-84994572D01*
X135237715Y-84894779D01*
X135456783Y-84749455D01*
X135643290Y-84564185D01*
X135790069Y-84346090D01*
X135891480Y-84103550D01*
X135902216Y-84043329D01*
X136966784Y-84043329D01*
X136977520Y-84103550D01*
X137078931Y-84346090D01*
X137225710Y-84564185D01*
X137412217Y-84749455D01*
X137631285Y-84894779D01*
X137874495Y-84994572D01*
X138132500Y-85045000D01*
X138682500Y-85045000D01*
X138682500Y-83837000D01*
X138936500Y-83837000D01*
X138936500Y-85045000D01*
X139486500Y-85045000D01*
X139744505Y-84994572D01*
X139987715Y-84894779D01*
X140206783Y-84749455D01*
X140393290Y-84564185D01*
X140540069Y-84346090D01*
X140641480Y-84103550D01*
X140652216Y-84043329D01*
X140528874Y-83837000D01*
X138936500Y-83837000D01*
X138682500Y-83837000D01*
X137090126Y-83837000D01*
X136966784Y-84043329D01*
X135902216Y-84043329D01*
X135778874Y-83837000D01*
X134186500Y-83837000D01*
X133932500Y-83837000D01*
X132340126Y-83837000D01*
X132216784Y-84043329D01*
X93141840Y-84043329D01*
X93256275Y-83653902D01*
X93302648Y-83136929D01*
X93247273Y-82620841D01*
X93092279Y-82125474D01*
X92869258Y-81708228D01*
X92502499Y-81492106D01*
X90834605Y-83160000D01*
X90475395Y-83160000D01*
X88807501Y-81492106D01*
X88440742Y-81708228D01*
X88200062Y-82168105D01*
X88053725Y-82666098D01*
X88007352Y-83183071D01*
X81940000Y-83183071D01*
X81940000Y-81312501D01*
X88987106Y-81312501D01*
X90655000Y-82980395D01*
X92322894Y-81312501D01*
X92106772Y-80945742D01*
X91646895Y-80705062D01*
X91148902Y-80558725D01*
X90631929Y-80512352D01*
X90115841Y-80567727D01*
X89620474Y-80722721D01*
X89203228Y-80945742D01*
X88987106Y-81312501D01*
X81940000Y-81312501D01*
X81940000Y-78080891D01*
X95015019Y-78080891D01*
X95112343Y-78355252D01*
X95261322Y-78605355D01*
X95456231Y-78821588D01*
X95689580Y-78995641D01*
X95952401Y-79120825D01*
X96099610Y-79165476D01*
X96329500Y-79044155D01*
X96329500Y-77851000D01*
X96583500Y-77851000D01*
X96583500Y-79044155D01*
X96813390Y-79165476D01*
X96960599Y-79120825D01*
X97223420Y-78995641D01*
X97456769Y-78821588D01*
X97651678Y-78605355D01*
X97726500Y-78479745D01*
X97801322Y-78605355D01*
X97996231Y-78821588D01*
X98229580Y-78995641D01*
X98492401Y-79120825D01*
X98639610Y-79165476D01*
X98869500Y-79044155D01*
X98869500Y-77851000D01*
X99123500Y-77851000D01*
X99123500Y-79044155D01*
X99353390Y-79165476D01*
X99500599Y-79120825D01*
X99763420Y-78995641D01*
X99996769Y-78821588D01*
X100191678Y-78605355D01*
X100340657Y-78355252D01*
X100437981Y-78080891D01*
X100317314Y-77851000D01*
X99123500Y-77851000D01*
X98869500Y-77851000D01*
X96583500Y-77851000D01*
X96329500Y-77851000D01*
X95135686Y-77851000D01*
X95015019Y-78080891D01*
X81940000Y-78080891D01*
X81940000Y-66363665D01*
X87800000Y-66363665D01*
X87800000Y-66646335D01*
X87855147Y-66923574D01*
X87963320Y-67184727D01*
X88120363Y-67419759D01*
X88320241Y-67619637D01*
X88555273Y-67776680D01*
X88816426Y-67884853D01*
X88842301Y-67890000D01*
X88816426Y-67895147D01*
X88555273Y-68003320D01*
X88320241Y-68160363D01*
X88120363Y-68360241D01*
X87963320Y-68595273D01*
X87855147Y-68856426D01*
X87800000Y-69133665D01*
X87800000Y-69416335D01*
X87855147Y-69693574D01*
X87963320Y-69954727D01*
X88120363Y-70189759D01*
X88320241Y-70389637D01*
X88555273Y-70546680D01*
X88816426Y-70654853D01*
X88842301Y-70660000D01*
X88816426Y-70665147D01*
X88555273Y-70773320D01*
X88320241Y-70930363D01*
X88120363Y-71130241D01*
X87963320Y-71365273D01*
X87855147Y-71626426D01*
X87800000Y-71903665D01*
X87800000Y-72186335D01*
X87855147Y-72463574D01*
X87963320Y-72724727D01*
X88120363Y-72959759D01*
X88320241Y-73159637D01*
X88555273Y-73316680D01*
X88816426Y-73424853D01*
X88842301Y-73430000D01*
X88816426Y-73435147D01*
X88555273Y-73543320D01*
X88320241Y-73700363D01*
X88120363Y-73900241D01*
X87963320Y-74135273D01*
X87855147Y-74396426D01*
X87800000Y-74673665D01*
X87800000Y-74956335D01*
X87855147Y-75233574D01*
X87963320Y-75494727D01*
X88120363Y-75729759D01*
X88320241Y-75929637D01*
X88555273Y-76086680D01*
X88816426Y-76194853D01*
X89093665Y-76250000D01*
X89376335Y-76250000D01*
X89653574Y-76194853D01*
X89914727Y-76086680D01*
X90149759Y-75929637D01*
X90349637Y-75729759D01*
X90506680Y-75494727D01*
X90545917Y-75400000D01*
X90636928Y-75400000D01*
X90636928Y-77000000D01*
X90649188Y-77124482D01*
X90685498Y-77244180D01*
X90744463Y-77354494D01*
X90823815Y-77451185D01*
X90920506Y-77530537D01*
X91030820Y-77589502D01*
X91150518Y-77625812D01*
X91275000Y-77638072D01*
X92875000Y-77638072D01*
X92999482Y-77625812D01*
X93119180Y-77589502D01*
X93229494Y-77530537D01*
X93326185Y-77451185D01*
X93405537Y-77354494D01*
X93464502Y-77244180D01*
X93500812Y-77124482D01*
X93513072Y-77000000D01*
X93513072Y-75400000D01*
X93500812Y-75275518D01*
X93464502Y-75155820D01*
X93405537Y-75045506D01*
X93326185Y-74948815D01*
X93229494Y-74869463D01*
X93119180Y-74810498D01*
X92999482Y-74774188D01*
X92875000Y-74761928D01*
X92609275Y-74761928D01*
X92754727Y-74701680D01*
X92989759Y-74544637D01*
X93189637Y-74344759D01*
X93196825Y-74334000D01*
X94968428Y-74334000D01*
X94968428Y-76034000D01*
X94980688Y-76158482D01*
X95016998Y-76278180D01*
X95075963Y-76388494D01*
X95155315Y-76485185D01*
X95252006Y-76564537D01*
X95362320Y-76623502D01*
X95438126Y-76646498D01*
X95261322Y-76842645D01*
X95112343Y-77092748D01*
X95015019Y-77367109D01*
X95135686Y-77597000D01*
X96329500Y-77597000D01*
X96329500Y-77577000D01*
X96583500Y-77577000D01*
X96583500Y-77597000D01*
X98869500Y-77597000D01*
X98869500Y-77577000D01*
X99123500Y-77577000D01*
X99123500Y-77597000D01*
X100317314Y-77597000D01*
X100437981Y-77367109D01*
X100340657Y-77092748D01*
X100191678Y-76842645D01*
X99996769Y-76626412D01*
X99767094Y-76455100D01*
X99943132Y-76337475D01*
X100149975Y-76130632D01*
X100312490Y-75887411D01*
X100424432Y-75617158D01*
X100481500Y-75330260D01*
X100481500Y-75037740D01*
X100424432Y-74750842D01*
X100312490Y-74480589D01*
X100149975Y-74237368D01*
X99943132Y-74030525D01*
X99699911Y-73868010D01*
X99429658Y-73756068D01*
X99142760Y-73699000D01*
X98850240Y-73699000D01*
X98563342Y-73756068D01*
X98293089Y-73868010D01*
X98049868Y-74030525D01*
X97918013Y-74162380D01*
X97896002Y-74089820D01*
X97837037Y-73979506D01*
X97757685Y-73882815D01*
X97660994Y-73803463D01*
X97550680Y-73744498D01*
X97430982Y-73708188D01*
X97306500Y-73695928D01*
X95606500Y-73695928D01*
X95482018Y-73708188D01*
X95362320Y-73744498D01*
X95252006Y-73803463D01*
X95155315Y-73882815D01*
X95075963Y-73979506D01*
X95016998Y-74089820D01*
X94980688Y-74209518D01*
X94968428Y-74334000D01*
X93196825Y-74334000D01*
X93346680Y-74109727D01*
X93454853Y-73848574D01*
X93510000Y-73571335D01*
X93510000Y-73288665D01*
X93454853Y-73011426D01*
X93346680Y-72750273D01*
X93189637Y-72515241D01*
X92989759Y-72315363D01*
X92754727Y-72158320D01*
X92493574Y-72050147D01*
X92467699Y-72045000D01*
X92493574Y-72039853D01*
X92754727Y-71931680D01*
X92989759Y-71774637D01*
X93150731Y-71613665D01*
X95085000Y-71613665D01*
X95085000Y-71896335D01*
X95140147Y-72173574D01*
X95248320Y-72434727D01*
X95405363Y-72669759D01*
X95605241Y-72869637D01*
X95840273Y-73026680D01*
X96101426Y-73134853D01*
X96378665Y-73190000D01*
X96661335Y-73190000D01*
X96938574Y-73134853D01*
X97199727Y-73026680D01*
X97434759Y-72869637D01*
X97634637Y-72669759D01*
X97790000Y-72437241D01*
X97945363Y-72669759D01*
X98145241Y-72869637D01*
X98380273Y-73026680D01*
X98641426Y-73134853D01*
X98918665Y-73190000D01*
X99201335Y-73190000D01*
X99478574Y-73134853D01*
X99739727Y-73026680D01*
X99974759Y-72869637D01*
X100174637Y-72669759D01*
X100330000Y-72437241D01*
X100485363Y-72669759D01*
X100685241Y-72869637D01*
X100920273Y-73026680D01*
X101181426Y-73134853D01*
X101458665Y-73190000D01*
X101741335Y-73190000D01*
X102018574Y-73134853D01*
X102035001Y-73128049D01*
X102035001Y-76412971D01*
X102030960Y-76454000D01*
X102047082Y-76617688D01*
X102094828Y-76775086D01*
X102160234Y-76897451D01*
X102172365Y-76920146D01*
X102276710Y-77047291D01*
X102308574Y-77073441D01*
X102393928Y-77158795D01*
X102393928Y-77816000D01*
X102406188Y-77940482D01*
X102442498Y-78060180D01*
X102501463Y-78170494D01*
X102580815Y-78267185D01*
X102677506Y-78346537D01*
X102787820Y-78405502D01*
X102907518Y-78441812D01*
X103032000Y-78454072D01*
X104232000Y-78454072D01*
X104356482Y-78441812D01*
X104476180Y-78405502D01*
X104586494Y-78346537D01*
X104603681Y-78332432D01*
X104730516Y-78390237D01*
X104967313Y-78446000D01*
X105210438Y-78454495D01*
X105450549Y-78415395D01*
X105678418Y-78330202D01*
X105754852Y-78289348D01*
X105802159Y-78065764D01*
X105132000Y-77395605D01*
X105117858Y-77409748D01*
X104938253Y-77230143D01*
X104952395Y-77216000D01*
X105311605Y-77216000D01*
X105981764Y-77886159D01*
X106205348Y-77838852D01*
X106306237Y-77617484D01*
X106362000Y-77380687D01*
X106370495Y-77137562D01*
X106331395Y-76897451D01*
X106246202Y-76669582D01*
X106205348Y-76593148D01*
X105981764Y-76545841D01*
X105311605Y-77216000D01*
X104952395Y-77216000D01*
X104938253Y-77201858D01*
X105117858Y-77022253D01*
X105132000Y-77036395D01*
X105802159Y-76366236D01*
X105754852Y-76142652D01*
X105533484Y-76041763D01*
X105296687Y-75986000D01*
X105053562Y-75977505D01*
X104813451Y-76016605D01*
X104599883Y-76096451D01*
X104586494Y-76085463D01*
X104476180Y-76026498D01*
X104356482Y-75990188D01*
X104232000Y-75977928D01*
X103705000Y-75977928D01*
X103705000Y-73128049D01*
X103721426Y-73134853D01*
X103998665Y-73190000D01*
X104281335Y-73190000D01*
X104558574Y-73134853D01*
X104575001Y-73128049D01*
X104575001Y-74126972D01*
X104570960Y-74168000D01*
X104587082Y-74331688D01*
X104634828Y-74489086D01*
X104686464Y-74585689D01*
X104712365Y-74634146D01*
X104816710Y-74761291D01*
X104848574Y-74787441D01*
X107219928Y-77158797D01*
X107219928Y-77816000D01*
X107232188Y-77940482D01*
X107268498Y-78060180D01*
X107327463Y-78170494D01*
X107406815Y-78267185D01*
X107503506Y-78346537D01*
X107613820Y-78405502D01*
X107733518Y-78441812D01*
X107858000Y-78454072D01*
X109058000Y-78454072D01*
X109182482Y-78441812D01*
X109302180Y-78405502D01*
X109412494Y-78346537D01*
X109428478Y-78333419D01*
X109597764Y-78403540D01*
X109836363Y-78451000D01*
X110079637Y-78451000D01*
X110318236Y-78403540D01*
X110542992Y-78310443D01*
X110745267Y-78175287D01*
X110917287Y-78003267D01*
X111052443Y-77800992D01*
X111145540Y-77576236D01*
X111193000Y-77337637D01*
X111193000Y-77094363D01*
X111145540Y-76855764D01*
X111052443Y-76631008D01*
X110917287Y-76428733D01*
X110790596Y-76302042D01*
X110788246Y-76278180D01*
X110780918Y-76203783D01*
X110733172Y-76046385D01*
X110655636Y-75901326D01*
X110622609Y-75861082D01*
X110577439Y-75806042D01*
X110577437Y-75806040D01*
X110551291Y-75774181D01*
X110519433Y-75748036D01*
X108785000Y-74013605D01*
X108785000Y-73128049D01*
X108801426Y-73134853D01*
X109078665Y-73190000D01*
X109361335Y-73190000D01*
X109638574Y-73134853D01*
X109655001Y-73128049D01*
X109655001Y-74380972D01*
X109650960Y-74422000D01*
X109667082Y-74585688D01*
X109714828Y-74743086D01*
X109792364Y-74888145D01*
X109792365Y-74888146D01*
X109896710Y-75015291D01*
X109928574Y-75041441D01*
X112045928Y-77158797D01*
X112045928Y-77816000D01*
X112058188Y-77940482D01*
X112094498Y-78060180D01*
X112153463Y-78170494D01*
X112232815Y-78267185D01*
X112329506Y-78346537D01*
X112439820Y-78405502D01*
X112559518Y-78441812D01*
X112684000Y-78454072D01*
X113884000Y-78454072D01*
X114008482Y-78441812D01*
X114128180Y-78405502D01*
X114238494Y-78346537D01*
X114254478Y-78333419D01*
X114423764Y-78403540D01*
X114662363Y-78451000D01*
X114905637Y-78451000D01*
X115144236Y-78403540D01*
X115368992Y-78310443D01*
X115571267Y-78175287D01*
X115743287Y-78003267D01*
X115868414Y-77816000D01*
X116871928Y-77816000D01*
X116884188Y-77940482D01*
X116920498Y-78060180D01*
X116979463Y-78170494D01*
X117058815Y-78267185D01*
X117155506Y-78346537D01*
X117265820Y-78405502D01*
X117385518Y-78441812D01*
X117510000Y-78454072D01*
X117824250Y-78451000D01*
X117983000Y-78292250D01*
X117983000Y-77343000D01*
X117033750Y-77343000D01*
X116875000Y-77501750D01*
X116871928Y-77816000D01*
X115868414Y-77816000D01*
X115878443Y-77800992D01*
X115971540Y-77576236D01*
X116019000Y-77337637D01*
X116019000Y-77094363D01*
X115971540Y-76855764D01*
X115878443Y-76631008D01*
X115743287Y-76428733D01*
X115616596Y-76302042D01*
X115614673Y-76282524D01*
X115606918Y-76203783D01*
X115559172Y-76046385D01*
X115481636Y-75901326D01*
X115448609Y-75861082D01*
X115403439Y-75806042D01*
X115403437Y-75806040D01*
X115377291Y-75774181D01*
X115345433Y-75748036D01*
X113865000Y-74267605D01*
X113865000Y-73128049D01*
X113881426Y-73134853D01*
X114158665Y-73190000D01*
X114441335Y-73190000D01*
X114718574Y-73134853D01*
X114839113Y-73084924D01*
X114906711Y-73167292D01*
X114938575Y-73193442D01*
X117725164Y-75980031D01*
X117510000Y-75977928D01*
X117385518Y-75990188D01*
X117265820Y-76026498D01*
X117155506Y-76085463D01*
X117058815Y-76164815D01*
X116979463Y-76261506D01*
X116920498Y-76371820D01*
X116884188Y-76491518D01*
X116871928Y-76616000D01*
X116875000Y-76930250D01*
X117033750Y-77089000D01*
X117983000Y-77089000D01*
X117983000Y-77069000D01*
X118237000Y-77069000D01*
X118237000Y-77089000D01*
X118257000Y-77089000D01*
X118257000Y-77343000D01*
X118237000Y-77343000D01*
X118237000Y-78292250D01*
X118395750Y-78451000D01*
X118710000Y-78454072D01*
X118834482Y-78441812D01*
X118954180Y-78405502D01*
X119064494Y-78346537D01*
X119080478Y-78333419D01*
X119249764Y-78403540D01*
X119488363Y-78451000D01*
X119731637Y-78451000D01*
X119970236Y-78403540D01*
X120194992Y-78310443D01*
X120397267Y-78175287D01*
X120569287Y-78003267D01*
X120704443Y-77800992D01*
X120797540Y-77576236D01*
X120845000Y-77337637D01*
X120845000Y-77094363D01*
X120815666Y-76946890D01*
X121663017Y-77794241D01*
X121689946Y-77827054D01*
X121722759Y-77853983D01*
X121722760Y-77853984D01*
X121761965Y-77886159D01*
X121820898Y-77934524D01*
X121970300Y-78014381D01*
X121988257Y-78019828D01*
X122000498Y-78060180D01*
X122059463Y-78170494D01*
X122138815Y-78267185D01*
X122235506Y-78346537D01*
X122339232Y-78401981D01*
X122342444Y-78434589D01*
X122348516Y-78454606D01*
X122391619Y-78596699D01*
X122471476Y-78746101D01*
X122578946Y-78877054D01*
X122611765Y-78903988D01*
X125896017Y-82188241D01*
X125922946Y-82221054D01*
X126053898Y-82328524D01*
X126203300Y-82408381D01*
X126316235Y-82442639D01*
X126365410Y-82457556D01*
X126382558Y-82459245D01*
X126491754Y-82470000D01*
X126491760Y-82470000D01*
X126533999Y-82474160D01*
X126576238Y-82470000D01*
X132343656Y-82470000D01*
X132404106Y-82530450D01*
X132598192Y-82660134D01*
X132650773Y-82681913D01*
X132475710Y-82855815D01*
X132328931Y-83073910D01*
X132227520Y-83316450D01*
X132216784Y-83376671D01*
X132340126Y-83583000D01*
X133932500Y-83583000D01*
X133932500Y-83563000D01*
X134186500Y-83563000D01*
X134186500Y-83583000D01*
X135778874Y-83583000D01*
X135902216Y-83376671D01*
X136966784Y-83376671D01*
X137090126Y-83583000D01*
X138682500Y-83583000D01*
X138682500Y-82375000D01*
X138936500Y-82375000D01*
X138936500Y-83583000D01*
X140528874Y-83583000D01*
X140652216Y-83376671D01*
X140641480Y-83316450D01*
X140540069Y-83073910D01*
X140393290Y-82855815D01*
X140206783Y-82670545D01*
X139987715Y-82525221D01*
X139744505Y-82425428D01*
X139486500Y-82375000D01*
X138936500Y-82375000D01*
X138682500Y-82375000D01*
X138132500Y-82375000D01*
X137874495Y-82425428D01*
X137631285Y-82525221D01*
X137412217Y-82670545D01*
X137225710Y-82855815D01*
X137078931Y-83073910D01*
X136977520Y-83316450D01*
X136966784Y-83376671D01*
X135902216Y-83376671D01*
X135891480Y-83316450D01*
X135790069Y-83073910D01*
X135643290Y-82855815D01*
X135456783Y-82670545D01*
X135237715Y-82525221D01*
X134994505Y-82425428D01*
X134736500Y-82375000D01*
X134070344Y-82375000D01*
X134079950Y-82365394D01*
X134209634Y-82171308D01*
X134282663Y-81995000D01*
X134476212Y-81995000D01*
X134705152Y-81949461D01*
X134920808Y-81860134D01*
X135114894Y-81730450D01*
X135279950Y-81565394D01*
X135409634Y-81371308D01*
X135498961Y-81155652D01*
X135544500Y-80926712D01*
X135544500Y-80693288D01*
X135498961Y-80464348D01*
X135409634Y-80248692D01*
X135279950Y-80054606D01*
X135235344Y-80010000D01*
X135279950Y-79965394D01*
X135409634Y-79771308D01*
X135498961Y-79555652D01*
X135544500Y-79326712D01*
X135544500Y-79093288D01*
X135498961Y-78864348D01*
X135409634Y-78648692D01*
X135279950Y-78454606D01*
X135114894Y-78289550D01*
X134920808Y-78159866D01*
X134705152Y-78070539D01*
X134476212Y-78025000D01*
X134280833Y-78025000D01*
X134226308Y-77881066D01*
X134191978Y-77816841D01*
X133973479Y-77775626D01*
X133339105Y-78410000D01*
X133353248Y-78424143D01*
X133173643Y-78603748D01*
X133159500Y-78589605D01*
X133145358Y-78603748D01*
X132965753Y-78424143D01*
X132979895Y-78410000D01*
X132345521Y-77775626D01*
X132127022Y-77816841D01*
X132031141Y-78029665D01*
X131978622Y-78257105D01*
X131971484Y-78490421D01*
X132010000Y-78720646D01*
X132092692Y-78938934D01*
X132127022Y-79003159D01*
X132345518Y-79044374D01*
X132228155Y-79161737D01*
X132280037Y-79213619D01*
X132239050Y-79254606D01*
X132109366Y-79448692D01*
X132020039Y-79664348D01*
X131974500Y-79893288D01*
X131974500Y-80126712D01*
X132020039Y-80355652D01*
X132109366Y-80571308D01*
X132228764Y-80750000D01*
X126890224Y-80750000D01*
X124588429Y-78448205D01*
X124768438Y-78454495D01*
X125008549Y-78415395D01*
X125236418Y-78330202D01*
X125312852Y-78289348D01*
X125360159Y-78065764D01*
X124690000Y-77395605D01*
X124675858Y-77409748D01*
X124496253Y-77230143D01*
X124510395Y-77216000D01*
X124869605Y-77216000D01*
X125539764Y-77886159D01*
X125763348Y-77838852D01*
X125864237Y-77617484D01*
X125920000Y-77380687D01*
X125928495Y-77137562D01*
X125889395Y-76897451D01*
X125804202Y-76669582D01*
X125790170Y-76643329D01*
X132216784Y-76643329D01*
X132227520Y-76703550D01*
X132328931Y-76946090D01*
X132475710Y-77164185D01*
X132648915Y-77336241D01*
X132630566Y-77343192D01*
X132566341Y-77377522D01*
X132525126Y-77596021D01*
X133159500Y-78230395D01*
X133744895Y-77645000D01*
X133932500Y-77645000D01*
X133932500Y-76437000D01*
X134186500Y-76437000D01*
X134186500Y-77645000D01*
X134736500Y-77645000D01*
X134994505Y-77594572D01*
X135237715Y-77494779D01*
X135456783Y-77349455D01*
X135643290Y-77164185D01*
X135790069Y-76946090D01*
X135891480Y-76703550D01*
X135902216Y-76643329D01*
X136966784Y-76643329D01*
X136977520Y-76703550D01*
X137078931Y-76946090D01*
X137225710Y-77164185D01*
X137412217Y-77349455D01*
X137631285Y-77494779D01*
X137874495Y-77594572D01*
X138132500Y-77645000D01*
X138682500Y-77645000D01*
X138682500Y-76437000D01*
X138936500Y-76437000D01*
X138936500Y-77645000D01*
X139486500Y-77645000D01*
X139744505Y-77594572D01*
X139987715Y-77494779D01*
X140206783Y-77349455D01*
X140393290Y-77164185D01*
X140540069Y-76946090D01*
X140641480Y-76703550D01*
X140652216Y-76643329D01*
X140528874Y-76437000D01*
X138936500Y-76437000D01*
X138682500Y-76437000D01*
X137090126Y-76437000D01*
X136966784Y-76643329D01*
X135902216Y-76643329D01*
X135778874Y-76437000D01*
X134186500Y-76437000D01*
X133932500Y-76437000D01*
X132340126Y-76437000D01*
X132216784Y-76643329D01*
X125790170Y-76643329D01*
X125763348Y-76593148D01*
X125539764Y-76545841D01*
X124869605Y-77216000D01*
X124510395Y-77216000D01*
X124496253Y-77201858D01*
X124675858Y-77022253D01*
X124690000Y-77036395D01*
X125360159Y-76366236D01*
X125312852Y-76142652D01*
X125091484Y-76041763D01*
X124854687Y-75986000D01*
X124611562Y-75977505D01*
X124371451Y-76016605D01*
X124157883Y-76096451D01*
X124144494Y-76085463D01*
X124034180Y-76026498D01*
X123914482Y-75990188D01*
X123790000Y-75977928D01*
X122590000Y-75977928D01*
X122465518Y-75990188D01*
X122345820Y-76026498D01*
X122334026Y-76032802D01*
X122277895Y-75976671D01*
X132216784Y-75976671D01*
X132340126Y-76183000D01*
X133932500Y-76183000D01*
X133932500Y-74975000D01*
X134186500Y-74975000D01*
X134186500Y-76183000D01*
X135778874Y-76183000D01*
X135902216Y-75976671D01*
X136966784Y-75976671D01*
X137090126Y-76183000D01*
X138682500Y-76183000D01*
X138682500Y-74975000D01*
X138936500Y-74975000D01*
X138936500Y-76183000D01*
X140528874Y-76183000D01*
X140652216Y-75976671D01*
X140641480Y-75916450D01*
X140540069Y-75673910D01*
X140393290Y-75455815D01*
X140206783Y-75270545D01*
X139987715Y-75125221D01*
X139744505Y-75025428D01*
X139486500Y-74975000D01*
X138936500Y-74975000D01*
X138682500Y-74975000D01*
X138132500Y-74975000D01*
X137874495Y-75025428D01*
X137631285Y-75125221D01*
X137412217Y-75270545D01*
X137225710Y-75455815D01*
X137078931Y-75673910D01*
X136977520Y-75916450D01*
X136966784Y-75976671D01*
X135902216Y-75976671D01*
X135891480Y-75916450D01*
X135790069Y-75673910D01*
X135643290Y-75455815D01*
X135456783Y-75270545D01*
X135237715Y-75125221D01*
X134994505Y-75025428D01*
X134736500Y-74975000D01*
X134186500Y-74975000D01*
X133932500Y-74975000D01*
X133382500Y-74975000D01*
X133124495Y-75025428D01*
X132881285Y-75125221D01*
X132662217Y-75270545D01*
X132475710Y-75455815D01*
X132328931Y-75673910D01*
X132227520Y-75916450D01*
X132216784Y-75976671D01*
X122277895Y-75976671D01*
X119491223Y-73190000D01*
X119521335Y-73190000D01*
X119798574Y-73134853D01*
X120059727Y-73026680D01*
X120294759Y-72869637D01*
X120494637Y-72669759D01*
X120651680Y-72434727D01*
X120656067Y-72424135D01*
X120767615Y-72610131D01*
X120956586Y-72818519D01*
X121182580Y-72986037D01*
X121436913Y-73106246D01*
X121570961Y-73146904D01*
X121793000Y-73024915D01*
X121793000Y-71882000D01*
X121773000Y-71882000D01*
X121773000Y-71628000D01*
X121793000Y-71628000D01*
X121793000Y-71608000D01*
X122047000Y-71608000D01*
X122047000Y-71628000D01*
X122067000Y-71628000D01*
X122067000Y-71882000D01*
X122047000Y-71882000D01*
X122047000Y-73024915D01*
X122269039Y-73146904D01*
X122403087Y-73106246D01*
X122657420Y-72986037D01*
X122883414Y-72818519D01*
X123072385Y-72610131D01*
X123183933Y-72424135D01*
X123188320Y-72434727D01*
X123345363Y-72669759D01*
X123545241Y-72869637D01*
X123780273Y-73026680D01*
X124041426Y-73134853D01*
X124318665Y-73190000D01*
X124601335Y-73190000D01*
X124777616Y-73154935D01*
X134623670Y-73154935D01*
X134797723Y-73485854D01*
X135198040Y-73691625D01*
X135630808Y-73815346D01*
X136079398Y-73852259D01*
X136526570Y-73800949D01*
X136955139Y-73663385D01*
X137287277Y-73485854D01*
X137461330Y-73154935D01*
X136042500Y-71736105D01*
X134623670Y-73154935D01*
X124777616Y-73154935D01*
X124878574Y-73134853D01*
X125139727Y-73026680D01*
X125374759Y-72869637D01*
X125574637Y-72669759D01*
X125731680Y-72434727D01*
X125839853Y-72173574D01*
X125895000Y-71896335D01*
X125895000Y-71613665D01*
X125890969Y-71593398D01*
X133746741Y-71593398D01*
X133798051Y-72040570D01*
X133935615Y-72469139D01*
X134113146Y-72801277D01*
X134444065Y-72975330D01*
X135862895Y-71556500D01*
X136222105Y-71556500D01*
X137640935Y-72975330D01*
X137971854Y-72801277D01*
X138177625Y-72400960D01*
X138301346Y-71968192D01*
X138338259Y-71519602D01*
X138286949Y-71072430D01*
X138149385Y-70643861D01*
X137971854Y-70311723D01*
X137640935Y-70137670D01*
X136222105Y-71556500D01*
X135862895Y-71556500D01*
X134444065Y-70137670D01*
X134113146Y-70311723D01*
X133907375Y-70712040D01*
X133783654Y-71144808D01*
X133746741Y-71593398D01*
X125890969Y-71593398D01*
X125839853Y-71336426D01*
X125731680Y-71075273D01*
X125657330Y-70964000D01*
X130722761Y-70964000D01*
X130765000Y-70968160D01*
X130807239Y-70964000D01*
X130807246Y-70964000D01*
X130933589Y-70951556D01*
X131095700Y-70902381D01*
X131245102Y-70822524D01*
X131376054Y-70715054D01*
X131402988Y-70682235D01*
X132127158Y-69958065D01*
X134623670Y-69958065D01*
X136042500Y-71376895D01*
X137461330Y-69958065D01*
X137287277Y-69627146D01*
X136886960Y-69421375D01*
X136454192Y-69297654D01*
X136005602Y-69260741D01*
X135558430Y-69312051D01*
X135129861Y-69449615D01*
X134797723Y-69627146D01*
X134623670Y-69958065D01*
X132127158Y-69958065D01*
X132514050Y-69571173D01*
X132616240Y-69591500D01*
X132908760Y-69591500D01*
X133195658Y-69534432D01*
X133465911Y-69422490D01*
X133709132Y-69259975D01*
X133915975Y-69053132D01*
X134078490Y-68809911D01*
X134190432Y-68539658D01*
X134247500Y-68252760D01*
X134247500Y-67960240D01*
X134190432Y-67673342D01*
X134078490Y-67403089D01*
X133915975Y-67159868D01*
X133812607Y-67056500D01*
X133915975Y-66953132D01*
X134078490Y-66709911D01*
X134190432Y-66439658D01*
X134217230Y-66304935D01*
X135423670Y-66304935D01*
X135597723Y-66635854D01*
X135998040Y-66841625D01*
X136430808Y-66965346D01*
X136879398Y-67002259D01*
X137326570Y-66950949D01*
X137755139Y-66813385D01*
X138087277Y-66635854D01*
X138261330Y-66304935D01*
X136842500Y-64886105D01*
X135423670Y-66304935D01*
X134217230Y-66304935D01*
X134247500Y-66152760D01*
X134247500Y-65860240D01*
X134190432Y-65573342D01*
X134078490Y-65303089D01*
X133915975Y-65059868D01*
X133709132Y-64853025D01*
X133545064Y-64743398D01*
X134546741Y-64743398D01*
X134598051Y-65190570D01*
X134735615Y-65619139D01*
X134913146Y-65951277D01*
X135244065Y-66125330D01*
X136662895Y-64706500D01*
X137022105Y-64706500D01*
X138440935Y-66125330D01*
X138771854Y-65951277D01*
X138977625Y-65550960D01*
X139101346Y-65118192D01*
X139138259Y-64669602D01*
X139086949Y-64222430D01*
X138949385Y-63793861D01*
X138771854Y-63461723D01*
X138440935Y-63287670D01*
X137022105Y-64706500D01*
X136662895Y-64706500D01*
X135244065Y-63287670D01*
X134913146Y-63461723D01*
X134707375Y-63862040D01*
X134583654Y-64294808D01*
X134546741Y-64743398D01*
X133545064Y-64743398D01*
X133489842Y-64706500D01*
X133709132Y-64559975D01*
X133915975Y-64353132D01*
X134078490Y-64109911D01*
X134190432Y-63839658D01*
X134247500Y-63552760D01*
X134247500Y-63260240D01*
X134217231Y-63108065D01*
X135423670Y-63108065D01*
X136842500Y-64526895D01*
X138261330Y-63108065D01*
X138087277Y-62777146D01*
X137686960Y-62571375D01*
X137254192Y-62447654D01*
X136805602Y-62410741D01*
X136358430Y-62462051D01*
X135929861Y-62599615D01*
X135597723Y-62777146D01*
X135423670Y-63108065D01*
X134217231Y-63108065D01*
X134190432Y-62973342D01*
X134078490Y-62703089D01*
X133915975Y-62459868D01*
X133817254Y-62361147D01*
X133907004Y-62271396D01*
X133790899Y-62155291D01*
X134039972Y-62077657D01*
X134165871Y-61813617D01*
X134237839Y-61530089D01*
X134253111Y-61237969D01*
X134211099Y-60948481D01*
X134113419Y-60672753D01*
X134039972Y-60535343D01*
X133790897Y-60457708D01*
X132942105Y-61306500D01*
X132956248Y-61320643D01*
X132776643Y-61500248D01*
X132762500Y-61486105D01*
X132748358Y-61500248D01*
X132568753Y-61320643D01*
X132582895Y-61306500D01*
X131734103Y-60457708D01*
X131524916Y-60522910D01*
X131415975Y-60359868D01*
X131334210Y-60278103D01*
X131913708Y-60278103D01*
X132762500Y-61126895D01*
X133611292Y-60278103D01*
X133533657Y-60029028D01*
X133269617Y-59903129D01*
X132986089Y-59831161D01*
X132693969Y-59815889D01*
X132404481Y-59857901D01*
X132128753Y-59955581D01*
X131991343Y-60029028D01*
X131913708Y-60278103D01*
X131334210Y-60278103D01*
X131209132Y-60153025D01*
X130965911Y-59990510D01*
X130695658Y-59878568D01*
X130408760Y-59821500D01*
X130116240Y-59821500D01*
X129829342Y-59878568D01*
X129559089Y-59990510D01*
X129315868Y-60153025D01*
X129109025Y-60359868D01*
X128946510Y-60603089D01*
X128834568Y-60873342D01*
X128777500Y-61160240D01*
X128777500Y-61452760D01*
X128834568Y-61739658D01*
X128946510Y-62009911D01*
X129109025Y-62253132D01*
X129315868Y-62459975D01*
X129559089Y-62622490D01*
X129829342Y-62734432D01*
X130116240Y-62791500D01*
X130408760Y-62791500D01*
X130695658Y-62734432D01*
X130965911Y-62622490D01*
X131209132Y-62459975D01*
X131415975Y-62253132D01*
X131524916Y-62090090D01*
X131734101Y-62155291D01*
X131617996Y-62271396D01*
X131707747Y-62361147D01*
X131609025Y-62459868D01*
X131446510Y-62703089D01*
X131334568Y-62973342D01*
X131277500Y-63260240D01*
X131277500Y-63552760D01*
X131334568Y-63839658D01*
X131446510Y-64109911D01*
X131609025Y-64353132D01*
X131815868Y-64559975D01*
X132035158Y-64706500D01*
X131815868Y-64853025D01*
X131609025Y-65059868D01*
X131446510Y-65303089D01*
X131367078Y-65494855D01*
X129682988Y-63810765D01*
X129656054Y-63777946D01*
X129525102Y-63670476D01*
X129375700Y-63590619D01*
X129213589Y-63541444D01*
X129087246Y-63529000D01*
X129087239Y-63529000D01*
X129045000Y-63524840D01*
X129002761Y-63529000D01*
X104750224Y-63529000D01*
X102981223Y-61760000D01*
X102997002Y-61760000D01*
X102997002Y-61594916D01*
X103219039Y-61716904D01*
X103353087Y-61676246D01*
X103607420Y-61556037D01*
X103833414Y-61388519D01*
X104022385Y-61180131D01*
X104133933Y-60994135D01*
X104138320Y-61004727D01*
X104295363Y-61239759D01*
X104495241Y-61439637D01*
X104730273Y-61596680D01*
X104991426Y-61704853D01*
X105268665Y-61760000D01*
X105551335Y-61760000D01*
X105828574Y-61704853D01*
X106089727Y-61596680D01*
X106324759Y-61439637D01*
X106524637Y-61239759D01*
X106680000Y-61007241D01*
X106835363Y-61239759D01*
X107035241Y-61439637D01*
X107270273Y-61596680D01*
X107531426Y-61704853D01*
X107808665Y-61760000D01*
X108091335Y-61760000D01*
X108368574Y-61704853D01*
X108629727Y-61596680D01*
X108864759Y-61439637D01*
X109064637Y-61239759D01*
X109220000Y-61007241D01*
X109375363Y-61239759D01*
X109575241Y-61439637D01*
X109810273Y-61596680D01*
X110071426Y-61704853D01*
X110348665Y-61760000D01*
X110631335Y-61760000D01*
X110908574Y-61704853D01*
X111169727Y-61596680D01*
X111404759Y-61439637D01*
X111604637Y-61239759D01*
X111760000Y-61007241D01*
X111915363Y-61239759D01*
X112115241Y-61439637D01*
X112350273Y-61596680D01*
X112611426Y-61704853D01*
X112888665Y-61760000D01*
X113171335Y-61760000D01*
X113448574Y-61704853D01*
X113709727Y-61596680D01*
X113944759Y-61439637D01*
X114144637Y-61239759D01*
X114300000Y-61007241D01*
X114455363Y-61239759D01*
X114655241Y-61439637D01*
X114890273Y-61596680D01*
X115151426Y-61704853D01*
X115428665Y-61760000D01*
X115711335Y-61760000D01*
X115988574Y-61704853D01*
X116249727Y-61596680D01*
X116484759Y-61439637D01*
X116684637Y-61239759D01*
X116840000Y-61007241D01*
X116995363Y-61239759D01*
X117195241Y-61439637D01*
X117430273Y-61596680D01*
X117691426Y-61704853D01*
X117968665Y-61760000D01*
X118251335Y-61760000D01*
X118528574Y-61704853D01*
X118789727Y-61596680D01*
X119024759Y-61439637D01*
X119224637Y-61239759D01*
X119381680Y-61004727D01*
X119489853Y-60743574D01*
X119545000Y-60466335D01*
X119545000Y-60183665D01*
X119489853Y-59906426D01*
X119381680Y-59645273D01*
X119254501Y-59454935D01*
X134623670Y-59454935D01*
X134797723Y-59785854D01*
X135198040Y-59991625D01*
X135630808Y-60115346D01*
X136079398Y-60152259D01*
X136526570Y-60100949D01*
X136955139Y-59963385D01*
X137287277Y-59785854D01*
X137461330Y-59454935D01*
X136042500Y-58036105D01*
X134623670Y-59454935D01*
X119254501Y-59454935D01*
X119224637Y-59410241D01*
X119024759Y-59210363D01*
X118789727Y-59053320D01*
X118528574Y-58945147D01*
X118251335Y-58890000D01*
X117968665Y-58890000D01*
X117691426Y-58945147D01*
X117430273Y-59053320D01*
X117195241Y-59210363D01*
X116995363Y-59410241D01*
X116840000Y-59642759D01*
X116684637Y-59410241D01*
X116484759Y-59210363D01*
X116249727Y-59053320D01*
X115988574Y-58945147D01*
X115711335Y-58890000D01*
X115428665Y-58890000D01*
X115151426Y-58945147D01*
X114890273Y-59053320D01*
X114655241Y-59210363D01*
X114455363Y-59410241D01*
X114300000Y-59642759D01*
X114144637Y-59410241D01*
X113944759Y-59210363D01*
X113709727Y-59053320D01*
X113448574Y-58945147D01*
X113171335Y-58890000D01*
X112888665Y-58890000D01*
X112611426Y-58945147D01*
X112350273Y-59053320D01*
X112115241Y-59210363D01*
X111915363Y-59410241D01*
X111760000Y-59642759D01*
X111604637Y-59410241D01*
X111404759Y-59210363D01*
X111169727Y-59053320D01*
X110908574Y-58945147D01*
X110631335Y-58890000D01*
X110348665Y-58890000D01*
X110071426Y-58945147D01*
X109810273Y-59053320D01*
X109575241Y-59210363D01*
X109375363Y-59410241D01*
X109220000Y-59642759D01*
X109064637Y-59410241D01*
X108864759Y-59210363D01*
X108629727Y-59053320D01*
X108368574Y-58945147D01*
X108091335Y-58890000D01*
X107808665Y-58890000D01*
X107531426Y-58945147D01*
X107270273Y-59053320D01*
X107035241Y-59210363D01*
X106835363Y-59410241D01*
X106680000Y-59642759D01*
X106524637Y-59410241D01*
X106324759Y-59210363D01*
X106089727Y-59053320D01*
X105828574Y-58945147D01*
X105551335Y-58890000D01*
X105268665Y-58890000D01*
X104991426Y-58945147D01*
X104730273Y-59053320D01*
X104495241Y-59210363D01*
X104295363Y-59410241D01*
X104138320Y-59645273D01*
X104133933Y-59655865D01*
X104022385Y-59469869D01*
X103833414Y-59261481D01*
X103607420Y-59093963D01*
X103353087Y-58973754D01*
X103219039Y-58933096D01*
X102997000Y-59055085D01*
X102997000Y-60198000D01*
X103017000Y-60198000D01*
X103017000Y-60452000D01*
X102997000Y-60452000D01*
X102997000Y-60472000D01*
X102743000Y-60472000D01*
X102743000Y-60452000D01*
X102723000Y-60452000D01*
X102723000Y-60198000D01*
X102743000Y-60198000D01*
X102743000Y-59055085D01*
X102520961Y-58933096D01*
X102386913Y-58973754D01*
X102132580Y-59093963D01*
X101906586Y-59261481D01*
X101717615Y-59469869D01*
X101606067Y-59655865D01*
X101601680Y-59645273D01*
X101444637Y-59410241D01*
X101244759Y-59210363D01*
X101009727Y-59053320D01*
X100748574Y-58945147D01*
X100471335Y-58890000D01*
X100188665Y-58890000D01*
X99911426Y-58945147D01*
X99650273Y-59053320D01*
X99415241Y-59210363D01*
X99215363Y-59410241D01*
X99058320Y-59645273D01*
X98950147Y-59906426D01*
X98895000Y-60183665D01*
X98895000Y-60466335D01*
X98950147Y-60743574D01*
X99058320Y-61004727D01*
X99215363Y-61239759D01*
X99415241Y-61439637D01*
X99650273Y-61596680D01*
X99911426Y-61704853D01*
X100188665Y-61760000D01*
X100471335Y-61760000D01*
X100535928Y-61747151D01*
X103756015Y-64967239D01*
X103782946Y-65000054D01*
X103913898Y-65107524D01*
X104063300Y-65187381D01*
X104176235Y-65221639D01*
X104225410Y-65236556D01*
X104240975Y-65238089D01*
X104351754Y-65249000D01*
X104351761Y-65249000D01*
X104394000Y-65253160D01*
X104436239Y-65249000D01*
X128688777Y-65249000D01*
X130070396Y-66630619D01*
X129829342Y-66678568D01*
X129559089Y-66790510D01*
X129315868Y-66953025D01*
X129109025Y-67159868D01*
X128946510Y-67403089D01*
X128834568Y-67673342D01*
X128777500Y-67960240D01*
X128777500Y-68252760D01*
X128834568Y-68539658D01*
X128946510Y-68809911D01*
X129109025Y-69053132D01*
X129299893Y-69244000D01*
X118723771Y-69244000D01*
X118789727Y-69216680D01*
X119024759Y-69059637D01*
X119224637Y-68859759D01*
X119381680Y-68624727D01*
X119489853Y-68363574D01*
X119545000Y-68086335D01*
X119545000Y-67803665D01*
X119489853Y-67526426D01*
X119381680Y-67265273D01*
X119224637Y-67030241D01*
X119024759Y-66830363D01*
X118789727Y-66673320D01*
X118528574Y-66565147D01*
X118251335Y-66510000D01*
X117968665Y-66510000D01*
X117691426Y-66565147D01*
X117430273Y-66673320D01*
X117195241Y-66830363D01*
X116995363Y-67030241D01*
X116840000Y-67262759D01*
X116684637Y-67030241D01*
X116484759Y-66830363D01*
X116249727Y-66673320D01*
X115988574Y-66565147D01*
X115711335Y-66510000D01*
X115428665Y-66510000D01*
X115151426Y-66565147D01*
X114890273Y-66673320D01*
X114655241Y-66830363D01*
X114455363Y-67030241D01*
X114300000Y-67262759D01*
X114144637Y-67030241D01*
X113944759Y-66830363D01*
X113709727Y-66673320D01*
X113448574Y-66565147D01*
X113171335Y-66510000D01*
X112888665Y-66510000D01*
X112611426Y-66565147D01*
X112350273Y-66673320D01*
X112115241Y-66830363D01*
X111915363Y-67030241D01*
X111760000Y-67262759D01*
X111604637Y-67030241D01*
X111404759Y-66830363D01*
X111169727Y-66673320D01*
X110908574Y-66565147D01*
X110631335Y-66510000D01*
X110348665Y-66510000D01*
X110071426Y-66565147D01*
X109810273Y-66673320D01*
X109575241Y-66830363D01*
X109375363Y-67030241D01*
X109220000Y-67262759D01*
X109064637Y-67030241D01*
X108864759Y-66830363D01*
X108629727Y-66673320D01*
X108368574Y-66565147D01*
X108091335Y-66510000D01*
X107808665Y-66510000D01*
X107531426Y-66565147D01*
X107270273Y-66673320D01*
X107035241Y-66830363D01*
X106835363Y-67030241D01*
X106680000Y-67262759D01*
X106524637Y-67030241D01*
X106324759Y-66830363D01*
X106089727Y-66673320D01*
X105828574Y-66565147D01*
X105551335Y-66510000D01*
X105268665Y-66510000D01*
X104991426Y-66565147D01*
X104730273Y-66673320D01*
X104625318Y-66743448D01*
X104065447Y-66183578D01*
X104039292Y-66151708D01*
X103912147Y-66047363D01*
X103767088Y-65969827D01*
X103609690Y-65922081D01*
X103487020Y-65909999D01*
X103487019Y-65909999D01*
X103446001Y-65905959D01*
X103404983Y-65909999D01*
X101571019Y-65909999D01*
X101530001Y-65905959D01*
X101488983Y-65909999D01*
X101488982Y-65909999D01*
X101366312Y-65922081D01*
X101208914Y-65969827D01*
X101063855Y-66047363D01*
X100968852Y-66125330D01*
X100936710Y-66151708D01*
X100910564Y-66183567D01*
X100587204Y-66506928D01*
X99530000Y-66506928D01*
X99405518Y-66519188D01*
X99285820Y-66555498D01*
X99175506Y-66614463D01*
X99078815Y-66693815D01*
X98999463Y-66790506D01*
X98940498Y-66900820D01*
X98904188Y-67020518D01*
X98891928Y-67145000D01*
X98891928Y-68745000D01*
X98904188Y-68869482D01*
X98940498Y-68989180D01*
X98999463Y-69099494D01*
X99078815Y-69196185D01*
X99175506Y-69275537D01*
X99285820Y-69334502D01*
X99405518Y-69370812D01*
X99530000Y-69383072D01*
X101130000Y-69383072D01*
X101254482Y-69370812D01*
X101374180Y-69334502D01*
X101484494Y-69275537D01*
X101581185Y-69196185D01*
X101660537Y-69099494D01*
X101719502Y-68989180D01*
X101755812Y-68869482D01*
X101756643Y-68861039D01*
X101955241Y-69059637D01*
X102035000Y-69112930D01*
X102035000Y-70381951D01*
X102018574Y-70375147D01*
X101741335Y-70320000D01*
X101458665Y-70320000D01*
X101181426Y-70375147D01*
X100920273Y-70483320D01*
X100685241Y-70640363D01*
X100485363Y-70840241D01*
X100330000Y-71072759D01*
X100174637Y-70840241D01*
X99974759Y-70640363D01*
X99739727Y-70483320D01*
X99478574Y-70375147D01*
X99201335Y-70320000D01*
X98918665Y-70320000D01*
X98641426Y-70375147D01*
X98380273Y-70483320D01*
X98145241Y-70640363D01*
X97945363Y-70840241D01*
X97790000Y-71072759D01*
X97634637Y-70840241D01*
X97434759Y-70640363D01*
X97199727Y-70483320D01*
X96938574Y-70375147D01*
X96661335Y-70320000D01*
X96378665Y-70320000D01*
X96101426Y-70375147D01*
X95840273Y-70483320D01*
X95605241Y-70640363D01*
X95405363Y-70840241D01*
X95248320Y-71075273D01*
X95140147Y-71336426D01*
X95085000Y-71613665D01*
X93150731Y-71613665D01*
X93189637Y-71574759D01*
X93346680Y-71339727D01*
X93454853Y-71078574D01*
X93510000Y-70801335D01*
X93510000Y-70518665D01*
X93454853Y-70241426D01*
X93346680Y-69980273D01*
X93189637Y-69745241D01*
X92989759Y-69545363D01*
X92754727Y-69388320D01*
X92493574Y-69280147D01*
X92467699Y-69275000D01*
X92493574Y-69269853D01*
X92754727Y-69161680D01*
X92989759Y-69004637D01*
X93189637Y-68804759D01*
X93346680Y-68569727D01*
X93454853Y-68308574D01*
X93510000Y-68031335D01*
X93510000Y-67748665D01*
X93454853Y-67471426D01*
X93346680Y-67210273D01*
X93189637Y-66975241D01*
X92989759Y-66775363D01*
X92754727Y-66618320D01*
X92493574Y-66510147D01*
X92465118Y-66504487D01*
X92691292Y-66423603D01*
X92816514Y-66356671D01*
X92888097Y-66112702D01*
X92075000Y-65299605D01*
X91261903Y-66112702D01*
X91333486Y-66356671D01*
X91588996Y-66477571D01*
X91691289Y-66503212D01*
X91656426Y-66510147D01*
X91395273Y-66618320D01*
X91160241Y-66775363D01*
X90960363Y-66975241D01*
X90803320Y-67210273D01*
X90695147Y-67471426D01*
X90640000Y-67748665D01*
X90640000Y-68031335D01*
X90695147Y-68308574D01*
X90803320Y-68569727D01*
X90960363Y-68804759D01*
X91160241Y-69004637D01*
X91395273Y-69161680D01*
X91656426Y-69269853D01*
X91682301Y-69275000D01*
X91656426Y-69280147D01*
X91395273Y-69388320D01*
X91160241Y-69545363D01*
X90960363Y-69745241D01*
X90803320Y-69980273D01*
X90695147Y-70241426D01*
X90640000Y-70518665D01*
X90640000Y-70801335D01*
X90695147Y-71078574D01*
X90803320Y-71339727D01*
X90960363Y-71574759D01*
X91160241Y-71774637D01*
X91395273Y-71931680D01*
X91656426Y-72039853D01*
X91682301Y-72045000D01*
X91656426Y-72050147D01*
X91395273Y-72158320D01*
X91160241Y-72315363D01*
X90960363Y-72515241D01*
X90803320Y-72750273D01*
X90695147Y-73011426D01*
X90640000Y-73288665D01*
X90640000Y-73571335D01*
X90695147Y-73848574D01*
X90803320Y-74109727D01*
X90960363Y-74344759D01*
X91160241Y-74544637D01*
X91395273Y-74701680D01*
X91540725Y-74761928D01*
X91275000Y-74761928D01*
X91150518Y-74774188D01*
X91030820Y-74810498D01*
X90920506Y-74869463D01*
X90823815Y-74948815D01*
X90744463Y-75045506D01*
X90685498Y-75155820D01*
X90649188Y-75275518D01*
X90636928Y-75400000D01*
X90545917Y-75400000D01*
X90614853Y-75233574D01*
X90670000Y-74956335D01*
X90670000Y-74673665D01*
X90614853Y-74396426D01*
X90506680Y-74135273D01*
X90349637Y-73900241D01*
X90149759Y-73700363D01*
X89914727Y-73543320D01*
X89653574Y-73435147D01*
X89627699Y-73430000D01*
X89653574Y-73424853D01*
X89914727Y-73316680D01*
X90149759Y-73159637D01*
X90349637Y-72959759D01*
X90506680Y-72724727D01*
X90614853Y-72463574D01*
X90670000Y-72186335D01*
X90670000Y-71903665D01*
X90614853Y-71626426D01*
X90506680Y-71365273D01*
X90349637Y-71130241D01*
X90149759Y-70930363D01*
X89914727Y-70773320D01*
X89653574Y-70665147D01*
X89627699Y-70660000D01*
X89653574Y-70654853D01*
X89914727Y-70546680D01*
X90149759Y-70389637D01*
X90349637Y-70189759D01*
X90506680Y-69954727D01*
X90614853Y-69693574D01*
X90670000Y-69416335D01*
X90670000Y-69133665D01*
X90614853Y-68856426D01*
X90506680Y-68595273D01*
X90349637Y-68360241D01*
X90149759Y-68160363D01*
X89914727Y-68003320D01*
X89653574Y-67895147D01*
X89627699Y-67890000D01*
X89653574Y-67884853D01*
X89914727Y-67776680D01*
X90149759Y-67619637D01*
X90349637Y-67419759D01*
X90506680Y-67184727D01*
X90614853Y-66923574D01*
X90670000Y-66646335D01*
X90670000Y-66363665D01*
X90614853Y-66086426D01*
X90506680Y-65825273D01*
X90349637Y-65590241D01*
X90149759Y-65390363D01*
X89914727Y-65233320D01*
X89811380Y-65190512D01*
X90634783Y-65190512D01*
X90676213Y-65470130D01*
X90771397Y-65736292D01*
X90838329Y-65861514D01*
X91082298Y-65933097D01*
X91895395Y-65120000D01*
X92254605Y-65120000D01*
X93067702Y-65933097D01*
X93311671Y-65861514D01*
X93432571Y-65606004D01*
X93501300Y-65331816D01*
X93515217Y-65049488D01*
X93473787Y-64769870D01*
X93378603Y-64503708D01*
X93311671Y-64378486D01*
X93067702Y-64306903D01*
X92254605Y-65120000D01*
X91895395Y-65120000D01*
X91082298Y-64306903D01*
X90838329Y-64378486D01*
X90717429Y-64633996D01*
X90648700Y-64908184D01*
X90634783Y-65190512D01*
X89811380Y-65190512D01*
X89653574Y-65125147D01*
X89376335Y-65070000D01*
X89093665Y-65070000D01*
X88816426Y-65125147D01*
X88555273Y-65233320D01*
X88320241Y-65390363D01*
X88120363Y-65590241D01*
X87963320Y-65825273D01*
X87855147Y-66086426D01*
X87800000Y-66363665D01*
X81940000Y-66363665D01*
X81940000Y-64127298D01*
X91261903Y-64127298D01*
X92075000Y-64940395D01*
X92888097Y-64127298D01*
X92816514Y-63883329D01*
X92561004Y-63762429D01*
X92286816Y-63693700D01*
X92004488Y-63679783D01*
X91724870Y-63721213D01*
X91458708Y-63816397D01*
X91333486Y-63883329D01*
X91261903Y-64127298D01*
X81940000Y-64127298D01*
X81940000Y-60007499D01*
X88987106Y-60007499D01*
X89203228Y-60374258D01*
X89663105Y-60614938D01*
X90161098Y-60761275D01*
X90678071Y-60807648D01*
X91194159Y-60752273D01*
X91689526Y-60597279D01*
X92106772Y-60374258D01*
X92322894Y-60007499D01*
X90655000Y-58339605D01*
X88987106Y-60007499D01*
X81940000Y-60007499D01*
X81940000Y-58183071D01*
X88007352Y-58183071D01*
X88062727Y-58699159D01*
X88217721Y-59194526D01*
X88440742Y-59611772D01*
X88807501Y-59827894D01*
X90475395Y-58160000D01*
X90834605Y-58160000D01*
X92502499Y-59827894D01*
X92869258Y-59611772D01*
X93109938Y-59151895D01*
X93256275Y-58653902D01*
X93302648Y-58136929D01*
X93247273Y-57620841D01*
X93092279Y-57125474D01*
X92869258Y-56708228D01*
X92502499Y-56492106D01*
X90834605Y-58160000D01*
X90475395Y-58160000D01*
X88807501Y-56492106D01*
X88440742Y-56708228D01*
X88200062Y-57168105D01*
X88053725Y-57666098D01*
X88007352Y-58183071D01*
X81940000Y-58183071D01*
X81940000Y-55840804D01*
X89414289Y-55832928D01*
X89203228Y-55945742D01*
X88987106Y-56312501D01*
X90655000Y-57980395D01*
X92322894Y-56312501D01*
X92106772Y-55945742D01*
X91886237Y-55830323D01*
X95253998Y-55826775D01*
X95248320Y-55835273D01*
X95140147Y-56096426D01*
X95085000Y-56373665D01*
X95085000Y-56656335D01*
X95140147Y-56933574D01*
X95248320Y-57194727D01*
X95405363Y-57429759D01*
X95605241Y-57629637D01*
X95840273Y-57786680D01*
X96101426Y-57894853D01*
X96378665Y-57950000D01*
X96661335Y-57950000D01*
X96938574Y-57894853D01*
X97199727Y-57786680D01*
X97434759Y-57629637D01*
X97634637Y-57429759D01*
X97790000Y-57197241D01*
X97945363Y-57429759D01*
X98145241Y-57629637D01*
X98380273Y-57786680D01*
X98641426Y-57894853D01*
X98918665Y-57950000D01*
X99201335Y-57950000D01*
X99478574Y-57894853D01*
X99739727Y-57786680D01*
X99974759Y-57629637D01*
X100174637Y-57429759D01*
X100330000Y-57197241D01*
X100485363Y-57429759D01*
X100685241Y-57629637D01*
X100920273Y-57786680D01*
X101181426Y-57894853D01*
X101458665Y-57950000D01*
X101741335Y-57950000D01*
X102018574Y-57894853D01*
X102279727Y-57786680D01*
X102514759Y-57629637D01*
X102714637Y-57429759D01*
X102870000Y-57197241D01*
X103025363Y-57429759D01*
X103225241Y-57629637D01*
X103460273Y-57786680D01*
X103721426Y-57894853D01*
X103998665Y-57950000D01*
X104281335Y-57950000D01*
X104558574Y-57894853D01*
X104819727Y-57786680D01*
X105054759Y-57629637D01*
X105254637Y-57429759D01*
X105410000Y-57197241D01*
X105565363Y-57429759D01*
X105765241Y-57629637D01*
X106000273Y-57786680D01*
X106261426Y-57894853D01*
X106538665Y-57950000D01*
X106821335Y-57950000D01*
X107098574Y-57894853D01*
X107359727Y-57786680D01*
X107594759Y-57629637D01*
X107794637Y-57429759D01*
X107950000Y-57197241D01*
X108105363Y-57429759D01*
X108305241Y-57629637D01*
X108540273Y-57786680D01*
X108801426Y-57894853D01*
X109078665Y-57950000D01*
X109361335Y-57950000D01*
X109638574Y-57894853D01*
X109899727Y-57786680D01*
X110134759Y-57629637D01*
X110334637Y-57429759D01*
X110490000Y-57197241D01*
X110645363Y-57429759D01*
X110845241Y-57629637D01*
X111080273Y-57786680D01*
X111341426Y-57894853D01*
X111618665Y-57950000D01*
X111901335Y-57950000D01*
X112178574Y-57894853D01*
X112439727Y-57786680D01*
X112674759Y-57629637D01*
X112874637Y-57429759D01*
X113030000Y-57197241D01*
X113185363Y-57429759D01*
X113385241Y-57629637D01*
X113620273Y-57786680D01*
X113881426Y-57894853D01*
X114158665Y-57950000D01*
X114441335Y-57950000D01*
X114718574Y-57894853D01*
X114979727Y-57786680D01*
X115214759Y-57629637D01*
X115414637Y-57429759D01*
X115571680Y-57194727D01*
X115576067Y-57184135D01*
X115687615Y-57370131D01*
X115876586Y-57578519D01*
X116102580Y-57746037D01*
X116356913Y-57866246D01*
X116490961Y-57906904D01*
X116713000Y-57784915D01*
X116713000Y-56642000D01*
X116693000Y-56642000D01*
X116693000Y-56388000D01*
X116713000Y-56388000D01*
X116713000Y-56368000D01*
X116967000Y-56368000D01*
X116967000Y-56388000D01*
X116987000Y-56388000D01*
X116987000Y-56642000D01*
X116967000Y-56642000D01*
X116967000Y-57784915D01*
X117189039Y-57906904D01*
X117323087Y-57866246D01*
X117577420Y-57746037D01*
X117803414Y-57578519D01*
X117992385Y-57370131D01*
X118103933Y-57184135D01*
X118108320Y-57194727D01*
X118265363Y-57429759D01*
X118465241Y-57629637D01*
X118700273Y-57786680D01*
X118961426Y-57894853D01*
X119238665Y-57950000D01*
X119521335Y-57950000D01*
X119798574Y-57894853D01*
X120059727Y-57786680D01*
X120294759Y-57629637D01*
X120494637Y-57429759D01*
X120650000Y-57197241D01*
X120805363Y-57429759D01*
X121005241Y-57629637D01*
X121240273Y-57786680D01*
X121501426Y-57894853D01*
X121778665Y-57950000D01*
X122061335Y-57950000D01*
X122338574Y-57894853D01*
X122599727Y-57786680D01*
X122834759Y-57629637D01*
X123033357Y-57431039D01*
X123034188Y-57439482D01*
X123070498Y-57559180D01*
X123129463Y-57669494D01*
X123208815Y-57766185D01*
X123305506Y-57845537D01*
X123415820Y-57904502D01*
X123535518Y-57940812D01*
X123660000Y-57953072D01*
X125260000Y-57953072D01*
X125384482Y-57940812D01*
X125504180Y-57904502D01*
X125524953Y-57893398D01*
X133746741Y-57893398D01*
X133798051Y-58340570D01*
X133935615Y-58769139D01*
X134113146Y-59101277D01*
X134444065Y-59275330D01*
X135862895Y-57856500D01*
X136222105Y-57856500D01*
X137640935Y-59275330D01*
X137971854Y-59101277D01*
X138177625Y-58700960D01*
X138301346Y-58268192D01*
X138338259Y-57819602D01*
X138286949Y-57372430D01*
X138149385Y-56943861D01*
X137971854Y-56611723D01*
X137640935Y-56437670D01*
X136222105Y-57856500D01*
X135862895Y-57856500D01*
X134444065Y-56437670D01*
X134113146Y-56611723D01*
X133907375Y-57012040D01*
X133783654Y-57444808D01*
X133746741Y-57893398D01*
X125524953Y-57893398D01*
X125614494Y-57845537D01*
X125711185Y-57766185D01*
X125790537Y-57669494D01*
X125849502Y-57559180D01*
X125885812Y-57439482D01*
X125898072Y-57315000D01*
X125898072Y-55794484D01*
X135063987Y-55784825D01*
X134797723Y-55927146D01*
X134623670Y-56258065D01*
X136042500Y-57676895D01*
X137461330Y-56258065D01*
X137287277Y-55927146D01*
X137006418Y-55782779D01*
X140882851Y-55778694D01*
X140943649Y-85509500D01*
G37*
%TD.AperFunction*%
%TD*%
M02*
