%TF.GenerationSoftware,KiCad,Pcbnew,5.1.7*%
%TF.CreationDate,2020-11-23T19:29:32+01:00*%
%TF.ProjectId,ps2-serial-mouse-adapter,7073322d-7365-4726-9961-6c2d6d6f7573,0.5*%
%TF.SameCoordinates,Original*%
%TF.FileFunction,Soldermask,Bot*%
%TF.FilePolarity,Negative*%
%FSLAX46Y46*%
G04 Gerber Fmt 4.6, Leading zero omitted, Abs format (unit mm)*
G04 Created by KiCad (PCBNEW 5.1.7) date 2020-11-23 19:29:32*
%MOMM*%
%LPD*%
G01*
G04 APERTURE LIST*
%ADD10C,3.300000*%
%ADD11C,1.700000*%
%ADD12O,1.700000X1.700000*%
%ADD13R,1.700000X1.700000*%
%ADD14C,1.200000*%
%ADD15R,1.200000X1.200000*%
%ADD16O,1.600000X1.600000*%
%ADD17R,1.600000X1.600000*%
%ADD18C,4.000000*%
%ADD19C,1.600000*%
%ADD20O,2.500000X1.400000*%
%ADD21C,1.100000*%
G04 APERTURE END LIST*
D10*
%TO.C,MOUSE1*%
X136042500Y-57856500D03*
X136042500Y-71556500D03*
X136842500Y-64706500D03*
D11*
X132762500Y-63406500D03*
X132762500Y-66006500D03*
X132762500Y-61306500D03*
X130262500Y-61306500D03*
X132762500Y-68106500D03*
X130262500Y-68106500D03*
%TD*%
D12*
%TO.C,JP1*%
X98996500Y-77724000D03*
X98996500Y-75184000D03*
X96456500Y-77724000D03*
D13*
X96456500Y-75184000D03*
%TD*%
D14*
%TO.C,C2*%
X124690000Y-77216000D03*
D15*
X123190000Y-77216000D03*
%TD*%
D16*
%TO.C,U1*%
X124460000Y-71755000D03*
X96520000Y-56515000D03*
X121920000Y-71755000D03*
X99060000Y-56515000D03*
X119380000Y-71755000D03*
X101600000Y-56515000D03*
X116840000Y-71755000D03*
X104140000Y-56515000D03*
X114300000Y-71755000D03*
X106680000Y-56515000D03*
X111760000Y-71755000D03*
X109220000Y-56515000D03*
X109220000Y-71755000D03*
X111760000Y-56515000D03*
X106680000Y-71755000D03*
X114300000Y-56515000D03*
X104140000Y-71755000D03*
X116840000Y-56515000D03*
X101600000Y-71755000D03*
X119380000Y-56515000D03*
X99060000Y-71755000D03*
X121920000Y-56515000D03*
X96520000Y-71755000D03*
D17*
X124460000Y-56515000D03*
%TD*%
D14*
%TO.C,C5*%
X119610000Y-77216000D03*
D15*
X118110000Y-77216000D03*
%TD*%
D18*
%TO.C,RS232*%
X90655000Y-83160000D03*
X90655000Y-58160000D03*
D19*
X89235000Y-66505000D03*
X89235000Y-69275000D03*
X89235000Y-72045000D03*
X89235000Y-74815000D03*
X92075000Y-65120000D03*
X92075000Y-67890000D03*
X92075000Y-70660000D03*
X92075000Y-73430000D03*
D17*
X92075000Y-76200000D03*
%TD*%
D16*
%TO.C,U2*%
X100330000Y-60325000D03*
X118110000Y-67945000D03*
X102870000Y-60325000D03*
X115570000Y-67945000D03*
X105410000Y-60325000D03*
X113030000Y-67945000D03*
X107950000Y-60325000D03*
X110490000Y-67945000D03*
X110490000Y-60325000D03*
X107950000Y-67945000D03*
X113030000Y-60325000D03*
X105410000Y-67945000D03*
X115570000Y-60325000D03*
X102870000Y-67945000D03*
X118110000Y-60325000D03*
D17*
X100330000Y-67945000D03*
%TD*%
D20*
%TO.C,PWR1*%
X138809500Y-76310000D03*
X138809500Y-83710000D03*
X134059500Y-83710000D03*
X134059500Y-76310000D03*
D21*
X134359500Y-79210000D03*
X134359500Y-80810000D03*
X133159500Y-81610000D03*
X133159500Y-78410000D03*
X133159500Y-80010000D03*
%TD*%
D14*
%TO.C,C4*%
X105132000Y-77216000D03*
D15*
X103632000Y-77216000D03*
%TD*%
D14*
%TO.C,C3*%
X114784000Y-77216000D03*
D15*
X113284000Y-77216000D03*
%TD*%
D14*
%TO.C,C1*%
X109958000Y-77216000D03*
D15*
X108458000Y-77216000D03*
%TD*%
M02*
